<?xml version="1.0" encoding="UTF-8" standalone="no"?>
<svg width="65px" height="57px" viewBox="0 0 65 57" version="1.1" xmlns="http://www.w3.org/2000/svg" xmlns:xlink="http://www.w3.org/1999/xlink" xmlns:sketch="http://www.bohemiancoding.com/sketch/ns">
    <!-- Generator: Sketch 3.0.4 (8053) - http://www.bohemiancoding.com/sketch -->
    <title>bike</title>
    <desc>Created with Sketch.</desc>
    <defs></defs>
    <g id="Page-1" stroke="none" stroke-width="1" fill="none" fill-rule="evenodd" sketch:type="MSPage">
        <g id="Desktop-HD-5" sketch:type="MSArtboardGroup" transform="translate(-964.000000, -520.000000)" stroke="#FFFFFF">
            <g id="bike" sketch:type="MSLayerGroup" transform="translate(962.000000, 521.000000)">
                <ellipse id="Oval-8" fill-opacity="0.469146286" fill="rgba(255,255,255,0.5)" sketch:type="MSShapeGroup" transform="translate(19.317073, 37.861111) rotate(-14.000000) translate(-19.317073, -37.861111) " cx="19.3170732" cy="37.8611111" rx="16.097561" ry="16.9166667"></ellipse>
                <ellipse id="Oval-9" fill-opacity="0.469146286" fill="rgba(255,255,255,0.5)" sketch:type="MSShapeGroup" cx="55.9390244" cy="26.1805556" rx="10.0609756" ry="14.0972222"></ellipse>
                <path d="M26.9728467,12.2280816 C26.9728467,12.2280816 28.1047066,22.4910482 44.0089082,30.0635851" id="Path-769" sketch:type="MSShapeGroup"></path>
                <path d="M19.8138338,-0.0597873264 C19.8138338,-0.0597873264 24.8789062,5.06618924 35.1442454,2.50320095 C45.4095846,-0.0597873264 41.9904249,4.88682726 41.9904249,4.88682726" id="Path-770" sketch:type="MSShapeGroup"></path>
                <path d="M19.650867,37.9360791 C19.650867,37.9360791 24.3893769,27.770065 24.3893769,19.0493648 C27.3608232,11.4113425 26.9099654,3.41259769 26.9099654,3.41259769" id="Path-766" sketch:type="MSShapeGroup"></path>
                <path d="M24.8380335,19.2483724 L43.2260385,34.9881727 L46.9077268,11.1047092" id="Path-767" sketch:type="MSShapeGroup"></path>
                <path d="M39.8713632,9.92771972 C38.5452582,10.9207712 38.815019,11.7257984 40.4603394,11.7257984 L50.577697,11.7257984 C52.2290846,11.7257984 52.9452102,10.5327292 52.0988689,9.11955011 C52.0988689,9.11955011 50.6461599,5.53800295 47.9821474,5.53800295 C45.318135,5.53800295 39.8713632,9.92771972 39.8713632,9.92771972 Z" id="Rectangle-8" fill="#4A8496" sketch:type="MSShapeGroup" transform="translate(45.775116, 8.858900) rotate(-23.000000) translate(-45.775116, -8.858900) "></path>
            </g>
        </g>
    </g>
</svg>