<?xml version="1.0" encoding="UTF-8" standalone="no"?>
<svg width="44px" height="48px" viewBox="0 0 44 48" version="1.1" xmlns="http://www.w3.org/2000/svg" xmlns:xlink="http://www.w3.org/1999/xlink" xmlns:sketch="http://www.bohemiancoding.com/sketch/ns">
    <!-- Generator: Sketch 3.0.4 (8053) - http://www.bohemiancoding.com/sketch -->
    <title>buisson1 2</title>
    <desc>Created with Sketch.</desc>
    <defs></defs>
    <g id="Page-1" stroke="none" stroke-width="1" fill="none" fill-rule="evenodd" sketch:type="MSPage">
        <g id="Artboard-2" sketch:type="MSArtboardGroup" transform="translate(-57.000000, -800.000000)" stroke="#FFFFFF" stroke-opacity="0.74000001" fill="#6EBD16" fill-opacity="0.8">
            <g id="buisson1-2" sketch:type="MSLayerGroup" transform="translate(57.769960, 801.253933)">
                <path d="M11.1721792,1.04411774 C23.0370239,-8.02900524 27.9225506,45.0138442 27.9225506,45.0138442 C27.9225506,45.0138442 -0.692665377,10.1172338 11.1721792,1.04411774 Z" id="path3687" sketch:type="MSShapeGroup"></path>
                <path d="M27.9656012,43.2288252 C27.9656012,43.2288252 -1.34755203,36.9474377 0.0483157052,24.3846558 C1.44417653,11.8218807 27.9656012,43.2288252 27.9656012,43.2288252 L27.9656012,43.2288252 Z" id="path3689" sketch:type="MSShapeGroup"></path>
                <path d="M27.984932,39.9409334 C27.984932,39.9409334 12.6304216,5.74225341 26.5890712,9.23191928 C40.547714,12.7215782 27.984932,39.9409334 27.984932,39.9409334 L27.984932,39.9409334 Z" id="path3691" sketch:type="MSShapeGroup"></path>
                <path d="M28.3276215,42.4007212 C28.3276215,42.4007212 28.3276215,13.0875679 38.0986749,18.671025 C47.8697214,24.2544821 28.3276215,42.4007212 28.3276215,42.4007212 L28.3276215,42.4007212 Z" id="path3695" sketch:type="MSShapeGroup"></path>
            </g>
        </g>
    </g>
</svg>