<?xml version="1.0" encoding="UTF-8" standalone="no"?>
<svg width="53px" height="64px" viewBox="0 0 53 64" version="1.1" xmlns="http://www.w3.org/2000/svg" xmlns:xlink="http://www.w3.org/1999/xlink" xmlns:sketch="http://www.bohemiancoding.com/sketch/ns">
    <!-- Generator: Sketch 3.0.4 (8053) - http://www.bohemiancoding.com/sketch -->
    <title>buisson4 2</title>
    <desc>Created with Sketch.</desc>
    <defs></defs>
    <g id="Page-1" stroke="none" stroke-width="1" fill="none" fill-rule="evenodd" sketch:type="MSPage">
        <g id="Artboard-2" sketch:type="MSArtboardGroup" transform="translate(-1053.000000, -789.000000)" stroke="#FFFFFF" stroke-opacity="0.74000001" fill="#6EBE16" fill-opacity="0.804659194">
            <g id="buisson4-2" sketch:type="MSLayerGroup" transform="translate(1054.206862, 789.948211)">
                <path d="M19.3367746,59.3352675 C19.3367746,59.3352675 -6.44833515,40.9173311 1.53277388,29.866568 C9.51387683,18.815811 19.3367746,59.3352675 19.3367746,59.3352675 L19.3367746,59.3352675 Z" id="path3639" sketch:type="MSShapeGroup"></path>
                <path d="M20.3257816,61.0487154 C20.3257816,61.0487154 -6.68719345,19.3013997 2.52177477,13.7760212 C11.730743,8.25064274 20.3257816,61.0487154 20.3257816,61.0487154 L20.3257816,61.0487154 Z" id="path3641" sketch:type="MSShapeGroup"></path>
                <path d="M20.8453811,60.2068463 C20.8453811,60.2068463 15.9339322,-7.32557918 24.5289647,0.655523777 C33.1240034,8.63663281 20.8453811,60.2068463 20.8453811,60.2068463 L20.8453811,60.2068463 Z" id="path3643" sketch:type="MSShapeGroup"></path>
                <path d="M21.2716288,58.0980154 C21.2716288,58.0980154 24.3412828,-4.52296117 31.0945266,5.29993665 C37.8477703,15.1228345 21.2716288,58.0980154 21.2716288,58.0980154 L21.2716288,58.0980154 Z" id="path3645" sketch:type="MSShapeGroup"></path>
                <path d="M21.2716288,60.9587903 C21.2716288,60.9587903 28.0248725,9.3885707 38.4616999,17.9836093 C48.8985334,26.5786419 21.2716288,60.9587903 21.2716288,60.9587903 L21.2716288,60.9587903 Z" id="path3647" sketch:type="MSShapeGroup"></path>
                <path d="M21.2716288,61.5292998 C21.2716288,61.5292998 47.6706681,17.9401893 49.512463,33.9023952 C51.3542579,49.8646071 21.2716288,61.5292998 21.2716288,61.5292998 L21.2716288,61.5292998 Z" id="path3649" sketch:type="MSShapeGroup"></path>
            </g>
        </g>
    </g>
</svg>