<?xml version="1.0" encoding="UTF-8" standalone="no"?>
<svg width="71px" height="69px" viewBox="0 0 71 69" version="1.1" xmlns="http://www.w3.org/2000/svg" xmlns:xlink="http://www.w3.org/1999/xlink" xmlns:sketch="http://www.bohemiancoding.com/sketch/ns">
    <!-- Generator: Sketch 3.0.4 (8053) - http://www.bohemiancoding.com/sketch -->
    <title>buisson7 2</title>
    <desc>Created with Sketch.</desc>
    <defs></defs>
    <g id="Page-1" stroke="none" stroke-width="1" fill="none" fill-rule="evenodd" sketch:type="MSPage">
        <g id="Artboard-2" sketch:type="MSArtboardGroup" transform="translate(-1199.000000, -788.000000)" stroke="#FFFFFF" stroke-opacity="0.74000001" fill="#6EBE16" fill-opacity="0.804659194">
            <g id="buisson7-2" sketch:type="MSLayerGroup" transform="translate(1199.940742, 788.659440)">
                <path d="M39.0476636,66.6206787 C39.0476636,66.6206787 -9.23130092,11.856475 1.57741674,1.04775016 C12.3861415,-9.7609675 39.0476636,66.6206787 39.0476636,66.6206787 L39.0476636,66.6206787 Z" id="path3651" sketch:type="MSShapeGroup"></path>
                <path d="M39.6066217,66.4281588 C39.6066217,66.4281588 -3.62827033,-3.4682553 24.4744113,0.134650584 C52.5770858,3.73755647 39.6066217,66.4281588 39.6066217,66.4281588 L39.6066217,66.4281588 Z" id="path3653" sketch:type="MSShapeGroup"></path>
                <path d="M39.8103339,66.4166222 C39.8103339,66.4166222 17.4723045,25.3434694 30.4427757,15.9759112 C43.4132398,6.60834595 39.8103339,66.4166222 39.8103339,66.4166222 L39.8103339,66.4166222 Z" id="path3655" sketch:type="MSShapeGroup"></path>
                <path d="M40.6603433,65.1312439 C41.3809302,62.2489177 47.1455825,-2.6034239 56.5131406,7.48472114 C65.8806988,17.5728662 40.6603433,65.1312439 40.6603433,65.1312439 L40.6603433,65.1312439 Z" id="path3657" sketch:type="MSShapeGroup"></path>
                <path d="M39.9470039,66.603227 C39.9470039,66.603227 55.7997941,11.8390304 65.8879392,21.9271754 C75.9760771,32.0153133 39.9470039,66.603227 39.9470039,66.603227 L39.9470039,66.603227 Z" id="path3659" sketch:type="MSShapeGroup"></path>
            </g>
        </g>
    </g>
</svg>