<?xml version="1.0" encoding="UTF-8" standalone="no"?>
<svg width="56px" height="58px" viewBox="0 0 56 58" version="1.1" xmlns="http://www.w3.org/2000/svg" xmlns:xlink="http://www.w3.org/1999/xlink" xmlns:sketch="http://www.bohemiancoding.com/sketch/ns">
    <!-- Generator: Sketch 3.0.4 (8053) - http://www.bohemiancoding.com/sketch -->
    <title>buisson5 2</title>
    <desc>Created with Sketch.</desc>
    <defs></defs>
    <g id="Page-1" stroke="none" stroke-width="1" fill="none" fill-rule="evenodd" sketch:type="MSPage">
        <g id="Artboard-2" sketch:type="MSArtboardGroup" transform="translate(-1093.000000, -803.000000)" stroke="#FFFFFF" stroke-opacity="0.74000001" fill="#6EBE16" fill-opacity="0.804659194">
            <g id="buisson5-2" sketch:type="MSLayerGroup" transform="translate(1094.018403, 803.693765)">
                <path d="M25.7099349,54.6591732 C25.7099349,54.6591732 -9.28414315,22.1208257 2.38054952,11.6839923 C14.0452422,1.24716486 25.7099349,54.6591732 25.7099349,54.6591732 L25.7099349,54.6591732 Z" id="path3627" sketch:type="MSShapeGroup"></path>
                <path d="M26.7633546,54.5670579 C26.7633546,54.5670579 4.66183454,14.6615371 20.0101109,12.8197422 C35.3583872,10.9779474 26.7633546,54.5670579 26.7633546,54.5670579 L26.7633546,54.5670579 Z" id="path3629" sketch:type="MSShapeGroup"></path>
                <path d="M27.383344,54.0404961 C27.383344,54.0404961 26.1554848,-4.89689078 38.4341071,10.4513855 C50.7127294,25.7996618 27.383344,54.0404961 27.383344,54.0404961 L27.383344,54.0404961 Z" id="path3631" sketch:type="MSShapeGroup"></path>
                <path d="M26.7414761,53.8436897 C26.7414761,53.8436897 35.3365087,-8.77728692 45.7733422,1.04561089 C56.2101696,10.8685087 26.7414761,53.8436897 26.7414761,53.8436897 L26.7414761,53.8436897 Z" id="path3635" sketch:type="MSShapeGroup"></path>
                <path d="M27.349237,55.6022087 C27.349237,55.6022087 45.7671734,7.1016492 52.5204172,20.6081307 C59.2736549,34.1146182 27.349237,55.6022087 27.349237,55.6022087 L27.349237,55.6022087 Z" id="path3637" sketch:type="MSShapeGroup"></path>
            </g>
        </g>
    </g>
</svg>