<?xml version="1.0" encoding="UTF-8" standalone="no"?>
<svg width="52px" height="61px" viewBox="0 0 52 61" version="1.1" xmlns="http://www.w3.org/2000/svg" xmlns:xlink="http://www.w3.org/1999/xlink" xmlns:sketch="http://www.bohemiancoding.com/sketch/ns">
    <!-- Generator: Sketch 3.0.4 (8053) - http://www.bohemiancoding.com/sketch -->
    <title>buisson2 2</title>
    <desc>Created with Sketch.</desc>
    <defs></defs>
    <g id="Page-1" stroke="none" stroke-width="1" fill="none" fill-rule="evenodd" sketch:type="MSPage">
        <g id="Artboard-2" sketch:type="MSArtboardGroup" transform="translate(-156.000000, -795.000000)" stroke="#FFFFFF" stroke-opacity="0.74000001" fill="#6EBE16" fill-opacity="0.804659194">
            <g id="buisson2-2" sketch:type="MSLayerGroup" transform="translate(156.889701, 796.000000)">
                <path d="M24.6796597,59.3182101 C24.6796597,59.3182101 10.5497067,18.390071 26.1413782,2.31115559 C41.7330503,-13.767755 24.6796597,59.3182101 24.6796597,59.3182101 L24.6796597,59.3182101 Z" id="path3603" sketch:type="MSShapeGroup"></path>
                <path d="M25.0818239,57.9360158 C25.0818239,57.9360158 25.5690634,4.82688413 39.2117769,5.80136122 C52.8544899,6.77584313 25.0818239,57.9360158 25.0818239,57.9360158 L25.0818239,57.9360158 Z" id="path3605" sketch:type="MSShapeGroup"></path>
                <path d="M24.5994811,57.6004345 C24.5994811,57.6004345 38.7294356,6.92750038 47.986992,10.8254184 C57.2445437,14.7233364 24.5994811,57.6004345 24.5994811,57.6004345 L24.5994811,57.6004345 Z" id="path3607" sketch:type="MSShapeGroup"></path>
                <path d="M23.5695393,56.9593435 C23.5695393,56.9593435 -6.15208676,27.2377151 1.15650975,20.9035995 C8.46510626,14.569484 23.5695393,56.9593435 23.5695393,56.9593435 L23.5695393,56.9593435 Z" id="path3609" sketch:type="MSShapeGroup"></path>
                <path d="M23.3635897,55.9780224 C23.3635897,55.9780224 -6.84527636,7.74128583 1.43779965,6.76680874 C9.72087566,5.79232683 23.3635897,55.9780224 23.3635897,55.9780224 L23.3635897,55.9780224 Z" id="path3611" sketch:type="MSShapeGroup"></path>
            </g>
        </g>
    </g>
</svg>