<?xml version="1.0" encoding="UTF-8" standalone="no"?>
<svg width="54px" height="49px" viewBox="0 0 54 49" version="1.1" xmlns="http://www.w3.org/2000/svg" xmlns:xlink="http://www.w3.org/1999/xlink" xmlns:sketch="http://www.bohemiancoding.com/sketch/ns">
    <!-- Generator: Sketch 3.0.4 (8053) - http://www.bohemiancoding.com/sketch -->
    <title>buisson3 2</title>
    <desc>Created with Sketch.</desc>
    <defs></defs>
    <g id="Page-1" stroke="none" stroke-width="1" fill="none" fill-rule="evenodd" sketch:type="MSPage">
        <g id="Artboard-2" sketch:type="MSArtboardGroup" transform="translate(-202.000000, -795.000000)" stroke="#FFFFFF" stroke-opacity="0.74000001" fill="#6EBE16" fill-opacity="0.804659194">
            <g id="buisson3-2" sketch:type="MSLayerGroup" transform="translate(202.534098, 796.000000)">
                <path d="M29.8120619,47.446343 C29.8120619,47.446343 2.52663585,8.95440147 14.7076284,5.05648346 C26.8886258,1.15856545 29.8120619,47.446343 29.8120619,47.446343 L29.8120619,47.446343 Z" id="path3613" sketch:type="MSShapeGroup"></path>
                <path d="M30.2114951,47.2200385 C30.2114951,47.2200385 11.6963869,6.7791379 19.9794615,5.8046608 C28.2625361,4.83017889 30.2114951,47.2200385 30.2114951,47.2200385 L30.2114951,47.2200385 Z" id="path3615" sketch:type="MSShapeGroup"></path>
                <path d="M29.7761199,46.370765 C29.7761199,46.370765 18.0823658,-8.20009199 28.3143994,1.05746449 C38.5464378,10.315021 29.7761199,46.370765 29.7761199,46.370765 L29.7761199,46.370765 Z" id="path3617" sketch:type="MSShapeGroup"></path>
                <path d="M29.8906582,46.7143437 C29.8906582,46.7143437 26.9672221,-7.36926985 35.7375352,5.29896127 C44.5078532,17.9671972 29.8906582,46.7143437 29.8906582,46.7143437 L29.8906582,46.7143437 Z" id="path3619" sketch:type="MSShapeGroup"></path>
                <path d="M29.9052515,45.0347105 C29.9052515,45.0347105 36.7266104,0.695891945 45.4969236,9.95344843 C54.2672415,19.2110001 29.9052515,45.0347105 29.9052515,45.0347105 L29.9052515,45.0347105 Z" id="path3621" sketch:type="MSShapeGroup"></path>
                <path d="M31.3522798,45.7466879 C31.3522798,45.7466879 48.8929109,7.25474638 51.3291084,19.9229823 C53.7653108,32.5912183 31.3522798,45.7466879 31.3522798,45.7466879 L31.3522798,45.7466879 Z" id="path3623" sketch:type="MSShapeGroup"></path>
                <path d="M29.7714521,46.2358492 C29.7714521,46.2358492 -1.41189194,38.9272517 0.0498285154,32.5931361 C1.51154415,26.2590158 29.7714521,46.2358492 29.7714521,46.2358492 L29.7714521,46.2358492 Z" id="path3625" sketch:type="MSShapeGroup"></path>
            </g>
        </g>
    </g>
</svg>