<?xml version="1.0" encoding="UTF-8" standalone="no"?>
<svg width="49px" height="49px" viewBox="0 0 49 49" version="1.1" xmlns="http://www.w3.org/2000/svg" xmlns:xlink="http://www.w3.org/1999/xlink" xmlns:sketch="http://www.bohemiancoding.com/sketch/ns">
    <!-- Generator: Sketch 3.0.4 (8053) - http://www.bohemiancoding.com/sketch -->
    <title>buisson6 2</title>
    <desc>Created with Sketch.</desc>
    <defs></defs>
    <g id="Page-1" stroke="none" stroke-width="1" fill="none" fill-rule="evenodd" sketch:type="MSPage">
        <g id="Artboard-2" sketch:type="MSArtboardGroup" transform="translate(-1161.000000, -811.000000)" stroke="#FFFFFF" stroke-opacity="0.74000001" fill="#6EBD16" fill-opacity="0.8">
            <g id="buisson6-2" sketch:type="MSLayerGroup" transform="translate(1162.081301, 811.816471)">
                <path d="M7.2547043,1.0780016 C19.5045886,-8.28956369 24.5486611,46.47464 24.5486611,46.47464 C24.5486611,46.47464 -4.99517999,10.4455598 7.2547043,1.0780016 Z" id="path3687" sketch:type="MSShapeGroup"></path>
                <path d="M0.406553554,33.3726068 C1.84771306,20.4021428 24.5931089,44.6316934 24.5931089,44.6316934 C24.5931089,44.6316934 -1.03461308,46.343078 0.406553554,33.3726068 Z" id="path3689" sketch:type="MSShapeGroup"></path>
                <path d="M24.6130671,4.53806667 C39.0246977,8.14097256 24.613067,41.2371024 24.613067,41.2371024 C24.613067,41.2371024 10.2014292,0.93515365 24.6130671,4.53806667 Z" id="path3691" sketch:type="MSShapeGroup"></path>
                <path d="M43.5973591,16.99248 C53.685497,22.7571323 24.9668775,43.7767155 24.9668775,43.7767155 C24.9668775,43.7767155 33.5092141,11.2278277 43.5973591,16.99248 Z" id="path3695" sketch:type="MSShapeGroup"></path>
            </g>
        </g>
    </g>
</svg>