<?xml version="1.0" encoding="UTF-8" standalone="no"?>
<svg width="49px" height="50px" viewBox="0 0 49 50" version="1.1" xmlns="http://www.w3.org/2000/svg" xmlns:xlink="http://www.w3.org/1999/xlink" xmlns:sketch="http://www.bohemiancoding.com/sketch/ns">
    <!-- Generator: Sketch 3.0.4 (8053) - http://www.bohemiancoding.com/sketch -->
    <title>bush</title>
    <desc>Created with Sketch.</desc>
    <defs></defs>
    <g id="Page-1" stroke="none" stroke-width="1" fill="none" fill-rule="evenodd" sketch:type="MSPage">
        <g id="Desktop-HD-6" sketch:type="MSArtboardGroup" transform="translate(-1015.000000, -667.000000)" stroke="#FFFFFF" stroke-opacity="0.74000001" fill="#6EBD16" fill-opacity="0.800000012">
            <g id="bush" sketch:type="MSLayerGroup" transform="translate(1016.000000, 668.000000)">
                <path d="M24.6198013,47.7526701 C24.6198013,47.7526701 0.257350657,40.8072925 0.257350213,30.6792542 C0.257349769,20.5512159 24.6198013,47.7526701 24.6198013,47.7526701 Z" id="Path-1297" sketch:type="MSShapeGroup"></path>
                <path d="M25.8302627,47.711081 C25.8302627,47.711081 -7.76934373,20.1309458 2.23830423,14.3566308 C12.2459522,8.58231588 25.8302627,47.711081 25.8302627,47.711081 Z" id="Path-1298" sketch:type="MSShapeGroup"></path>
                <path d="M27.2311584,47.9628044 C27.2311584,47.9628044 6.77718503,8.37943865 20.4096509,0.554122708 C34.0421168,-7.27119323 27.2311584,47.9628044 27.2311584,47.9628044 Z" id="Path-1299" sketch:type="MSShapeGroup"></path>
                <path d="M28.3912751,47.0828668 C28.3912751,47.0828668 19.206653,7.78555613 30.0832944,7.78555464 C40.9599358,7.78555315 28.3912751,47.0828668 28.3912751,47.0828668 Z" id="Path-1300" sketch:type="MSShapeGroup"></path>
                <path d="M28.5357425,48.0043935 C28.5357425,48.0043935 30.8559756,12.9316564 37.6722089,18.708163 C44.4884421,24.4846696 28.5357425,48.0043935 28.5357425,48.0043935 Z" id="Path-1301" sketch:type="MSShapeGroup"></path>
                <path d="M28.9713335,47.5863137 C28.9713335,47.5863137 42.9408889,26.1175875 46.9049863,34.4441611 C50.8690838,42.7707347 28.9713335,47.5863137 28.9713335,47.5863137 Z" id="Path-1302" sketch:type="MSShapeGroup"></path>
            </g>
        </g>
    </g>
</svg>