<?xml version="1.0" encoding="UTF-8" standalone="no"?>
<svg width="94px" height="116px" viewBox="0 0 94 116" version="1.1" xmlns="http://www.w3.org/2000/svg" xmlns:xlink="http://www.w3.org/1999/xlink" xmlns:sketch="http://www.bohemiancoding.com/sketch/ns">
    <!-- Generator: Sketch 3.1.1 (8761) - http://www.bohemiancoding.com/sketch -->
    <title>butterflies</title>
    <desc>Created with Sketch.</desc>
    <defs></defs>
    <g id="Page-1" stroke="none" stroke-width="1" fill="none" fill-rule="evenodd" sketch:type="MSPage">
        <g id="fond" sketch:type="MSArtboardGroup" transform="translate(-1069.000000, -528.000000)" stroke="#FFFFFF" stroke-opacity="0.74000001">
            <g id="butterflies" sketch:type="MSLayerGroup" transform="translate(1070.000000, 528.000000)">
                <path d="M16.4200756,16.6700174 C16.4200756,16.6700174 0.240375294,13.2531423 0.240375295,16.6700172 C0.240375297,20.0868922 9.72139877,24.4791198 13.0707371,22.6736969 C13.0707368,27.262251 12.6725871,28.0436329 15.4549329,29.0684594 C18.2372788,30.0932859 21.7562433,33.1685527 21.7562433,33.1685527 C21.7562433,33.1685527 21.4397643,23.7346481 19.737216,21.488667 C18.0346677,19.2426859 16.4200756,16.6700174 16.4200756,16.6700174 Z M16.98531,16.2241803 C16.98531,16.2241803 20.1619725,-0.00439183105 23.3072225,1.33068758 C26.4524724,2.66576699 26.7910083,13.1092752 23.820417,15.4869224 C28.0442034,17.2798131 28.9190388,17.2186245 28.7752474,20.180219 C28.6314559,23.1418135 30.087285,27.5826399 30.087285,27.5826399 C30.087285,27.5826399 21.5269882,23.6051992 20.1247904,21.1604205 C18.7225925,18.7156418 16.98531,16.2241803 16.98531,16.2241803 Z M16.64993,16.2574496 L10.6284563,12.5271001 L16.64993,16.2574496 Z M16.6052221,16.0290108 L15.6755438,8.87269279 L16.6052221,16.0290108 Z" id="butterfly1" fill="#F8E81C" sketch:type="MSShapeGroup"></path>
                <path d="M42.7525266,42.3957854 C42.7525266,42.3957854 26.5728263,38.9789104 26.5728263,42.3957853 C32.0350408,53.6715192 36.0538498,50.2048879 39.4031881,48.399465 C39.4031878,52.9880191 39.7228992,52.9260573 41.7873839,54.7942275 C44.253765,57.0260772 48.0886943,58.8943208 48.0886943,58.8943208 C48.0886943,58.8943208 47.7722153,49.4604161 46.069667,47.2144351 C44.3671187,44.968454 42.7525266,42.3957854 42.7525266,42.3957854 Z M42.4755863,41.4878609 L43.1588404,41.911142 C43.5296333,39.71371 45.9727593,25.9732231 48.908445,27.1001272 C57.4777668,36.2404054 52.8011754,38.7499573 49.9153724,41.2298282 C54.1991568,42.8742188 54.0267362,43.1504899 55.0309781,45.7473447 C56.2307173,48.8497332 56.6005573,53.0994669 56.6005573,53.0994669 C56.6005573,53.0994669 47.9066645,49.4231991 46.4199993,47.0288457 C44.9333341,44.6344923 43.1101591,42.2051788 43.1101591,42.2051788 C43.1101591,42.2051788 43.1267282,42.1014483 43.1588404,41.911142 L43.1588404,41.911142 L42.4755863,41.4878609 L41.6771254,35.3416057 L42.4755863,41.4878609 L37.3731828,38.3268824 L42.4755863,41.4878609 L42.6068037,42.4979238 L42.4755863,41.4878609 Z" id="butterfly2" fill="#FF9A00" sketch:type="MSShapeGroup" transform="translate(45.572826, 43.012839) rotate(42.000000) translate(-45.572826, -43.012839) "></path>
                <path d="M73.6975233,102.34626 C73.6975233,102.34626 57.517823,98.9293852 57.517823,102.34626 C68.2757566,118.844796 69.3830423,111.641646 72.7323806,109.836223 C72.7323804,114.424777 70.6678959,112.876532 72.7323806,114.744702 C75.1987617,116.976552 79.033691,118.844796 79.033691,118.844796 C79.033691,118.844796 78.717212,109.410891 77.0146637,107.16491 C75.3121154,104.918929 73.6975233,102.34626 73.6975233,102.34626 Z M73.420583,101.438336 L73.6591729,101.586144 C73.9819775,99.1794113 75.9348286,85.636604 78.8794255,86.65051 C90.9766572,102.193734 83.8054476,100.895577 81.0079487,103.47465 C85.346512,104.968537 84.5547483,102.512469 85.6490075,105.072695 C86.9562876,108.131323 87.4742159,112.365561 87.4742159,112.365561 C87.4742159,112.365561 78.6573193,108.994945 77.087998,106.653934 C75.5186767,104.312923 73.6118305,101.948717 73.6118305,101.948717 C73.6118305,101.948717 73.6278065,101.820002 73.6591729,101.586144 L73.6591729,101.586144 L73.420583,101.438336 L72.6221221,95.2920805 L73.420583,101.438336 L68.3181795,98.2773573 L73.420583,101.438336 L73.5518004,102.448399 L73.420583,101.438336 Z" id="butterfly2-3" fill="#50C3F3" sketch:type="MSShapeGroup" transform="translate(76.017823, 102.463313) rotate(-276.000000) translate(-76.017823, -102.463313) "></path>
                <path d="M20.2006972,60.6813877 C20.2006972,60.6813877 7.42724954,57.9051767 7.42724955,60.6813876 C11.7395241,69.8429213 14.9122681,67.0262834 17.5564825,65.5593773 C17.5564823,69.2875775 17.808886,69.2372335 19.4387424,70.7551218 C21.3858854,72.5684997 24.4134612,74.0864477 24.4134612,74.0864477 C24.4134612,74.0864477 24.1636093,66.4214001 22.8194922,64.5965405 C21.4753751,62.7716809 20.2006972,60.6813877 20.2006972,60.6813877 Z M19.9820601,59.9436989 L20.3581691,60.1834973 C20.6379687,58.4647275 22.5115432,47.5682303 24.8996217,48.4849278 C31.9072692,55.793983 28.1407015,57.7466019 25.8236249,59.6894966 C29.3041998,61.0255639 29.1667462,61.2431614 29.9997287,63.3087259 C30.9948691,65.776397 31.3270095,69.1468664 31.3270095,69.1468664 C31.3270095,69.1468664 24.2606101,66.1667022 23.0386454,64.2578896 C21.8166806,62.349077 20.3220275,60.4099685 20.3220275,60.4099685 C20.3220275,60.4099685 20.3342981,60.3301332 20.3581691,60.1834973 L20.3581691,60.1834973 L19.9820601,59.9436989 L19.3516962,54.9498666 L19.9820601,59.9436989 L15.9538468,57.375404 L19.9820601,59.9436989 L20.0856528,60.764375 L19.9820601,59.9436989 Z" id="butterfly2-2" fill="#25E3B8" sketch:type="MSShapeGroup"></path>
            </g>
        </g>
    </g>
</svg>