<?xml version="1.0" encoding="UTF-8" standalone="no"?>
<svg width="114px" height="60px" viewBox="0 0 114 60" version="1.1" xmlns="http://www.w3.org/2000/svg" xmlns:xlink="http://www.w3.org/1999/xlink" xmlns:sketch="http://www.bohemiancoding.com/sketch/ns">
    <!-- Generator: Sketch 3.0.4 (8053) - http://www.bohemiancoding.com/sketch -->
    <title>carots</title>
    <desc>Created with Sketch.</desc>
    <defs></defs>
    <g id="Page-1" stroke="none" stroke-width="1" fill="none" fill-rule="evenodd" sketch:type="MSPage">
        <g id="Desktop-HD-6" sketch:type="MSArtboardGroup" transform="translate(-524.000000, -652.000000)" stroke="#FFFFFF" stroke-opacity="0.74000001">
            <g id="carots" sketch:type="MSLayerGroup" transform="translate(525.000000, 653.000000)">
                <g id="carot2" transform="translate(23.412429, 3.152174)" sketch:type="MSShapeGroup">
                    <path d="M11.4785502,39.2472083 C11.4785502,39.2472083 -4.9027723,19.6793522 1.21075891,14.2002671 C7.32429012,8.72118207 11.8137456,33.4794094 11.8137456,33.4794094 C11.8137456,33.4794094 -1.70435924,2.74869779 8.23039889,0.318336679 C18.165157,-2.11202443 16.9714293,21.821001 16.9714293,21.821001 C16.9714293,21.821001 16.3983526,0.318336752 22.1766892,4.47882212 C27.9550257,8.6393075 15.6328104,40.8114301 15.6328104,40.8114301 L11.4785502,39.2472083 Z" id="Path-1156" fill-opacity="0.804659194" fill="#6EBE16"></path>
                    <path d="M13.5208572,55.1264601 C13.5208572,55.1264601 -3.62384571,42.3952798 13.5208572,38.3596564 C30.6655602,34.3240329 19.9674212,54.9627124 19.9674212,54.9627124 L13.5208572,55.1264601 Z" id="Path-1155" fill="#F6A623"></path>
                </g>
                <g id="carot1" transform="translate(0.000000, 1.260870)" sketch:type="MSShapeGroup">
                    <path d="M17.2620772,43.2794934 C17.2620772,43.2794934 0.0192543766,28.1902033 0.0192547949,21.7631038 C0.0192552131,15.3360044 10.9139856,20.5831942 10.9139847,24.1253165 C10.9139838,27.6674387 -1.42915153,5.83512349 7.61659773,0.933464958 C16.662347,-3.96819357 17.2620768,18.9758813 17.2620768,18.9758813 C17.2620768,18.9758813 28.4578027,12.7556232 28.457803,24.1253175 C28.4578033,35.4950118 22.0101336,40.6035105 22.0101336,40.6035105 L17.2620772,43.2794934 Z" id="Path-1154" fill-opacity="0.804659194" fill="#6EBE16"></path>
                    <path d="M16.0490057,56.4779805 C16.0490057,56.4779805 6.05500329,47.7665886 11.0520046,43.1325394 C16.0490058,38.4984902 26.9958184,42.5643996 26.9958193,48.2891069 C26.9958202,54.0138141 23.3974037,56.9735329 23.3974037,56.9735329 L16.0490057,56.4779805 Z" id="Path-1153" fill="#F6A623"></path>
                </g>
                <g id="carot3" transform="translate(38.598870, 0.000000)" sketch:type="MSShapeGroup">
                    <path d="M19.6831183,44.6733451 C19.6831183,44.6733451 -6.83145419,34.9071147 1.84014301,26.8961727 C10.5117402,18.8852307 17.7238473,37.7528483 17.7238473,37.7528483 C17.7238473,37.7528483 -0.804887919,15.6727582 8.45947952,10.4823852 C17.723847,5.29201225 19.3479229,21.9339544 19.3479229,21.9339544 C19.3479229,21.9339544 15.4812809,-3.81322389 23.1215741,0.635974832 C30.7618674,5.08517355 22.7863787,43.0660317 22.7863787,43.0660317 L19.6831183,44.6733451 Z" id="Path-1158" fill-opacity="0.804659194" fill="#6EBE16"></path>
                    <path d="M19.395499,58.2760664 C19.395499,58.2760664 4.49552446,48.9317742 19.395499,43.4698743 C34.2954736,38.0079744 26.6076061,57.8236056 26.6076061,57.8236056 L19.395499,58.2760664 Z" id="Path-1157" fill="#F6A623"></path>
                </g>
                <g id="carot4" transform="translate(75.932203, 7.565217)" sketch:type="MSShapeGroup">
                    <path d="M12.6276591,37.9936881 C12.6276591,37.9936881 -6.66661938,16.4500858 2.98051985,8.82935307 C12.6276591,1.20862035 10.9084312,25.4712948 10.9084312,25.4712948 C10.9084312,25.4712948 10.1037123,0.0537665906 23.0857549,0.0537667342 C36.0677975,0.0537668777 25.7608302,10.9300643 25.7608302,10.9300643 C25.7608302,10.9300643 35.885892,3.82319673 35.8858932,11.4234621 C35.8858945,19.0237274 10.9084316,34.5334397 10.9084313,37.9936881" id="Path-1160" fill-opacity="0.804659194" fill="#6EBE16"></path>
                    <path d="M5.68978158,50.5182355 C5.68978158,50.5182355 -2.94270697,30.4548282 12.3897787,36.25 C27.7222644,42.0451718 14.729659,50.518236 14.729659,50.518236 L5.68978158,50.5182355 Z" id="Path-1159" fill="#F6A623"></path>
                </g>
            </g>
        </g>
    </g>
</svg>