<?xml version="1.0" encoding="UTF-8" standalone="no"?>
<svg width="49px" height="131px" viewBox="0 0 49 131" version="1.1" xmlns="http://www.w3.org/2000/svg" xmlns:xlink="http://www.w3.org/1999/xlink" xmlns:sketch="http://www.bohemiancoding.com/sketch/ns">
    <!-- Generator: Sketch 3.1 (8751) - http://www.bohemiancoding.com/sketch -->
    <title>castle</title>
    <desc>Created with Sketch.</desc>
    <defs></defs>
    <g id="Page-1" stroke="none" stroke-width="1" fill="none" fill-rule="evenodd" sketch:type="MSPage">
        <g id="castle" sketch:type="MSLayerGroup" transform="translate(1.000000, 1.000000)" stroke-opacity="0.74000001" stroke="#FFFFFF">
            <path d="M22.9056323,22.7971063 L22.9056323,7.97849702 L22.9056323,-0.216496907 C22.9056323,-0.216496907 28.9371771,1.64784335 30.2788697,1.64784331 C31.6205622,1.64784328 29.5417483,3.83999957 28.0669996,3.83999955 C26.592251,3.83999953 32.0000004,6.29539808 32,6.29539798 C31.9999996,6.29539789 22.9056323,6.29539789 22.9056323,6.29539789" id="Path-1311" fill="#F8E81C" sketch:type="MSShapeGroup"></path>
            <path d="M22.9658681,22.4091029 C22.9658681,22.4091029 17.3855092,37.6562899 15.3352007,39.2487705 C13.2848923,40.8412511 18.0317089,41.6759736 18.0317089,41.6759736 L18.0317088,45.4227061 L27.8465272,45.4227061 L27.8465271,41.6759741 C27.8465271,41.6759741 32.6834787,40.7047746 30.5808014,39.2487714 C28.4781241,37.7927682 22.9658681,22.4091029 22.9658681,22.4091029 Z" id="Path-1310" fill="#D74A4A" sketch:type="MSShapeGroup"></path>
            <path d="M19.3065754,112.174379 L17.1054169,44.7554045 L28.5828608,44.603853 L28.5828606,105.773855 L19.3065754,112.174379 Z" id="Path-1309" fill="#E59513" sketch:type="MSShapeGroup"></path>
            <path d="M40.363468,68.5486086 L45.306985,43.0831564 L46.6098912,70.2414206 L40.363468,68.5486086 Z" id="Path-1316" fill="#BBAE05" sketch:type="MSShapeGroup"></path>
            <path d="M36.7567469,123.795242 L40.3260551,68.6929171 L46.6366748,70.3459094 L42.7612945,123.795242 L36.7567469,123.795242 Z" id="Path-1315" fill="#FF9A00" sketch:type="MSShapeGroup"></path>
            <path d="M13.8461357,128.105504 L9.50062852,87.2161995 L15.8720835,87.1138994 L17.0891915,94.0362007 L21.3175922,93.8342238 L21.3752999,86.5132147 L28.2110397,86.4135378 L27.8621704,93.8840622 L32.0931942,94.3876931 L33.7719638,85.9623685 L39.3905956,86.1617224 L36.9474745,123.261784 L13.8461357,128.105504 Z" id="Path-1308" fill="#E8DC46" sketch:type="MSShapeGroup"></path>
            <path d="M7.66652565,128.673817 C7.66652565,128.673817 -0.268114335,69.8325019 -0.268113805,69.8324963 C-0.268113274,69.8324907 7.66652542,68.4815522 7.66652542,68.4815522 L14.4396193,127.56527 L7.66652565,128.673817 Z" id="Path-1312" fill="#CDBF0D" sketch:type="MSShapeGroup"></path>
            <path d="M-0.30479844,69.6927687 L0.770591192,45.2926985 L7.57764272,68.2725497 L-0.30479844,69.6927687 Z" id="Path-1313" fill="#07CDDA" sketch:type="MSShapeGroup"></path>
            <path d="M21.1354355,126.020196 C21.1354355,126.020196 19.6571352,105.349355 23.5373729,101.720166 C27.4176107,98.0909763 32.2276796,123.631735 32.2276796,123.631735 L21.1354355,126.020196 Z" id="Path-1314" fill="#F1EB98" sketch:type="MSShapeGroup"></path>
        </g>
    </g>
</svg>