<?xml version="1.0" encoding="UTF-8" standalone="no"?>
<svg width="283px" height="137px" viewBox="0 0 283 137" version="1.1" xmlns="http://www.w3.org/2000/svg" xmlns:xlink="http://www.w3.org/1999/xlink" xmlns:sketch="http://www.bohemiancoding.com/sketch/ns">
    <!-- Generator: Sketch 3.0.4 (8053) - http://www.bohemiancoding.com/sketch -->
    <title>chameleon</title>
    <desc>Created with Sketch.</desc>
    <defs></defs>
    <g id="Page-1" stroke="none" stroke-width="1" fill="none" fill-rule="evenodd" sketch:type="MSPage">
        <g id="Artboard-2" sketch:type="MSArtboardGroup" transform="translate(-1046.000000, -709.000000)">
            <g id="chameleon" sketch:type="MSLayerGroup" transform="translate(1047.000000, 710.000000)">
                <path d="M239.453354,135.278974 C239.453354,135.278974 290.520321,96.208638 279.127598,61.9572937 C267.734876,27.7059494 251.706127,44.4663675 251.706127,44.4663675 C251.706127,44.4663675 225.248825,-6.16583048 193.364075,4.91295608 C161.479325,15.9917426 161.212326,45.5739102 161.212326,45.5739102 C161.212326,45.5739102 158.155746,26.1599502 149.303879,22.8768689 C140.452011,19.5937875 129.835921,26.1813357 126.423622,28.5128911 C119.895576,13.1997121 91.1476674,-3.38772302 74.7831469,19.5937874 C58.4186263,42.5752978 75.9730797,43.6239282 75.9730797,43.6239282 C75.9730797,43.6239282 65.499316,27.9180309 46.3131208,35.7709795 C27.1269257,43.6239281 36.9939441,58.8349661 36.9939441,58.8349661 C36.9939441,58.8349661 12.0407002,33.7385234 1.17225389,56.7377044 C-9.69619238,79.7368855 67.1184504,135.278975 67.1184504,135.278975 L239.453354,135.278974 Z" id="Path-1140" stroke-opacity="0.74000001" stroke="#FFFFFF" fill="#46AE25" sketch:type="MSShapeGroup"></path>
                <g id="Shape-+-Oval-59-+-path4705" transform="translate(69.790850, 0.000000)" sketch:type="MSShapeGroup">
                    <path d="M13.4435604,0.0304689452 C9.13312091,-0.40259096 4.77026172,0.822277522 0.975961817,2.80795975 C-1.16270047,4.83657659 1.90092568,7.10305185 3.5488725,8.16999594 C5.85610027,9.83104811 8.24997121,11.7043437 11.0836437,12.2602028 C12.3311788,12.1270951 15.5309393,13.1279887 13.0372365,14.2828151 C10.2508519,15.975591 4.78329611,17.4312711 4.78329611,17.4312711 C4.78329611,17.4312711 9.08005747,18.2419619 9.93845987,18.8286424 C12.8558264,17.6130082 14.9188843,13.6498623 19.6144356,13.3568579 C22.8732064,13.1535092 23.216014,11.7600515 28.2135528,13.3568579 C30.0489433,13.9432992 32.5241212,14.8249993 32.4006472,16.4221528 C29.5108012,17.0208771 20.6614688,16.6467522 17.8461065,17.6097092 C18.2271651,17.5300876 20.849042,17.2051104 21.8398455,17.3091322 C22.8306491,17.4131194 22.1903827,17.9461055 23.3729934,18.1098262 C24.555604,18.273547 24.6307576,17.3317276 25.587234,17.431272 C26.5437105,17.5308164 26.6721471,18.9171496 26.9845514,18.8286425 C28.1145905,16.6810097 36.926719,18.2544922 37.726572,16.4221528 C38.1029892,15.5598163 31.7852078,12.9440678 34.2164103,13.3568579 C36.5055283,13.6552829 43.2109931,16.7403263 45.4286009,16.422152 C51.0248178,21.7380705 50.8138052,21.8953263 44.7425062,29.0272539 C36.1990039,37.9275425 21.2751873,34.5387928 20.2161083,27.981174 C19.6754338,26.4123899 20.8361158,23.2437224 23.3037106,23.9770469 C25.001708,24.1211226 23.9518024,25.5762483 25.6584093,24.8095688 C28.769451,23.6766782 25.5157756,19.9674335 23.2160142,20.4572421 C20.1770144,20.1808918 16.7484537,22.7841451 17.2737035,26.061753 C17.8097073,31.9532697 23.4566217,36.1136228 29.0367502,36.6082559 C36.35007,37.5174491 43.7919162,35.107037 49.8756172,31.1009639 C52.9507847,28.9261542 55.079428,24.514198 55.1033948,20.457242 C55.1879797,17.6143254 51.6887669,19.1732303 51.0248169,16.4221528 C50.0296551,14.1404057 47.7264067,2.87883489 37.7265735,2.82243326 C32.8770014,2.87883483 21.6044354,5.72952619 16.7422894,5.55060307 C16.0891624,5.50950802 15.4402245,5.40142526 14.8091305,5.22729193 C17.185268,3.99284386 16.3844482,-0.53562924 13.4435604,0.0304689452 Z" id="Shape" stroke-opacity="0.74000001" stroke="#FFFFFF" stroke-linecap="square" fill="#417505"></path>
                    <ellipse id="Oval-59" fill="#FFFFFF" cx="7.80555556" cy="4.13265306" rx="2.29575163" ry="2.29591837"></ellipse>
                    <path d="M6.86199926,3.25661793 C6.98616051,3.29028533 7.09870442,3.36577666 7.17724928,3.46813249 C7.2557976,3.57045361 7.29989102,3.69901447 7.30076474,3.8282695 C7.30180077,3.95752454 7.25928211,4.08667545 7.18212553,4.19007254 C7.10496549,4.29346963 6.99345071,4.37048813 6.86975567,4.40585625 C6.74605718,4.44118967 6.61090365,4.43466444 6.49115934,4.38746067 C6.37141848,4.34036102 6.26778788,4.25289521 6.20087763,4.14252168 C6.13396738,4.03214815 6.10416426,3.89949167 6.11739436,3.7709308 C6.12837627,3.66409756 6.16877452,3.56045751 6.23290131,3.47451888 C6.29702464,3.38858025 6.38471074,3.3206207 6.48368611,3.28008099 C6.59806033,3.23325901 6.72715654,3.22354059 6.84718749,3.25266115 C6.96721843,3.28181642 7.07758668,3.34988009 7.15796186,3.4441488 C7.23833359,3.53838281 7.28831166,3.65840534 7.29868232,3.78210699 C7.30904262,3.90577393 7.27975751,4.03252995 7.21622817,4.13894669 C7.15268502,4.24539814 7.05519808,4.33098968 6.94172865,4.37999831 C6.82825577,4.42900693 6.69936677,4.44115496 6.57880745,4.41435988 C6.45824467,4.38763421 6.34661247,4.32154893 6.26447259,4.22887682 C6.18233615,4.13617 6.13009953,4.0171193 6.11739436,3.89366061 C6.10430585,3.76645339 6.13331468,3.63518525 6.19879521,3.5255406 C6.26426883,3.41586125 6.36583428,3.32836073 6.48368611,3.2801157 C6.60278118,3.23145416 6.73783455,3.22305466 6.86199926,3.25661793 Z" id="path4705" stroke="#417505" fill="#7ED321"></path>
                </g>
            </g>
        </g>
    </g>
</svg>