<?xml version="1.0" encoding="UTF-8" standalone="no"?>
<svg width="39px" height="118px" viewBox="0 0 39 118" version="1.1" xmlns="http://www.w3.org/2000/svg" xmlns:xlink="http://www.w3.org/1999/xlink" xmlns:sketch="http://www.bohemiancoding.com/sketch/ns">
    <!-- Generator: Sketch 3.0.4 (8053) - http://www.bohemiancoding.com/sketch -->
    <title>dwarf</title>
    <desc>Created with Sketch.</desc>
    <defs></defs>
    <g id="Page-1" stroke="none" stroke-width="1" fill="none" fill-rule="evenodd" sketch:type="MSPage">
        <g id="dwarf" sketch:type="MSLayerGroup" transform="translate(1.000000, 1.000000)">
            <path d="M9.6002628,63.1344315 C9.7995874,56.4285065 11.4614966,48.5752687 13.3860671,41.8392589 C16.2792962,31.7129604 16.6986492,20.7383626 16.6986492,10.1331177 C16.6986492,6.65921288 12.7515155,-0.277857452 16.225427,-0.277857452 C17.115743,-0.277857452 19.8069908,24.8678606 20.9576824,27.1692505 C21.9932221,29.2403299 29.6744375,64.3554228 29.0025266,65.0273337 C28.1304429,65.8994173 12.514063,62.5516688 9.6002628,63.1344315 L9.6002628,63.1344315 L9.6002628,63.1344315 Z" id="path3338-2" stroke-opacity="0.74000001" stroke="#FFFFFF" fill="#F52C50" sketch:type="MSShapeGroup"></path>
            <path d="M8.76805114,70.7847438 C-27.7689942,130.459711 65.7710363,131.528409 28.2224871,69.1986365 L8.76805114,70.7847438 Z" id="path2999-2" stroke-opacity="0.74000001" stroke="#FFFFFF" fill="#4990E2" sketch:type="MSShapeGroup"></path>
            <path d="M1.68425743,97.2923906 C1.68425743,97.2923906 13.9313593,87.4984625 36.0689544,96.2431734" id="Path-100-2" stroke="#2C2B2C" stroke-width="3" stroke-linecap="round" stroke-linejoin="round" sketch:type="MSShapeGroup" transform="translate(18.684257, 94.792855) scale(1, -1) translate(-18.684257, -94.792855) "></path>
            <path d="M8.27522991,67.2459691 C17.7951735,122.36709 30.3385108,67.0676263 28.1507226,64.8798381 C23.4329431,60.1620587 14.9302206,67.7213247 8.27522991,67.2459691 L8.27522991,67.2459691 L8.27522991,67.2459691 Z" id="path2997-2" stroke-opacity="0.74000001" stroke="#FFFFFF" fill="#FFFFFF" sketch:type="MSShapeGroup"></path>
            <path d="M15.9228231,56.0360384 C-14.1629354,79.3521776 57.0731425,67.7932735 15.9228231,56.0360384 L15.9228231,56.0360384 L15.9228231,56.0360384 Z" id="path2995-2" stroke-opacity="0.74000001" stroke="#FFFFFF" fill="#FBC6AF" sketch:type="MSShapeGroup"></path>
            <rect id="Rectangle-1-2" stroke-opacity="0.685603487" stroke="#E10D0D" stroke-width="2" fill-opacity="0.685603487" fill="#E10D0D" sketch:type="MSShapeGroup" x="14" y="94" width="10" height="8" rx="8"></rect>
        </g>
    </g>
</svg>