<?xml version="1.0" encoding="UTF-8" standalone="no"?>
<svg width="59px" height="86px" viewBox="0 0 59 86" version="1.1" xmlns="http://www.w3.org/2000/svg" xmlns:xlink="http://www.w3.org/1999/xlink" xmlns:sketch="http://www.bohemiancoding.com/sketch/ns">
    <!-- Generator: Sketch 3.0.4 (8053) - http://www.bohemiancoding.com/sketch -->
    <title>flower1</title>
    <desc>Created with Sketch.</desc>
    <defs></defs>
    <g id="Page-1" stroke="none" stroke-width="1" fill="none" fill-rule="evenodd" sketch:type="MSPage">
        <g id="Desktop-HD-6" sketch:type="MSArtboardGroup" transform="translate(-971.000000, -631.000000)" stroke="#FFFFFF" stroke-opacity="0.74000001">
            <g id="flower1" sketch:type="MSLayerGroup" transform="translate(972.000000, 632.000000)">
                <path d="M42.0011655,84.622008 C42.0011655,84.622008 53.986356,39.9926077 23.1145932,29.1638562 C-7.75716962,18.3351046 10.607034,51.0154172 10.607034,51.0154172" id="Path-1286" sketch:type="MSShapeGroup"></path>
                <path d="M32.7316271,34.7937245 C32.7316271,34.7937245 13.332874,34.0329462 19.8359925,45.2498093 C26.3391111,56.4666724 32.8930001,44.7221682 30.7493625,42.3152827" id="Path-1287" sketch:type="MSShapeGroup"></path>
                <path d="M38.8613011,41.4001105 C38.8613011,41.4001105 29.5669413,20.4300726 38.0636424,11.1128982 C46.5603434,1.79572369 47.7314463,13.4755792 47.7314463,13.4755792" id="Path-1288" sketch:type="MSShapeGroup"></path>
                <path d="M42.8732874,51.8559487 C42.8732874,51.8559487 36.3464761,33.0878409 45.165851,31.1258483 C53.9852259,29.1638558 48.1048905,36.9937732 48.1048905,36.9937732" id="Path-1289" sketch:type="MSShapeGroup"></path>
                <path d="M15.490014,26.7686236 C15.490014,26.7686236 3.58041696,20.5362797 5.67328368,14.1719343 C7.7661504,7.80758883 10.2324616,11.4969006 10.2324616,11.4969006" id="Path-1290" sketch:type="MSShapeGroup"></path>
                <circle id="Oval-102" fill="#F1C9DB" sketch:type="MSShapeGroup" cx="47" cy="38" r="2"></circle>
                <circle id="Oval-103" fill="#F1C9DB" sketch:type="MSShapeGroup" cx="29.5" cy="41.5" r="2.5"></circle>
                <path d="M47.3828232,13.2659655 C47.3828232,13.2659655 38.1392338,13.1587836 38.1392338,16.8684043 C38.1392338,20.5780249 39.6837808,23.6411697 39.6837808,23.6411697 C39.6837808,23.6411697 46.7848607,20.5791531 46.7848612,17.7958094 C46.7848617,15.0124657 47.3828232,13.2659655 47.3828232,13.2659655 Z" id="Path-1291" fill="#F1C9DC" sketch:type="MSShapeGroup"></path>
                <path d="M50.8464898,19.9220096 C50.5456255,17.282351 47.7562674,13.3517109 47.7562674,13.3517109 C47.7562674,13.3517109 39.0640519,21.7391965 46.0627939,24.5685749 C47.7562673,25.9634577 49.2511723,26.4673862 49.2511723,26.4673862 C49.2511723,26.4673862 51.0439272,21.6542427 50.8464898,19.9220096 Z" id="Path-1292" fill="#F1C9DC" sketch:type="MSShapeGroup"></path>
                <path d="M47.931143,13.2005281 C47.931143,13.2005281 49.3743105,17.4331282 51.5387423,20.2082657 C53.6428142,22.9060126 56.4673399,24.1511116 56.6379816,23.973174 C58.5720045,21.9564615 56.0593313,13.2005281 52.7626626,13.2005281 C48.8759099,13.2005281 47.931143,13.2005281 47.931143,13.2005281 Z" id="Path-1293" fill="#F1C9DC" sketch:type="MSShapeGroup"></path>
                <path d="M14.8323562,11.7899358 C14.8323562,11.7899358 9.61317615,9.37337034 9.61317612,8.54814251 C9.61317601,5.62478769 9.61317612,2.79155667 9.61317612,2.79155667 C9.61317612,2.79155667 13.959266,4.82777818 14.8323562,6.512585 C15.7054465,8.19739183 16.4839617,10.2324599 16.4839617,10.2324599 C16.4839617,10.2324599 15.99453,9.11975797 15.2635052,7.0086654 C14.2277782,3.38854798 18.2914283,-0.200321358 18.2914283,-0.200321358 C18.2914283,-0.200321358 19.5208063,3.48717992 19.5208061,5.11475249 C19.5208058,6.74232506 18.8425397,9.54351206 18.8425397,9.54351206 C18.8425397,9.54351206 20.5822663,4.15743538 22.1450831,4.15743568 C23.7078999,4.15743597 26.0811647,4.00389111 26.0811647,4.00389111 C26.0811647,4.00389111 25.239205,8.35463939 23.6763885,9.14572795 C22.113572,9.93681651 20.3759827,10.692426 20.3759827,10.692426 L25.222718,8.22228606 C25.222718,8.22228606 28.0447814,8.90144699 29.3418987,8.90144714 C30.639016,8.90144728 26.7454109,13.1431307 24.9168956,13.1431305 C23.0883804,13.1431303 21.0836228,13.1431308 21.0836228,13.1431308 C21.0836228,13.1431308 27.482425,14.8528161 26.6272493,16.2060111 C25.7720736,17.5592061 26.6272495,20.7502625 26.6272495,20.7502625 C26.6272495,20.7502625 22.0863352,19.9324716 21.2311591,18.5672595 C20.3759831,17.2020474 19.5208062,14.4702899 19.5208062,14.4702899 C19.5208062,14.4702899 20.4053565,17.4824339 20.4053564,19.2822431 C20.4053563,21.0820523 16.4539202,22.8818627 16.4539202,22.8818627 C16.4539202,22.8818627 14.3904152,19.6654375 14.3904149,18.2868738 C14.3904146,16.90831 16.4539203,14.2533248 16.4539203,14.2533248 C16.4539203,14.2533248 14.2135048,18.2481539 12.5325256,18.2481538 C10.8515464,18.2481538 7.57904438,17.0865556 7.57904438,17.0865556 C7.57904438,17.0865556 7.03295952,11.6624266 10.8515463,10.6924258 C14.6701331,9.722425 14.390415,11.7899361 14.390415,11.7899361" id="Path-1294" fill="#F1C9DB" sketch:type="MSShapeGroup"></path>
                <path d="M18,16.1552749 C19.978102,16.1552749 21,14.6568542 21,13 C21,11.3431458 19.6568542,10 18,10 C16.3431458,10 14.4197886,11.3431458 14.4197886,13 C14.4197886,14.6568542 16.021898,16.1552749 18,16.1552749 Z" id="Oval-104" fill="#F8E81C" sketch:type="MSShapeGroup"></path>
                <path d="M8.25141897,53.7395898 C8.25141897,53.7395898 1.34663464,56.8675403 0.259616213,54.1902032 C-0.82740221,51.5128661 1.43814368,50.6379828 1.43814368,50.6379828 L8.4808852,52.1756145 C8.4808852,52.1756145 0.827640813,49.5384859 2.52516196,46.5824618 C4.22268311,43.6264376 9.81262125,51.2210072 9.81262125,51.2210072 C9.81262125,51.2210072 5.75571413,45.2957869 8.67984837,43.453818 C11.6039826,41.611849 12.431032,50.412676 12.431032,50.412676 C12.431032,50.412676 12.7520078,42.0229469 15.1250071,42.022947 C17.4980065,42.022947 14.1149398,50.412676 14.1149398,50.412676 C14.1149398,50.412676 17.7122208,41.9293579 20.5753495,45.0580019 C23.4384782,48.1866458 14.7423323,51.2875594 14.7423323,51.2875594" id="Path-1296" fill="#F1C9DB" sketch:type="MSShapeGroup"></path>
                <path d="M8.26667049,53.6474176 C8.26667049,53.6474176 9.18453543,51.2078355 10.7311794,51.2078355 C12.2778234,51.2078354 14.2528966,51.2078355 14.2528966,51.2078355 C14.2528966,51.2078355 14.6397432,55.2377061 12.2358937,55.9531415 C9.83204422,56.6685769 8.26667049,53.6474176 8.26667049,53.6474176 Z" id="Path-1295" fill="#F8E81C" sketch:type="MSShapeGroup"></path>
            </g>
        </g>
    </g>
</svg>