<?xml version="1.0" encoding="UTF-8" standalone="no"?>
<svg width="101px" height="158px" viewBox="0 0 101 158" version="1.1" xmlns="http://www.w3.org/2000/svg" xmlns:xlink="http://www.w3.org/1999/xlink" xmlns:sketch="http://www.bohemiancoding.com/sketch/ns">
    <!-- Generator: Sketch 3.0.4 (8053) - http://www.bohemiancoding.com/sketch -->
    <title>flower2</title>
    <desc>Created with Sketch.</desc>
    <defs></defs>
    <g id="Page-1" stroke="none" stroke-width="1" fill="none" fill-rule="evenodd" sketch:type="MSPage">
        <g id="Desktop-HD-6" sketch:type="MSArtboardGroup" transform="translate(-992.000000, -554.000000)" stroke="#FFFFFF" stroke-opacity="0.74000001">
            <g id="flower2" sketch:type="MSLayerGroup" transform="translate(993.000000, 555.000000)">
                <g id="Group" transform="translate(12.000000, 10.000000)" sketch:type="MSShapeGroup">
                    <path d="M41.6551719,146.045421 C41.6551719,144.047191 33.1537241,67.09406 45.7382203,44.0583068 C58.3227165,21.0225536 66.0811813,15.9411899 66.0811813,15.9411899" id="Path-1272"></path>
                    <path d="M46.1423928,43.5023172 C46.1423928,43.5023172 57.400403,22.500921 47.2355464,10.8348196 C37.0706899,-0.831281856 30.392685,-0.447275065 30.392685,-0.447275065" id="Path-1273"></path>
                    <path d="M61.4478815,55.7049623 C61.4478815,55.7049623 67.5421684,45.5071321 63.0281859,41.9736715 C58.5142035,38.4402108 45.6033511,44.479013 45.6033511,44.479013" id="Path-1274"></path>
                    <path d="M39.1981244,80.8515095 C39.1981244,80.8515095 44.8405092,62.8419039 53.7650319,62.841904 C62.6895547,62.8419041 61.5964005,78.6009779 56.6912583,75.2238423 C51.7861161,71.8467067 56.0998582,69.2121664 56.0998582,69.2121664" id="Path-1275"></path>
                    <path d="M39.8189614,65.7587629 C39.8189614,65.7587629 43.9841836,36.748048 29.8307211,30.2760951 C15.6772586,23.8041421 -0.988985091,40.2027869 0.429304223,43.8863259" id="Path-1276"></path>
                    <path d="M20.4233812,28.914985 C20.4233812,28.914985 5.11414307,40.6594031 14.9081581,49.3317821 C24.7021731,58.0041611 25.7532517,48.5287737 25.7532517,48.5287737" id="Path-1277"></path>
                </g>
                <path d="M42.4010689,8.82049149 C42.7772596,6.70914681 42.4010689,4.81344592 42.4010689,4.81344592 C42.4010689,4.81344592 36.4401033,3.59325412 36.4401033,7.5758173 C36.4401033,11.5583805 40.9417663,13.0036839 40.9417663,13.0036839 C40.9417663,13.0036839 42.0483659,10.8000136 42.4010689,8.82049149 Z" id="Path-1278" fill="#F8E81C" sketch:type="MSShapeGroup"></path>
                <path d="M46.7173793,16.4833869 C45.1083724,14.9172493 41.0162433,13.2607138 41.0162433,13.2607138 C41.0162433,13.2607138 40.497144,20.7123412 45.2703961,22.1682835 C50.0436481,23.6242258 49.9697313,21.9756511 49.9697313,21.9756511 C49.9697313,21.9756511 48.0928683,17.8222284 46.7173793,16.4833869 Z" id="Path-1279" fill="#F66BAB" sketch:type="MSShapeGroup"></path>
                <path d="M42.5987411,10.9267255 C42.5987411,10.9267255 46.4200303,20.3914735 52.0842081,17.7466974 C57.748386,15.1019212 42.5987411,10.9267255 42.5987411,10.9267255 Z" id="Path-1280" fill="#F66BAB" sketch:type="MSShapeGroup"></path>
                <path d="M42.982326,8.50706064 C42.982326,8.50706064 55.5840704,17.456353 55.5840704,11.17172 C55.5840704,4.88708711 42.982326,8.50706064 42.982326,8.50706064 Z" id="Path-1281" fill="#F66BAB" sketch:type="MSShapeGroup"></path>
                <path d="M42.8092928,5.40198278 C42.8092928,5.40198278 47.496309,-0.76505481 51.9604531,0.252425279 C56.4245972,1.26990537 56.5360327,4.08547458 56.5360327,4.08547458 C56.5360327,4.08547458 45.7771761,6.92288288 44.2932345,6.16243287 C42.8092928,5.40198287 42.8092928,5.40198278 42.8092928,5.40198278 Z" id="Path-1282" fill="#F66BAB" sketch:type="MSShapeGroup"></path>
                <path d="M82.4624259,16.7477421 C82.4624259,16.7477421 89.1226771,7.95432559 80.6117976,4.04394093 C72.100918,0.133556277 82.4624259,16.7477421 82.4624259,16.7477421 Z" id="Path-1283" fill="#F66BAB" sketch:type="MSShapeGroup"></path>
                <path d="M80.771081,17.6308538 C80.771081,17.6308538 74.33954,5.71968532 69.0107109,8.27854146 C63.6818818,10.8373976 79.3761982,19.4687061 79.3761982,19.4687061 C79.3761982,19.4687061 65.0352948,11.576308 65.0352948,17.7203901 C65.0352948,23.8644722 78.3978953,21.6486818 78.3978953,21.6486818 C78.3978953,21.6486818 63.6828238,25.8465252 66.5969979,30.4062833 C69.511172,34.9660413 79.0020303,23.991708 79.0020303,23.991708 C79.0020303,23.991708 67.9080002,32.6597754 74.3395402,35.1102436 C80.7710802,37.5607118 81.06231,25.5958232 81.06231,25.5958232 C81.06231,25.5958232 78.9407686,38.8933919 84.101835,37.0018178 C89.2629015,35.1102437 84.7672312,23.9917077 84.7672312,23.9917077 C84.7672312,23.9917077 88.5975036,39.3806592 92.5314513,34.8934712 C96.465399,30.4062833 85.9538252,23.9917077 85.9538252,23.9917077 C85.9538252,23.9917077 96.9856519,32.1904153 98.7547022,28.370509 C100.523752,24.5506028 87.1611521,21.6486825 87.1611521,21.6486825 C87.1611521,21.6486825 100.898863,25.3253287 98.7547018,19.468706 C96.6105406,13.6120833 85.9538252,19.7033862 85.9538252,19.7033862 C85.9538252,19.7033862 98.0676289,17.3424524 95.2995397,13.2520527 C92.5314505,9.16165294 84.7672312,19.7033862 84.7672312,19.7033862 C84.7672312,19.7033862 93.5926939,10.8194901 89.1799625,8.27854139 C84.7672312,5.73759266 84.7672312,17.7203902 84.7672312,17.7203902" id="Path-1284" fill="#F66BAB" sketch:type="MSShapeGroup"></path>
                <path d="M82.6,26 C84.5882251,26 87.7123994,23.9852814 87.7123994,21.5 C87.7123994,19.0147186 84.5882251,17 82.6,17 C80.6117749,17 78.7583825,19.0147186 78.7583825,21.5 C78.7583825,23.9852814 80.6117749,26 82.6,26 Z" id="Oval-98" fill="#F8E81C" sketch:type="MSShapeGroup"></path>
                <circle id="Oval-99" fill="#F8E81C" sketch:type="MSShapeGroup" cx="38" cy="56" r="3"></circle>
                <circle id="Oval-100" fill="#F8E81C" sketch:type="MSShapeGroup" cx="72" cy="66" r="3"></circle>
                <path d="M10.4812388,58.6074218 C10.4812388,58.6074218 0.220367873,51.453935 5.29849536,49.5981752 C10.3766228,47.7424153 12.6876042,58.3011131 12.6876042,58.3011131 C12.6876042,58.3011131 9.69143383,46.0120069 14.5405365,47.4709789 C19.3896391,48.929951 14.0410175,59.1305029 14.0410175,59.1305029 C14.0410175,59.1305029 16.9749841,48.1203695 20.0559793,50.9855181 C23.1369745,53.8506666 15.1644637,60.5536604 15.1644637,60.5536604 C15.1644637,60.5536604 24.1982143,51.5792864 24.198215,57.4359087 C24.1982156,63.2925311 15.6432478,62.0314822 15.6432478,62.0314822 C15.6432478,62.0314822 26.5289886,60.877877 22.7618623,65.8872029 C18.9947361,70.8965288 14.5405364,63.6167477 14.5405364,63.6167477 C14.5405364,63.6167477 21.409392,68.0323052 17.2256857,70.8974702 C13.0419793,73.7626352 12.9373636,64.7345389 12.9373636,64.7345389 C12.9373636,64.7345389 15.081525,72.4469217 9.81584222,70.8974702 C4.55015944,69.3480187 11.5226885,62.9504084 11.5226885,62.9504084 C11.5226885,62.9504084 4.15337173,72.5732157 2.98845608,68.1765071 C1.82354042,63.7797984 9.81584223,59.9589505 9.81584203,61.4546793 C9.81584183,62.9504081 -0.0915960609,64.6440597 -0.0915960601,59.1305028 C-0.0915960594,53.6169459 10.4812388,58.6074218 10.4812388,58.6074218 Z" id="Path-1285" fill="#F66BAB" sketch:type="MSShapeGroup"></path>
                <path d="M12.5,66 C15.5395741,66 16.476408,64.209139 16.476408,62 C16.476408,59.790861 14.9852814,58 12.5,58 C10.0147186,58 8.2748735,59.790861 8.2748735,62 C8.2748735,64.209139 9.46042585,66 12.5,66 Z" id="Oval-101" fill="#F8E81C" sketch:type="MSShapeGroup"></path>
            </g>
        </g>
    </g>
</svg>