<?xml version="1.0" encoding="UTF-8" standalone="no"?>
<svg width="77px" height="104px" viewBox="0 0 77 104" version="1.1" xmlns="http://www.w3.org/2000/svg" xmlns:xlink="http://www.w3.org/1999/xlink" xmlns:sketch="http://www.bohemiancoding.com/sketch/ns">
    <!-- Generator: Sketch 3.0.4 (8053) - http://www.bohemiancoding.com/sketch -->
    <title>flower3</title>
    <desc>Created with Sketch.</desc>
    <defs></defs>
    <g id="Page-1" stroke="none" stroke-width="1" fill="none" fill-rule="evenodd" sketch:type="MSPage">
        <g id="Desktop-HD-6" sketch:type="MSArtboardGroup" transform="translate(-1036.000000, -607.000000)" stroke="#FFFFFF" stroke-opacity="0.74000001">
            <g id="flower3" sketch:type="MSLayerGroup" transform="translate(1037.000000, 608.000000)">
                <path d="M46.0238051,102.169037 C46.0238051,102.169037 51.7857469,66.2152806 36.3561978,48.7980203 C20.9266486,31.3807599 9.56250784,22.6048908 9.56250784,22.6048908" id="Path-1245" sketch:type="MSShapeGroup"></path>
                <path d="M38.8263941,51.9901377 C38.8263941,51.9901377 27.1799588,39.3053239 18.8287306,41.1616013" id="Path-1246" sketch:type="MSShapeGroup"></path>
                <path d="M27.9381231,39.7369519 C27.9381231,39.7369519 23.5391868,31.6132965 23.5391868,24.8665973" id="Path-1247" sketch:type="MSShapeGroup"></path>
                <path d="M46.180517,70.9287305 C46.180517,70.9287305 35.6191464,39.7621164 42.2283441,30.9815777 C48.8375419,22.6008348 59.6700114,13.9162112 59.6700114,13.9162112" id="Path-1248" sketch:type="MSShapeGroup"></path>
                <path d="M40.3418882,44.7359473 C40.3418882,44.7359473 41.7592188,32.675905 49.4846104,32.6759049 C57.210002,32.6759047 60.5595917,35.2277812 60.5595917,35.2277812" id="Path-1249" sketch:type="MSShapeGroup"></path>
                <path d="M40.9413861,33.5577883 C41.6106868,32.1407904 42.6429403,26.5426232 42.6429402,21.9999996 C42.64294,17.457376 39.2398321,13.4838537 39.2398321,13.4838537" id="Path-1250" sketch:type="MSShapeGroup"></path>
                <path d="M46.1236628,71.9822396 C46.1236628,71.9822396 45.5779345,55.0412192 51.5168098,50.634077 C57.4556852,46.2269349 61.9214686,46.3229834 61.9214686,46.3229834" id="Path-1251" sketch:type="MSShapeGroup"></path>
                <path d="M48.7246463,54.6349757 C48.7246463,54.6349757 50.5340747,51.0405169 55.5801976,53.3406431 C60.6263205,55.6407693 61.3411291,58.6951347 61.3411291,58.6951347" id="Path-1252" sketch:type="MSShapeGroup"></path>
                <path d="M47.0725439,82.5542164 C47.0725439,82.5542164 43.1878251,66.1566423 34.9043379,62.1357191 C26.6208507,58.1147959 18.202894,64.1851063 18.202894,64.1851063" id="Path-1253" sketch:type="MSShapeGroup"></path>
                <path d="M10.1050886,21.6845868 C11.5228018,18.6167205 11.4436067,17.9728687 11.4436067,17.9728687 C11.4436067,17.9728687 3.98366392,17.4327234 3.98366392,19.7163618 C3.98366391,22.0000002 4.84521111,25.4520103 4.84521111,25.4520103 C4.84521111,25.4520103 8.68737543,24.7524531 10.1050886,21.6845868 Z" id="Path-1254" fill="#F8E81C" sketch:type="MSShapeGroup"></path>
                <path d="M4.72581839,34.1928742 C5.17273355,32.0281773 4.72581843,25.7273934 4.72581843,25.7273934 C4.72581843,25.7273934 -0.600655181,28.9161977 0.154698577,32.2081962 C0.910052336,35.5001948 2.30076705,37.4734736 2.30076705,37.4734736 C2.30076705,37.4734736 4.36438309,35.9435373 4.72581839,34.1928742 Z" id="Path-1255" fill="#F88CBF" sketch:type="MSShapeGroup"></path>
                <path d="M6.96488121,24.6834574 C6.96488121,25.3140116 2.04938269,32.7583631 7.58764304,36.5441305 C13.1259034,40.3298979 6.96488121,24.0529032 6.96488121,24.6834574 Z" id="Path-1256" fill="#F88CBF" sketch:type="MSShapeGroup"></path>
                <path d="M8.66097727,24.0522961 C8.66097727,24.0522961 9.42952985,36.8891091 14.9809898,33.0115466 C20.5324498,29.133984 8.66097727,24.0522961 8.66097727,24.0522961 Z" id="Path-1257" fill="#F88CBF" sketch:type="MSShapeGroup"></path>
                <path d="M10.8604425,22 C10.8604425,22 16.5180962,29.9821545 20.5726474,25.5438046 C24.6271986,21.1054548 10.8604425,22 10.8604425,22 Z" id="Path-1258" fill="#F88CBF" sketch:type="MSShapeGroup"></path>
                <path d="M11.324214,20.3013259 C11.324214,20.3013259 22.4937298,22.4581939 22.4937293,18.064663 C22.4937289,13.6711322 11.324214,20.3013259 11.324214,20.3013259 Z" id="Path-1259" fill="#F88CBF" sketch:type="MSShapeGroup"></path>
                <path d="M18.3467837,16.1717793 C15.8962991,17.7845553 11.4964035,18.7642201 11.4964035,18.7642201 C11.4964035,18.7642201 14.8483986,11.4686676 19.7242994,10.7463115 C22.3535949,10.356786 21.2146874,14.2842805 18.3467837,16.1717793 Z" id="Path-1260" fill="#F88CBF" sketch:type="MSShapeGroup"></path>
                <circle id="Oval-91" fill="#F88CBF" sketch:type="MSShapeGroup" cx="24.5" cy="24.5" r="2.5"></circle>
                <circle id="Oval-92" fill="#F88CBF" sketch:type="MSShapeGroup" cx="17" cy="42" r="3"></circle>
                <path d="M12.6891304,61.2182183 C12.6891304,61.2182183 7.49464894,60.2660768 7.49464874,54.4734317 C7.49464854,48.6807866 13.4840817,59.1537449 13.4840817,59.1537449 C13.4840817,59.1537449 10.09189,50.3438849 14.3714273,50.3438848 C18.6509645,50.3438847 16.4251014,58.9587568 16.4251014,58.9587568 C16.4251014,58.9587568 18.0024038,47.567855 21.3939969,50.079901 C24.78559,52.5919469 20.7580359,58.8669624 20.7580359,58.8669624 C20.7580359,58.8669624 24.45501,52.4431566 26.4156891,56.3891143 C28.3763683,60.335072 21.539788,61.7113881 21.539788,61.7113881 C21.539788,61.7113881 30.4966399,62.5375382 28.4561641,65.531354 C26.4156883,68.5251698 20.8906278,66.2423104 20.8906278,66.2423104 C20.8906278,66.2423104 28.1777813,73.3314753 22.8249092,73.331476 C17.4720371,73.3314767 19.6055065,66.5176936 19.6055065,66.5176936 C19.6055065,66.5176936 23.3288783,77.323032 18.8501528,74.8913804 C14.3714273,72.4597287 17.0082657,67.2520486 17.0082657,67.2520486 C17.0082657,67.2520486 15.4573607,78.1725799 12.5295402,74.0772303 C9.60171966,69.9818806 14.6234118,66.8392739 14.6234118,66.8392739 C14.6234118,66.8392739 8.9525594,73.9512379 7.89242436,70.3952559 C6.83228933,66.8392739 12.5697377,64.9691885 12.5697377,64.9691885 C12.5697377,64.9691885 4.06285904,67.6078268 4.97720303,64.6596074 C5.89154701,61.7113881 12.6891304,61.2182183 12.6891304,61.2182183 Z" id="Path-1262" fill="#F88CBF" sketch:type="MSShapeGroup"></path>
                <path d="M13.7750638,59.7615076 C13.7750638,59.7615076 10.9924341,65.2901687 14.2256362,66.8272746 C17.4588383,68.3643805 20.7184383,66.7474795 20.7184383,66.7474795 C20.7184383,66.7474795 22.3349241,59.6697132 19.5125122,59.6697132 C16.6901004,59.6697132 13.7750638,59.7615076 13.7750638,59.7615076 Z" id="Path-1261" fill="#F8E81C" sketch:type="MSShapeGroup"></path>
                <circle id="Oval-93" fill="#F88CBE" sketch:type="MSShapeGroup" cx="37" cy="12" r="3"></circle>
                <circle id="Oval-94" fill="#F88CBE" sketch:type="MSShapeGroup" cx="62" cy="37" r="3"></circle>
                <circle id="Oval-95" fill="#F88CBE" sketch:type="MSShapeGroup" cx="64" cy="45" r="3"></circle>
                <path d="M59.1667095,8.07863116 C59.1667095,8.07863116 54.3582677,-0.0836366612 49.5999844,1.76883333 C44.8417011,3.62130332 43.3186861,5.45211369 43.3186861,5.45211369 C43.3186861,5.45211369 54.849599,11.7944006 56.5863613,11.1189619 C58.3231235,10.4435233 59.1667095,8.07863116 59.1667095,8.07863116 Z" id="Path-1263" fill="#F88CBE" sketch:type="MSShapeGroup"></path>
                <path d="M57.1147427,11.053983 C57.1147427,11.053983 48.9199854,7.78508592 46.1885896,11.053983 C43.4571938,14.32288 43.7210996,15.7940262 43.7210996,15.7940262 C43.7210996,15.7940262 55.7296651,16.17592 57.592965,13.6149515 C59.4562648,11.053983 57.1147427,11.053983 57.1147427,11.053983 Z" id="Path-1264" fill="#F88CBE" sketch:type="MSShapeGroup"></path>
                <path d="M58.0461076,13.9962753 C58.0461076,13.9962753 46.6041129,13.150894 46.6041129,22.0000004 C46.6041128,30.8491068 58.0461076,13.9962753 58.0461076,13.9962753 Z" id="Path-1265" fill="#F88CBE" sketch:type="MSShapeGroup"></path>
                <path d="M59.9094074,16.361167 C59.9094074,16.361167 50.859094,18.1366876 53.0239189,26.6483605 C55.1887439,35.1600333 61.8724556,20.3710521 60.8909316,17.6795557 C59.9094075,14.9880593 59.9094074,16.361167 59.9094074,16.361167 Z" id="Path-1266" fill="#F88CBE" sketch:type="MSShapeGroup"></path>
                <path d="M62.4521363,17.3637808 C62.4521363,17.3637808 58.5619496,29.4817848 65.6366747,29.4817847 C72.7113998,29.4817845 62.4521363,17.3637808 62.4521363,17.3637808 Z" id="Path-1267" fill="#F88CBE" sketch:type="MSShapeGroup"></path>
                <path d="M64.9584833,15.1185872 C64.9584833,15.1185872 74.4374297,15.4890814 74.4374298,22.3221305 C74.43743,29.1551797 72.2845747,28.3047537 72.2845747,28.3047537 C72.2845747,28.3047537 64.4044523,20.5346394 64.4044523,18.5841311 C64.4044523,16.6336227 64.9584833,15.1185872 64.9584833,15.1185872 Z" id="Path-1268" fill="#F88CBE" sketch:type="MSShapeGroup"></path>
                <path d="M54.748141,0.657351325 C54.748141,0.657351325 59.959567,-0.454700582 62.3136285,0.896747448 C64.66769,2.24819548 63.3458818,6.78190216 63.3458818,6.78190216 L60.2491219,7.65341804 L54.748141,0.657351325 Z" id="Path-1269" fill="#F88CBE" sketch:type="MSShapeGroup"></path>
                <path d="M66.2032455,1.98656981 C68.8971648,1.98656981 74.7627964,4.40561073 73.1263533,7.65341811 C71.4899101,10.9012255 67.3865464,10.9012256 67.3865464,10.9012256 L64.6676904,7.653418 C64.6676904,7.653418 64.5793418,3.17181676 66.2032455,1.98656981 Z" id="Path-1270" fill="#F88CBE" sketch:type="MSShapeGroup"></path>
                <path d="M67.5501337,11.8930094 C67.5501337,11.8930094 73.0505448,8.9284874 73.8565116,10.0291396 C74.6624785,11.1297918 75.3293679,16.3064483 75.3293678,17.8756325 C75.3293677,19.4448167 66.3919125,14.6717144 66.3919125,14.6717144 L67.5501337,11.8930094 Z" id="Path-1271" fill="#F88CBE" sketch:type="MSShapeGroup"></path>
                <path d="M58.6406489,15 C59.2605383,16.3109557 60.9892264,16.9352045 62.6055045,16.9352045 C65.3669283,16.9352045 67.7416917,14.2475163 67.7416917,11.4860926 C67.7416917,8.72466882 65.3669283,7.61756527 62.6055046,7.61756527 C59.8440808,7.61756527 57.4824277,8.64790916 57.4824277,11.4860926 C57.4824277,12.66307 58.2014525,14.0711776 58.6406489,15 Z" id="Oval-96" fill="#F8E81C" sketch:type="MSShapeGroup"></path>
                <circle id="Oval-97" fill="#F88CBE" sketch:type="MSShapeGroup" cx="61" cy="61" r="3"></circle>
            </g>
        </g>
    </g>
</svg>