<?xml version="1.0" encoding="UTF-8" standalone="no"?>
<svg width="176px" height="133px" viewBox="0 0 176 133" version="1.1" xmlns="http://www.w3.org/2000/svg" xmlns:xlink="http://www.w3.org/1999/xlink" xmlns:sketch="http://www.bohemiancoding.com/sketch/ns">
    <!-- Generator: Sketch 3.0.4 (8053) - http://www.bohemiancoding.com/sketch -->
    <title>Path 1139 + grenouille 2</title>
    <desc>Created with Sketch.</desc>
    <defs></defs>
    <g id="Page-1" stroke="none" stroke-width="1" fill="none" fill-rule="evenodd" sketch:type="MSPage">
        <g id="Desktop-HD-6" sketch:type="MSArtboardGroup" transform="translate(-96.000000, -577.000000)">
            <g id="buisson-gauche" sketch:type="MSLayerGroup" transform="translate(87.000000, 559.000000)">
                <g id="Path-1139-+-grenouille-2" transform="translate(10.561224, 19.065789)" sketch:type="MSShapeGroup">
                    <path d="M31.4235395,129.514231 C31.4235395,129.514231 -12.8146874,61.876719 3.27678457,40.2874377 C19.3682565,18.6981564 31.2183998,28.1675139 31.2183998,28.1675139 C31.2183998,28.1675139 27.9628065,-4.49696325 48.5913283,0.41406402 C69.21985,5.32509129 70.8849435,28.1675139 70.8849435,28.1675139 C70.8849435,28.1675139 84.9916212,-5.84094898 103.430212,8.33102483 C121.868802,22.5029986 108.212363,52.0172581 108.212363,52.0172581 C108.212363,52.0172581 130.785715,29.1311102 144.769842,46.9218669 C158.753969,64.7126235 152.908823,81.0772871 152.908823,81.0772871 C152.908823,81.0772871 159.145602,70.3334135 169.828846,84.382478 C180.51209,98.4315424 152.908827,129.514232 152.908827,129.514232 L31.4235395,129.514231 Z" id="Path-1139" stroke-opacity="0.74000001" stroke="#FFFFFF" fill="#46AF25"></path>
                    <g id="grenouille-2" transform="translate(142.181890, 37.835150) rotate(16.000000) translate(-142.181890, -37.835150) translate(124.681890, 18.335150)">
                        <path d="M26.8485234,7.59518384 C26.3318492,4.00262524 22.7685663,4.14808318 21.8066875,5.36704729 C20.8448086,6.5860114 14.3083648,4.9360792 11.6631974,4.44849452 C9.64176432,4.0758831 6.91639458,4.20777448 6.5016422,6.78544012 C5.85539293,10.801851 9.49897068,11.2746969 9.73943979,13.4688328 C9.9799089,15.6629687 9.73943979,16.3943481 8.53708949,15.9067634 C7.33474156,15.4191763 4.9300457,11.5184892 3.96816689,12.493661 C3.00628807,13.4688328 4.9300457,15.6629687 5.17051481,18.1008993 C5.41098392,20.5388275 4.15209609,25.3038325 3.19021727,25.7914196 C2.22833845,26.2790043 -0.177412387,28.119538 0.78446643,28.8509174 C1.74634525,29.5822969 3.00628797,27.3650297 3.96816679,27.6088244 C4.9300456,27.8526168 5.85168575,29.1419133 5.85168575,29.1419133 L6.85380304,27.6088244 C6.85380304,27.6088244 9.47233966,29.5591686 9.23187055,28.5839969 C8.99140144,27.6088251 6.50164234,26.1716282 6.50164205,22.9829543 C6.50164205,22.9829543 6.37286274,21.0264146 6.85380334,20.0512428 C8.2077608,19.5744275 9.25849949,22.4891711 9.25849949,24.9271019 C9.25849949,25.6665709 9.73943965,26.736392 9.73943965,26.736392 C9.73943965,26.736392 12.7210248,26.9764301 17.2638561,28.1157747 C21.8066874,29.2551192 24.8199049,30.1235638 24.8199049,30.1235638 C24.8199049,30.1235638 27.5341991,23.2205505 28.4960779,24.4395146 C29.4579568,25.6584811 30.4823383,29.3921844 29.5204595,30.1235638 C28.5585807,30.8549432 26.0913797,32.2408911 26.3318488,33.2160629 C26.5723203,34.1912347 28.7990498,31.9970991 29.5204595,33.2160632 C30.2418692,34.4350273 29.4579555,36.3865208 30.6603035,35.6551413 C31.8626514,34.9237619 33.2617097,40.0108554 33.0212382,39.0356837 C32.7807691,38.0605119 34.2235861,32.8644497 33.0212382,33.1082445 C31.8188903,33.3520368 29.6984259,22.7329658 30.6603047,22.489171 C31.6221835,22.2453787 34.7045278,22.3734014 35.4259375,19.9354707 C36.1473472,17.4975425 35.4259375,13.1092683 33.0212393,11.1589248 C30.6165434,9.20858127 27.5971153,8.03778925 27.5971153,8.03778925 L26.8485234,7.59518384 Z" id="path3866" stroke-opacity="0.74000001" stroke="#FFFFFF" fill="#2D8B09"></path>
                        <path d="M16.1537503,-0.358252349 C15.0019908,-0.121072985 13.9525132,0.590853613 13.296975,1.57967407 C12.6414369,2.56849453 12.3876391,3.82244024 12.6061146,4.99303089 C12.82459,6.16362394 13.512739,7.23692638 14.4793195,7.91466444 C15.4459,8.59240009 16.6794044,8.86650201 17.837039,8.66079647 C19.3012119,8.40062044 20.6078224,7.35995975 21.203614,5.97945757 C21.5338553,5.21425978 21.6526056,4.35660237 21.5429251,3.52881649 C21.433247,2.7010282 21.0954571,1.90552935 20.5777373,1.2557758 C20.0600174,0.606024656 19.363877,0.103917904 18.5886101,-0.178926613 C17.8133432,-0.461773544 16.961209,-0.524530554 16.1537503,-0.358252349" id="path3878" stroke-opacity="0.74000001" stroke="#FFFFFF" fill="#FFFFFF"></path>
                        <path d="M28.4368015,6.40926687 C27.2971518,6.69973914 26.2891882,7.48566529 25.7198513,8.5277135 C25.1505169,9.56976412 25.0280672,10.8528237 25.3897934,11.9861756 C25.7515195,13.1195276 26.5921748,14.0867365 27.6557618,14.5932616 C28.7193512,15.0997891 29.9904442,15.1382898 31.0819691,14.6970386 C32.1643956,14.2594673 33.0549968,13.3566877 33.4866652,12.2594595 C33.7786514,11.5172825 33.8642647,10.6929643 33.7311574,9.90542134 C33.5980502,9.117876 33.2466174,8.3694612 32.7275574,7.76813819 C32.2084997,7.16681518 31.523362,6.71438171 30.7709887,6.47610681 C30.018613,6.23783191 29.2012464,6.21442743 28.4368015,6.40926687" id="path3880" stroke-opacity="0.74000001" stroke="#FFFFFF" fill="#FFFFFF"></path>
                        <path d="M16.2354865,2.94951699 C16.4769721,3.00391509 16.6990636,3.14300028 16.8551192,3.33756703 C17.0111771,3.53213621 17.100178,3.78090801 17.1034298,4.03164648 C17.1066911,4.28238495 17.0241724,4.53344677 16.8732183,4.73210853 C16.7222642,4.93076787 16.5038602,5.07572892 16.2638696,5.13654581 C16.0238765,5.19736511 15.7638728,5.17364211 15.538451,5.07036222 C15.3130315,4.96707992 15.1236724,4.7849164 15.0101402,4.56212383 C14.8966104,4.33933126 14.8596479,4.07737196 14.9070204,3.83125213 C14.9543906,3.5851323 15.0857839,3.35646629 15.2736076,3.19327442 C15.5337589,2.96723866 15.9010079,2.87417094 16.2354865,2.94951699 C16.5629664,3.02328489 16.8517579,3.25645854 16.9959322,3.56350627 C17.1401066,3.8705564 17.1365239,4.24479397 16.9865053,4.54894841 C16.8364796,4.85310285 16.543277,5.08055025 16.2144474,5.14786316 C15.8856178,5.21517607 15.5283218,5.12088491 15.2736147,4.89958121 C15.0876359,4.73799162 14.956933,4.51223579 14.9084463,4.26885239 C14.8599597,4.02546899 14.8939965,3.76599034 15.0035413,3.54390722 C15.1130861,3.32182409 15.2974462,3.13853608 15.5186164,3.03182479 C15.739789,2.9251135 15.996379,2.8956546 16.2354937,2.94951699" id="path3882" stroke="#417505"></path>
                        <path d="M28.5435016,10.0509358 C28.8590811,9.70195836 29.3015263,9.47360846 29.7655699,9.42021421 C30.2296136,9.36681995 30.7112922,9.48883742 31.0960047,9.75723723 C31.4807173,10.0256346 31.7651762,10.4381219 31.8817055,10.8965592 C31.9982347,11.3549964 31.9458345,11.8554671 31.7369764,12.2788977 C31.528116,12.7023283 31.1645806,13.0451042 30.7328622,13.2256702 C30.3011437,13.4062363 29.8049296,13.4230482 29.3622797,13.27211 C28.9196299,13.1211717 28.5343246,12.8037719 28.2980357,12.395423 C28.0617491,11.9870765 27.9764953,11.4912703 28.0625633,11.0259679 C28.1294847,10.6641674 28.298119,10.3222868 28.5435016,10.0509358 C28.8386514,9.72454963 29.244465,9.50295877 29.6757216,9.43269466 C30.1069806,9.36243297 30.5608547,9.44396375 30.9420369,9.66015414 C31.3232191,9.87634934 31.6292099,10.2257949 31.7957517,10.6351139 C31.9622959,11.0444304 31.9882984,11.5109345 31.8683031,11.9366648 C31.7483078,12.3623927 31.4830978,12.7445573 31.128368,13.0029042 C30.7736383,13.2612487 30.3317121,13.394084 29.8953921,13.3735125 C29.4590721,13.352953 29.0312172,13.1791026 28.7016734,12.8884976 C28.3721297,12.5978902 28.1430585,12.1924249 28.0625633,11.7572426 C27.9510712,11.1544814 28.1346933,10.5030073 28.5435016,10.0509358" id="path3884" stroke="#417505"></path>
                        <path d="M9.52732538,7.4655294 C7.12002547,13.1121019 20.1940459,11.5603382 23.2336382,13.111961 C24.798107,13.9105758 24.7062139,16.820008 26.4169197,17.7764047 C30.3238813,19.9606523 32.9101397,19.367889 32.1307166,17.7764045" id="path3894" stroke-opacity="0.74000001" stroke="#FFFFFF"></path>
                    </g>
                </g>
            </g>
        </g>
    </g>
</svg>