<?xml version="1.0" encoding="UTF-8" standalone="no"?>
<svg width="87px" height="157px" viewBox="0 0 87 157" version="1.1" xmlns="http://www.w3.org/2000/svg" xmlns:xlink="http://www.w3.org/1999/xlink" xmlns:sketch="http://www.bohemiancoding.com/sketch/ns">
    <!-- Generator: Sketch 3.0.4 (8053) - http://www.bohemiancoding.com/sketch -->
    <title>herbes2 2</title>
    <desc>Created with Sketch.</desc>
    <defs></defs>
    <g id="Page-1" stroke="none" stroke-width="1" fill="none" fill-rule="evenodd" sketch:type="MSPage">
        <g id="Desktop-HD-6" sketch:type="MSArtboardGroup" transform="translate(-87.000000, -558.000000)" stroke="#FFFFFF" stroke-opacity="0.74000001">
            <g id="buisson-gauche" sketch:type="MSLayerGroup" transform="translate(87.000000, 533.000000)">
                <g id="herbes2-2" transform="translate(0.486743, 26.114600)" sketch:type="MSShapeGroup">
                    <path d="M40.7617546,64.1441492 C39.2624497,68.8706515 35.9411224,72.9888716 31.6476939,75.4449662 C27.6890306,77.7095565 22.9518721,78.5512791 18.4498178,77.8468027 C13.9477635,77.1423209 9.70666526,74.906226 6.53105075,71.6264629 C3.35543623,68.3466945 1.25474715,64.0467936 0.556817304,59.5272233 C-0.141107238,55.0076529 0.55787877,50.2891522 2.48200889,46.1433422 C4.4059851,41.9975269 7.54067479,38.4357175 11.3698286,35.9569022 C15.1989825,33.4780815 19.7075065,32.0832991 24.2605802,31.90775 C28.8136592,31.7322009 33.4003071,32.7696682 37.4660405,34.8343159 C41.5317686,36.8989583 45.0716092,39.981565 47.73133,43.6950467 C53.2400045,51.3862209 54.7316084,61.1871433 55.7731507,70.6017597 C58.8548573,98.4576726 59.3939653,126.596463 57.3815159,154.550706 C56.3727623,143.079934 55.4791671,131.598954 54.7009108,120.110107 C53.615843,104.09203 52.7838553,87.7450008 56.845396,72.2161636 C58.2382729,66.8906699 60.1914342,61.7312161 62.2066062,56.6102677 C63.3286501,53.7589279 64.4720242,50.9133309 65.4233366,48.0001204 C66.4278179,44.9240982 67.2233814,41.7598354 68.6400617,38.8518402 C69.4318676,37.2265154 70.4395439,35.6646382 71.8567921,34.5467666 C73.7663271,33.0406018 76.3793062,32.4651675 78.7346304,33.0592845 C81.0899599,33.6534069 83.1298375,35.4131011 84.042088,37.6722683 C84.9543385,39.9314355 84.7049576,42.6346882 83.3705674,44.6714264 C82.7033776,45.6897955 81.7828584,46.540127 80.7145936,47.1196047 C79.6463289,47.6990824 78.4322665,48.0061988 77.2180024,48.0001204 C75.9006699,47.9935146 74.587111,47.6168136 73.465152,46.9238546" id="path3741"></path>
                    <path d="M57.1335797,153.78786 C56.0209881,144.662924 55.1271063,135.511117 54.4529745,126.34303 C52.2156642,95.9160711 52.4015905,65.3697921 52.3084894,34.8602126 C52.289383,28.6048354 52.2700112,22.2578135 53.9175976,16.2249666 C54.7413908,13.2085457 55.9856307,10.2904714 57.7672696,7.72445954 C59.5489085,5.15844766 61.8809229,2.95080569 64.6392751,1.49588917 C66.1068687,0.721796097 67.6997895,0.160830599 69.348241,-0.0164232254 C70.9966872,-0.19367705 72.7036042,0.0247031992 74.2017043,0.737474214 C75.6998044,1.45025588 76.9748374,2.67524267 77.6304307,4.2037073 C78.286024,5.73217727 78.2824999,7.5593785 77.5061914,9.02977071 C77.0558273,9.88279775 76.3711074,10.592186 75.6161715,11.1903464 C74.8612356,11.7885014 74.0323633,12.2843199 73.2172158,12.7967115 C72.7261816,13.1053674 72.2358798,13.4224138 71.6993458,13.6418648 C71.1628066,13.8613159 70.5700468,13.9795756 70.0004907,13.8729772 C69.3184881,13.7453308 68.7068926,13.2827598 68.3966367,12.6599128 C68.0863755,12.0370713 68.0846559,11.268412 68.3923908,10.6441747" id="path3745"></path>
                    <ellipse id="Oval-41" fill-opacity="0.597571332" fill="#FFFFFF" cx="11.084393" cy="44.1668895" rx="3.02301628" ry="3.03436646"></ellipse>
                    <ellipse id="Oval-40" fill-opacity="0.597571332" fill="#FFFFFF" cx="51.0553861" cy="68.1046694" rx="3.35890698" ry="3.37151829"></ellipse>
                    <ellipse id="Oval-42" fill-opacity="0.597571332" fill="#FFFFFF" transform="translate(48.368260, 49.898471) scale(1, -1) translate(-48.368260, -49.898471) " cx="48.3682605" cy="49.8984706" rx="2.68712558" ry="2.69721463"></ellipse>
                    <ellipse id="Oval-43" fill-opacity="0.597571332" fill="#FFFFFF" cx="69.8652652" cy="18.2061987" rx="3.35890698" ry="3.37151829"></ellipse>
                    <ellipse id="Oval-46" fill-opacity="0.597571332" fill="#FFFFFF" cx="78.5984233" cy="52.5956853" rx="5.37425117" ry="5.39442926"></ellipse>
                    <ellipse id="Oval-47" fill-opacity="0.597571332" fill="#FFFFFF" cx="43.3299" cy="26.6349945" rx="2.35123488" ry="2.3600628"></ellipse>
                </g>
            </g>
        </g>
    </g>
</svg>