<?xml version="1.0" encoding="UTF-8" standalone="no"?>
<svg width="70px" height="149px" viewBox="0 0 70 149" version="1.1" xmlns="http://www.w3.org/2000/svg" xmlns:xlink="http://www.w3.org/1999/xlink" xmlns:sketch="http://www.bohemiancoding.com/sketch/ns">
    <!-- Generator: Sketch 3.0.4 (8053) - http://www.bohemiancoding.com/sketch -->
    <title>herbes4 2</title>
    <desc>Created with Sketch.</desc>
    <defs></defs>
    <g id="Page-1" stroke="none" stroke-width="1" fill="none" fill-rule="evenodd" sketch:type="MSPage">
        <g id="Artboard-2" sketch:type="MSArtboardGroup" transform="translate(-1233.000000, -696.000000)" stroke="#FFFFFF" stroke-opacity="0.74000001">
            <g id="herbes4-2" sketch:type="MSLayerGroup" transform="translate(1234.190065, 696.638432)">
                <path d="M39.4778202,87.2144733 C51.3718466,91.1791487 49.7608462,132.920425 40.3837266,142.927858 C46.2936861,124.184851 39.5470579,69.2242078 61.6725799,61.8490323" id="path3671" sketch:type="MSShapeGroup"></path>
                <path d="M39.2151951,146.745942 C45.8144021,125.674648 43.8096465,100.999401 41.47997,79.2557472 C40.6052724,71.0919269 37.2531184,61.1955131 39.6681528,52.9843954 C41.0874658,48.1587299 44.8619606,44.6199063 48.2742856,41.2075812" id="path3673" sketch:type="MSShapeGroup"></path>
                <path d="M22.503157,78.6969428 C23.1129711,78.3415909 23.8245588,78.163541 24.5297066,78.1898602 C25.2089898,78.2152106 25.8781969,78.4287912 26.4558619,78.7874009 C27.0335219,79.1460107 27.5195345,79.6476317 27.8745635,80.2278188 C28.5846265,81.3881929 28.7503471,82.8412256 28.4440884,84.1669594 C28.1378297,85.4926982 27.3845034,86.6916902 26.4123428,87.6428861 C25.4401822,88.5940871 24.2556672,89.3081793 23.0097932,89.8527905 C18.4409798,91.8499575 12.9450095,91.5129282 8.60299499,89.0607446 C4.26098048,86.6085561 1.1481536,82.1227059 0.266940225,77.211326 C-0.614272147,72.2999461 0.720907081,67.0529726 3.76018232,63.0974672 C6.79946257,59.1419617 11.4787915,56.5154932 16.4235082,55.8781699 C19.5296193,55.4778249 22.7373988,55.8396675 25.6576924,56.9719704 C28.577981,58.1042633 31.2022474,60.0097976 33.1425413,62.470259 C35.912311,65.9825697 37.2036652,70.4741074 37.5974336,74.9312539 C37.9911969,79.3884004 37.5503886,83.8711131 37.1956455,88.3315376 C35.7333797,106.716808 35.7333797,125.218393 37.1956455,143.603663 C37.4024127,142.086958 37.5713582,140.565083 37.7022817,139.039945 C39.4251806,118.969443 34.5511167,98.6667362 37.1956455,78.6969428 C37.8537986,73.726981 39.024185,68.7011982 41.7553809,64.4985944 C43.9862953,61.0657935 47.3387054,58.2402869 51.3090898,57.2512863 C53.2942819,56.7567835 55.405342,56.7321258 57.3808343,57.2641371 C59.3563215,57.7961434 61.188738,58.8937089 62.5275133,60.4419285 C63.8620957,61.9852989 64.6833563,63.9493298 64.9362556,65.9747136 C65.1891498,68.0000974 64.8840397,70.0811867 64.1464769,71.9841559 C62.6713415,75.7900942 59.5282814,78.7822556 55.9412283,80.7252833 C55.3169997,81.063412 54.673868,81.3749806 53.992694,81.574631 C53.3115201,81.7742814 52.5877548,81.8591826 51.888129,81.7394536 C50.7035338,81.536731 49.6417972,80.7174925 49.1444948,79.6224621 C48.6471924,78.5274367 48.7286333,77.1881141 49.3549432,76.1615297" id="path3749" sketch:type="MSShapeGroup"></path>
                <path d="M36.5651069,140.125555 C31.4449747,110.481103 28.5631345,80.4496441 27.9522722,50.3717161 C27.8834201,46.9815238 27.845423,43.5648718 28.4589084,40.2300387 C29.1368825,36.5446577 30.6346527,32.9778311 33.0186438,30.0883613 C35.7043846,26.8331584 39.4961586,24.5092929 43.6139422,23.5948173 C47.7317207,22.6803368 52.1496592,23.1809889 55.9589221,24.9937811 C59.7681849,26.8065681 62.9448586,29.9201202 64.8354593,33.6939212 C66.72606,37.4677273 67.3187162,41.8781036 66.4915122,46.0177631 C65.6643083,50.1574277 63.4224352,54.0003925 60.227084,56.7561078 C57.0317278,59.5118231 52.9029454,61.1629953 48.6900888,61.3699447 C44.4772323,61.5768991 40.2067482,60.3383304 36.7571336,57.9090425 C33.3075189,55.4797495 30.7004304,51.8749827 29.4721807,47.8362929" id="path3753" sketch:type="MSShapeGroup"></path>
                <path d="M37.0296775,141.611241 C33.7762574,141.793513 29.5470756,130.501606 25.8836521,121.834979 C11.7485511,88.395291 11.5023124,58.6691307 28.4168379,26.5032061 C31.1008434,21.3991082 33.9625063,12.0649981 39.5628633,9.26235196" id="path3773" sketch:type="MSShapeGroup"></path>
                <path d="M36.7808567,141.476391 C28.1630618,109.466173 24.0243187,76.3660345 26.6481036,43.1021277 C27.3311082,34.4431556 30.7938734,5.37075361 20.0618186,0" id="path3775" sketch:type="MSShapeGroup"></path>
                <ellipse id="Oval-44" fill-opacity="0.597571332" fill="#FFFFFF" sketch:type="MSShapeGroup" cx="19.5521179" cy="17.3175901" rx="2.7931597" ry="2.7931597"></ellipse>
                <ellipse id="Oval-52" fill-opacity="0.597571332" fill="#FFFFFF" sketch:type="MSShapeGroup" cx="40.5008157" cy="15.3623784" rx="2.51384373" ry="2.51384373"></ellipse>
                <ellipse id="Oval-45" fill-opacity="0.597571332" fill="#FFFFFF" sketch:type="MSShapeGroup" cx="50.5561906" cy="38.2662879" rx="4.74837149" ry="4.74837149"></ellipse>
                <ellipse id="Oval-51" fill-opacity="0.597571332" fill="#FFFFFF" sketch:type="MSShapeGroup" cx="19.8314339" cy="63.4047252" rx="2.51384373" ry="2.51384373"></ellipse>
                <ellipse id="Oval-56" fill-opacity="0.597571332" fill="#FFFFFF" sketch:type="MSShapeGroup" cx="20.9486978" cy="88.5431625" rx="2.51384373" ry="2.51384373"></ellipse>
                <ellipse id="Oval-54" fill-opacity="0.597571332" fill="#FFFFFF" sketch:type="MSShapeGroup" cx="52.2320864" cy="74.0187321" rx="2.51384373" ry="2.51384373"></ellipse>
            </g>
        </g>
    </g>
</svg>