<?xml version="1.0" encoding="UTF-8" standalone="no"?>
<svg width="55px" height="99px" viewBox="0 0 55 99" version="1.1" xmlns="http://www.w3.org/2000/svg" xmlns:xlink="http://www.w3.org/1999/xlink" xmlns:sketch="http://www.bohemiancoding.com/sketch/ns">
    <!-- Generator: Sketch 3.0.4 (8053) - http://www.bohemiancoding.com/sketch -->
    <title>herbes1 2</title>
    <desc>Created with Sketch.</desc>
    <defs></defs>
    <g id="Page-1" stroke="none" stroke-width="1" fill="none" fill-rule="evenodd" sketch:type="MSPage">
        <g id="Artboard-2" sketch:type="MSArtboardGroup" transform="translate(-123.000000, -751.000000)" stroke="#FFFFFF" stroke-opacity="0.74000001">
            <g id="herbes1-2" sketch:type="MSLayerGroup" transform="translate(150.228760, 800.000000) scale(-1, 1) translate(-150.228760, -800.000000) translate(124.423422, 751.702147)">
                <path d="M11.6863141,31.5808377 C10.9152971,30.5070843 10.4778614,29.2041539 10.4469437,27.8892922 C10.416026,26.5744264 10.7917474,25.2529426 11.5114702,24.1451772 C12.2311889,23.0374078 13.2920011,22.1478305 14.5170282,21.624766 C15.7420511,21.1017015 17.1263462,20.9472651 18.4390961,21.1872045 C19.6366148,21.406084 20.7628639,21.9455742 21.7267323,22.6790194 C22.6905966,23.4124646 23.4959406,24.3361772 24.1543962,25.3454957 C25.4713075,27.3641369 26.1962111,29.6935523 26.8800736,31.9965821 C33.1184222,53.005358 37.2252319,74.6277061 39.1194941,96.4371074 C38.8078559,77.702033 37.822249,58.9778445 36.1651509,40.3114895 C35.7655268,35.8099185 35.3570744,31.0995637 37.1215656,26.9284727 C38.0038071,24.8429314 39.4458808,22.948925 41.3884581,21.7476558 C43.3310355,20.5463865 45.7943091,20.0943461 47.9825194,20.771456 C49.1598496,21.1357627 50.2559874,21.8363402 50.9368625,22.850186 C51.4836383,23.6643518 51.7429169,24.6620765 51.6605211,25.6349014 C51.5781254,26.6077221 51.1545943,27.5493297 50.4784112,28.2629868 C49.8022322,28.9766438 48.8777922,29.4577203 47.8982435,29.6057033 C46.9186948,29.7536863 45.890388,29.5675922 45.0281762,29.0863635" id="path3705" sketch:type="MSShapeGroup"></path>
                <path d="M22.4496677,9.43519946 C21.9145237,10.0083764 21.1299572,10.347594 20.3394202,10.347594 C19.5488874,10.347594 18.7643209,10.0083764 18.2291769,9.43519946 C17.7152825,8.88478219 17.4384268,8.13361902 17.4404532,7.38581424 C17.4425422,6.63800947 17.7166529,5.89886406 18.1777365,5.30478776 C18.6388158,4.71071558 19.2811107,4.2608153 19.9904719,3.99446564 C20.6998331,3.72811186 21.4739795,3.6423372 22.2298093,3.71217188 C23.7414687,3.85183712 25.143692,4.60223065 26.2848192,5.58879364 C27.4259465,6.57535663 28.3346477,7.79221602 29.2024497,9.01945512 C46.5768363,33.590133 50.3548527,66.9226512 38.9095748,94.6629995 C41.874547,89.5286607 44.2841324,84.0833832 46.0844047,78.4489372 C51.8591504,60.3753414 51.0413849,40.0257599 42.2859658,23.1547998 C39.6246057,18.0265811 36.2444127,13.2224508 31.9955904,9.26591375 C27.7467722,5.30937673 22.6042981,2.21816331 16.9630292,0.704547704 C14.5880466,0.0673144987 12.1086289,-0.290180774 9.65979058,-0.0444753128 C7.21095639,0.201234265 4.78731179,1.08160064 2.94771554,2.69268353 C2.02791742,3.49822703 1.26238202,4.47970306 0.743983701,5.57928233 C0.225589557,6.67886572 -0.042458758,7.89681987 0.00548460532,9.10827127 C0.0534279686,10.3197227 0.42121937,11.5223171 1.09276488,12.5383113 C1.76430621,13.5543054 2.74165308,14.3778262 3.87951308,14.8398924 C4.9341292,15.2681566 6.11814017,15.3814198 7.23670166,15.1610504 C8.35525898,14.940681 9.40397148,14.3875391 10.2102472,13.5926552" id="path3709" sketch:type="MSShapeGroup"></path>
                <ellipse id="Oval-52" fill-opacity="0.597571332" fill="#FFFFFF" sketch:type="MSShapeGroup" cx="23.2248042" cy="31.4597788" rx="4.87434162" ry="4.80154098"></ellipse>
                <ellipse id="Oval-54" fill-opacity="0.597571332" fill="#FFFFFF" sketch:type="MSShapeGroup" cx="9.46195727" cy="12.818502" rx="2.00708184" ry="1.97710511"></ellipse>
            </g>
        </g>
    </g>
</svg>