<?xml version="1.0" encoding="UTF-8" standalone="no"?>
<svg width="58px" height="110px" viewBox="0 0 58 110" version="1.1" xmlns="http://www.w3.org/2000/svg" xmlns:xlink="http://www.w3.org/1999/xlink" xmlns:sketch="http://www.bohemiancoding.com/sketch/ns">
    <!-- Generator: Sketch 3.0.4 (8053) - http://www.bohemiancoding.com/sketch -->
    <title>herbes3 2</title>
    <desc>Created with Sketch.</desc>
    <defs></defs>
    <g id="Page-1" stroke="none" stroke-width="1" fill="none" fill-rule="evenodd" sketch:type="MSPage">
        <g id="Artboard-2" sketch:type="MSArtboardGroup" transform="translate(-1139.000000, -737.000000)" stroke="#FFFFFF" stroke-opacity="0.74000001">
            <g id="herbes3-2" sketch:type="MSLayerGroup" transform="translate(1139.981030, 737.999097)">
                <path d="M33.4878898,38.915235 C35.8576128,39.0229462 38.2522106,37.9501543 39.7472551,36.1110111 C41.2422995,34.2718634 41.8013541,31.7111924 41.2085959,29.4175246 C40.6158421,27.1238568 38.885723,25.1531025 36.6861436,24.266056 C34.4865686,23.3790095 31.8711413,23.5972959 29.8495392,24.8366451 C28.1853912,25.8568537 26.9671705,27.4899213 26.1384957,29.2555981 C25.3098209,31.0212703 24.8387937,32.9296629 24.3920201,34.8279039 C20.6457286,50.7450121 18.2529092,67.339499 21.2084706,83.4217438 C22.7306184,91.7042881 25.6658072,99.7260199 29.8495392,107.037464 C16.2027541,98.6923822 6.38817634,84.3482142 3.56327852,68.619594 C0.738376205,52.8909782 4.94930613,36.034919 14.8413627,23.4742044 C17.6310621,19.931908 20.8446909,16.722834 24.3920201,13.9370925" id="path3713" sketch:type="MSShapeGroup"></path>
                <path d="M30.0175426,105.954655 C46.7279065,86.6575323 55.8054477,60.9410026 54.9061735,35.4455691 C54.635869,27.7822004 53.3564765,19.7912605 48.7589226,13.6493997 C44.5626745,8.04363585 38.038574,4.60327806 31.3652473,2.46408723 C26.3944275,0.870650455 21.1900594,-0.104127775 15.9706224,0.00887057418 C12.2347311,0.0897506688 8.40131261,0.771238524 5.26023262,2.79248559 C3.68969037,3.80310912 2.31785378,5.14332241 1.36848335,6.75025119 C0.419112921,8.35717997 -0.0954867573,10.2352976 0.0147096726,12.0977832 C0.142996038,14.2660216 1.13674488,16.3712509 2.72994682,17.8499539" id="path3721" sketch:type="MSShapeGroup"></path>
                <ellipse id="Oval-53" fill-opacity="0.597571332" fill="#FFFFFF" sketch:type="MSShapeGroup" cx="34.0927016" cy="33.9885223" rx="3.15673163" ry="3.1470854"></ellipse>
                <ellipse id="Oval-55" fill-opacity="0.597571332" fill="#FFFFFF" sketch:type="MSShapeGroup" cx="34.0927016" cy="8.81183911" rx="3.15673163" ry="3.1470854"></ellipse>
                <ellipse id="Oval-57" fill-opacity="0.800000012" fill="#DAF7AD" sketch:type="MSShapeGroup" cx="15.1523118" cy="42.8003614" rx="2.52538531" ry="2.51766832"></ellipse>
                <ellipse id="Oval-55" fill-opacity="0.597571332" fill="#FFFFFF" sketch:type="MSShapeGroup" cx="31.5673163" cy="55.388703" rx="3.78807796" ry="3.77650247"></ellipse>
                <ellipse id="Oval-56" fill-opacity="0.597571332" fill="#FFFFFF" sketch:type="MSShapeGroup" cx="44.509916" cy="28.6384771" rx="3.4724048" ry="3.46179393"></ellipse>
            </g>
        </g>
    </g>
</svg>