<?xml version="1.0" encoding="UTF-8" standalone="no"?>
<svg width="82px" height="164px" viewBox="0 0 82 164" version="1.1" xmlns="http://www.w3.org/2000/svg" xmlns:xlink="http://www.w3.org/1999/xlink" xmlns:sketch="http://www.bohemiancoding.com/sketch/ns">
    <!-- Generator: Sketch 3.0.4 (8053) - http://www.bohemiancoding.com/sketch -->
    <title>hearts</title>
    <desc>Created with Sketch.</desc>
    <defs></defs>
    <g id="Page-1" stroke="none" stroke-width="1" fill="none" fill-rule="evenodd" sketch:type="MSPage">
        <g id="Desktop-HD-6" sketch:type="MSArtboardGroup" transform="translate(-103.000000, -532.000000)" stroke-opacity="0.74000001" stroke="#FFFFFF">
            <g id="buisson-gauche" sketch:type="MSLayerGroup" transform="translate(87.000000, 533.000000)">
                <g id="hearts" transform="translate(17.000000, 0.000000)" sketch:type="MSShapeGroup">
                    <path d="M21.8172698,162.852296 C21.8172698,162.852296 39.0883121,20.9975141 30.0932099,12.1453918 C21.0981078,3.29326948 17.2650513,35.6304261 17.2650513,35.6304261" id="Path-1219"></path>
                    <path d="M38.7152375,39.0960735 C38.7152375,39.0960735 39.6557224,4.45471306 50.3349037,1.0958418 C61.0140851,-2.26302946 59.5978331,7.36336508 59.5978331,7.36336508" id="Path-1221"></path>
                    <path d="M60.1524172,7.59044926 C60.1524172,7.59044926 51.9528233,-5.66139361 44.5644792,2.60644524 C37.1761351,10.8742841 55.5484525,33.8295322 55.5484525,33.8295322 C55.5484525,33.8295322 86.522659,20.4256416 78.8295247,10.1574877 C71.1363904,-0.110666303 60.1524172,7.59044926 60.1524172,7.59044926 Z" id="Path-1222" fill="#B7DC00"></path>
                    <path d="M17.4929035,35.4293511 C17.4929035,35.4293511 1.17596018,21.8397152 -0.291868984,35.4293511 C-1.75969815,49.0189869 20.5310362,56.2522562 20.5310362,56.2522562 C20.5310362,56.2522562 44.8634393,36.2020142 33.8645106,28.2458346 C22.8655818,20.289655 17.4929035,35.4293511 17.4929035,35.4293511 Z" id="Path-1222" fill="#B7DC00"></path>
                </g>
            </g>
        </g>
    </g>
</svg>