<?xml version="1.0" encoding="UTF-8" standalone="no"?>
<svg width="130px" height="53px" viewBox="0 0 130 53" version="1.1" xmlns="http://www.w3.org/2000/svg" xmlns:xlink="http://www.w3.org/1999/xlink" xmlns:sketch="http://www.bohemiancoding.com/sketch/ns">
    <!-- Generator: Sketch 3.1 (8751) - http://www.bohemiancoding.com/sketch -->
    <title>houses1</title>
    <desc>Created with Sketch.</desc>
    <defs></defs>
    <g id="Page-1" stroke="none" stroke-width="1" fill="none" fill-rule="evenodd" sketch:type="MSPage">
        <g id="fond" sketch:type="MSArtboardGroup" transform="translate(-1099.000000, -351.000000)" stroke-opacity="0.74000001" stroke="#FFFFFF">
            <g id="houses1" sketch:type="MSLayerGroup" transform="translate(1100.000000, 351.000000)">
                <path d="M3.60872257,51.5202345 L-0.191022863,31.1689098 L6.83646332,15.9978831 L13.9607172,30.7173271 L12.9156259,50.3267661 L3.60872257,51.5202345 Z" id="Path-1362" fill="#E25F5F" sketch:type="MSShapeGroup"></path>
                <path d="M26.4975117,46.873234 L23.6482402,30.7990421 L37.563437,29.5238587 L40.4127085,49.9999063 L26.4975117,46.873234 Z" id="Path-1363" fill="#FF9A00" sketch:type="MSShapeGroup"></path>
                <path d="M23.1730033,32.0312179 L30.5811091,12.7486385 L38.7977629,29.6055736 L23.1730033,32.0312179 Z" id="Path-1364" fill="#F90606" sketch:type="MSShapeGroup"></path>
                <path d="M40.9825628,49.5053157 L38.322526,27.8379501 L52.474266,26.192899 L54.8977596,48.3548552 L40.9825628,49.5053157 Z" id="Path-1365" fill="#F8CB1C" sketch:type="MSShapeGroup"></path>
                <path d="M38.4644519,28.4142556 L42.8340517,2.55362254 L52.9021944,27.2207872 L38.4644519,28.4142556 Z" id="Path-1366" fill="#D8D8D8" sketch:type="MSShapeGroup"></path>
                <path d="M56.1838289,48.3957127 L54.0463377,30.7173271 L67.0132109,29.2765634 L68.4840801,48.025845 L56.1838289,48.3957127 Z" id="Path-1367" fill="#EFC0C0" sketch:type="MSShapeGroup"></path>
                <path d="M54.5171399,30.962472 L58.8867397,15.9161682 L66.4840801,29.8120114 L54.5171399,30.962472 Z" id="Path-1368" fill="#4990E2" sketch:type="MSShapeGroup"></path>
                <path d="M73.5137168,43.9551499 L71.4708428,22.8232323 L87.5708395,20.6018758 L89.8975653,42.5165366 L73.5137168,43.9551499 Z" id="Path-1369" fill="#D8CA1F" sketch:type="MSShapeGroup"></path>
                <path d="M70.3311343,23.7672549 L78.1671684,8.92523868 L89.0417083,21.4663344 L70.3311343,23.7672549 Z" id="Path-1370" fill="#FF9A00" sketch:type="MSShapeGroup"></path>
                <path d="M88.7924556,40.7489131 L101.087812,38.1168314 L97.9723277,17.0257713 L90.4492447,5.96629713 L86.9360714,20.9717435 L88.7924556,40.7489131 Z" id="Path-1371" fill="#E32F2F" sketch:type="MSShapeGroup"></path>
                <path d="M110.921072,37.7469637 L109.083377,16.2021705 L124.239795,14.8452722 L128.5,36.841648 L110.921072,37.7469637 Z" id="Path-1372" fill="#157DA8" sketch:type="MSShapeGroup"></path>
                <path d="M107.468431,17.7246486 L115.446391,0.0871211145 L126.320932,17.7246486 L107.468431,17.7246486 Z" id="Path-1373" fill="#FF4E4E" sketch:type="MSShapeGroup"></path>
            </g>
        </g>
    </g>
</svg>