<?xml version="1.0" encoding="UTF-8" standalone="no"?>
<svg width="40px" height="70px" viewBox="0 0 40 70" version="1.1" xmlns="http://www.w3.org/2000/svg" xmlns:xlink="http://www.w3.org/1999/xlink" xmlns:sketch="http://www.bohemiancoding.com/sketch/ns">
    <!-- Generator: Sketch 3.0.4 (8053) - http://www.bohemiancoding.com/sketch -->
    <title>leek</title>
    <desc>Created with Sketch.</desc>
    <defs></defs>
    <g id="Page-1" stroke="none" stroke-width="1" fill="none" fill-rule="evenodd" sketch:type="MSPage">
        <g id="Desktop-HD-6" sketch:type="MSArtboardGroup" transform="translate(-392.000000, -643.000000)" stroke-opacity="0.74000001" stroke="#FFFFFF" fill="#6CB928">
            <path d="M418.141568,711.77936 L411.215586,711.865474 C411.215586,711.865474 414.054584,693.498288 409.071668,672.785633 C404.088752,652.072979 396.661771,681.709751 396.661771,681.709751 L392.924584,683.268866 C392.924584,683.268866 398.907242,659.222696 403.989455,659.222697 C409.071669,659.222697 415.05207,681.406087 415.05207,681.406087 C415.05207,681.406087 412.811112,649.951856 404.736441,649.951857 C396.661771,649.951858 397.659257,655.712423 397.659257,655.712423 L393.721219,657.878867 C393.721219,657.878867 397.711161,644.014531 403.391415,644.014531 C409.071669,644.014531 416.24815,651.680933 416.24815,658.615367 C416.24815,665.549801 416.84619,645.444475 421.580863,645.444475 C426.315536,645.444475 428.459453,657.446031 428.459453,657.446031 L425.069806,659.050469 C425.069806,659.050469 422.876241,654.715314 422.87624,652.333586 C422.876239,649.951857 419.039756,672.74031 419.039756,672.74031 C419.039756,672.74031 425.667847,660.00452 428.608399,670.705303 C431.54895,681.406087 430.752316,692.671143 430.752316,692.671143 L426.76463,694.533922 C426.76463,694.533922 425.697859,669.610466 422.876241,675.253476 C420.054624,680.896487 418.141568,711.77936 418.141568,711.77936 Z" id="leek" sketch:type="MSShapeGroup"></path>
        </g>
    </g>
</svg>