<?xml version="1.0" encoding="UTF-8" standalone="no"?>
<svg width="41px" height="44px" viewBox="0 0 41 44" version="1.1" xmlns="http://www.w3.org/2000/svg" xmlns:xlink="http://www.w3.org/1999/xlink" xmlns:sketch="http://www.bohemiancoding.com/sketch/ns">
    <!-- Generator: Sketch 3.0.4 (8053) - http://www.bohemiancoding.com/sketch -->
    <title>mushrooms-2</title>
    <desc>Created with Sketch.</desc>
    <defs></defs>
    <g id="Page-1" stroke="none" stroke-width="1" fill="none" fill-rule="evenodd" sketch:type="MSPage">
        <g id="Desktop-HD-5" sketch:type="MSArtboardGroup" transform="translate(-447.000000, -539.000000)">
            <g id="mushrooms" sketch:type="MSLayerGroup" transform="translate(448.000000, 537.000000)">
                <g id="mushrooms-2" transform="translate(0.000000, 3.000000)" sketch:type="MSShapeGroup">
                    <path d="M8.19094756,20.220147 C8.04056889,25.513903 7.600736,30.799402 6.87407289,36.0450648 C6.74030578,37.010719 6.59901867,38.0111176 6.87407289,38.9463001 C7.15817244,39.912232 7.88814578,40.7254886 8.79457067,41.1614065 C9.70099556,41.597328 10.768096,41.6635267 11.7378169,41.3971863 C12.7075378,41.1308494 13.5776996,40.542915 14.2323449,39.7785953 C14.8869938,39.014272 15.330272,38.0790931 15.5654329,37.1000582 C15.9280249,35.5904965 15.8001173,33.9868102 15.3434916,32.5030594 C14.8868658,31.019305 14.1117156,29.6485464 13.1950613,28.3963561 C12.6032178,27.5878706 11.9514667,26.8250321 11.3514418,26.0226175 C10.028192,24.2530355 8.96023111,22.2923236 8.19094756,20.220147" id="path3196" stroke="#FFFFFF" fill="#FCE5C2"></path>
                    <path d="M5.03045333,1.23024924 C2.79433244,4.29811015 1.91268267,8.32023129 2.66008178,12.0439416 C3.03164444,13.8951541 3.78136178,15.6579745 4.09536356,17.5198475 C4.25236622,18.4507822 4.29809067,19.4088772 4.12878578,20.3376506 C3.959488,21.2664205 3.56606578,22.1668158 2.92344889,22.8576339 C2.52301156,23.2881077 2.03737244,23.6278429 1.57131022,23.9860042 C1.105248,24.3441692 0.648042667,24.732026 0.332316444,25.2281573 C0.174453333,25.4762247 0.0539591111,25.7500068 -0.00433066667,26.0383127 C-0.0626204444,26.3266185 -0.0573511111,26.6298112 0.0285226667,26.9111205 C0.114389333,27.1924297 0.282883556,27.4506306 0.516910222,27.6284045 C0.750936889,27.806182 1.05109333,27.8996978 1.34321422,27.8688594 C1.612672,27.8404102 1.86396444,27.7099495 2.07240889,27.5365979 C2.28084978,27.3632427 2.45038933,27.1480823 2.608576,26.9277912 C2.76676622,26.7075001 2.91565156,26.4798705 3.09079467,26.2728391 C3.26593422,26.0658112 3.470176,25.878064 3.71358222,25.7588692 C3.93812978,25.6489105 4.19038933,25.6007533 4.44032711,25.603762 C4.69026133,25.6066105 4.93809422,25.6598665 5.17353956,25.7439039 C5.64443378,25.9119788 6.06172089,26.1996188 6.47606756,26.4797067 C6.89041778,26.7597911 7.31513244,27.0389605 7.79281778,27.1865689 C8.03166222,27.2603732 8.28243911,27.3000846 8.53204978,27.2869175 C8.78166044,27.2737433 9.03018667,27.2065155 9.244448,27.0776108 C9.59441422,26.8670615 9.82862933,26.5119943 10.0461298,26.165996 C10.2636302,25.8199977 10.4865067,25.4604156 10.8246933,25.2313725 C11.1833564,24.9884644 11.6373369,24.9204105 12.0688142,24.9565614 C12.5002951,24.9927122 12.9171378,25.125003 13.3303609,25.2545022 C13.743584,25.384005 14.1620978,25.5124717 14.5941724,25.5405613 C15.0262507,25.5686545 15.4794382,25.4875011 15.8288107,25.2313725 C16.0415858,25.0753859 16.2083164,24.8592144 16.3142258,24.617378 C16.4201387,24.3755452 16.4659413,24.1087455 16.4565618,23.844844 C16.4377884,23.317034 16.1998151,22.8124641 15.8587164,22.4096563 C15.5176178,22.0068449 15.078144,21.6980692 14.6169387,21.4419049 C14.1557369,21.1857371 13.6694862,20.9783389 13.1950649,20.7476473 C9.73399111,19.0646877 6.91995022,16.0862692 5.43332978,12.5325208 C3.94670933,8.9787725 3.80064711,4.88110242 5.03045689,1.23024924" id="path3204" stroke="#FFFFFF" fill="#FF5300"></path>
                    <path d="M22.4131698,16.5276668 C22.4737138,17.2340519 22.5615929,17.9380834 22.676544,18.637657 C22.8855716,19.9097939 23.1840604,21.1672113 23.3475698,22.4460136 C23.5110827,23.7248195 23.5362204,25.0409762 23.2032924,26.2863658 C22.7498667,27.9824997 21.6708622,29.4293484 20.8736782,30.9932342 C20.4750898,31.7751789 20.1424889,32.6005203 20.0051058,33.4676062 C19.8677227,34.3346886 19.9350044,35.2497002 20.3061724,36.0450648 C20.6547982,36.7921227 21.2645333,37.4082892 21.9927929,37.7931408 C22.7210524,38.1779925 23.5627307,38.3343209 24.3836089,38.2693292 C25.2044836,38.2043374 26.0033031,37.9217927 26.7010738,37.4839414 C27.3988409,37.0460901 27.996512,36.455414 28.4707804,35.7813165 C29.2722916,34.6420935 29.7183324,33.2707723 29.8378204,31.8823354 C29.9573084,30.4938984 29.7585458,29.0884952 29.3525973,27.7555253 C28.5406933,25.089582 26.9331449,22.7482236 25.3102898,20.4838989 C24.3580836,19.1553122 23.3923093,17.8364744 22.4131698,16.5276668" id="path3208" stroke="#FFFFFF" fill="#FBF38A"></path>
                    <path d="M24.7835378,1.23024924 C23.3967111,0.445737348 21.7701191,0.0932729545 20.1834844,0.233468258 C18.5968533,0.373663561 17.057024,1.00591682 15.8288036,2.02149424 C14.807392,2.86607 14.0107733,3.95674061 13.3699911,5.11768333 C12.7292053,6.27862606 12.2364836,7.51439492 11.7456107,8.74643583 C11.2547413,9.97847318 10.7621938,11.2143026 10.1217351,12.3754269 C9.48127644,13.5365477 8.68513778,14.6275245 7.66419556,15.4726735 C7.095904,15.9431114 6.45896178,16.3372955 5.962272,16.8829939 C5.71392711,17.1558432 5.50242489,17.4668621 5.37461333,17.8131489 C5.24680178,18.1594356 5.20590933,18.5428737 5.293824,18.9014054 C5.36667022,19.198481 5.52651022,19.4718287 5.74022756,19.690393 C5.95394844,19.9089608 6.22036978,20.0733931 6.50698667,20.1791894 C7.080224,20.390782 7.72029511,20.3657794 8.31096178,20.2094902 C9.49229867,19.8969188 10.4823893,19.0972173 11.6148124,18.6376535 C12.9068444,18.1133186 14.348768,18.0500289 15.7305742,18.2349632 C17.1123804,18.4198975 18.4498596,18.8424916 19.7783396,19.265748 C21.106816,19.6890043 22.4422329,20.1166046 23.822592,20.3120783 C25.2029511,20.5075556 26.6441707,20.4609508 27.944032,19.9563952 C29.6059164,19.3113166 30.8994738,17.9841434 32.4213973,17.0551599 C33.7907591,16.2193005 35.3469298,15.7057187 36.6550827,14.7767281 C37.3091556,14.3122328 37.8993422,13.7396375 38.2969351,13.0423177 C38.694528,12.3449944 38.8885369,11.5147323 38.7423858,10.7251964 C38.60704,9.99403303 38.187328,9.33318098 37.6376284,8.83323629 C37.0879324,8.33329159 36.4137067,7.98558773 35.7122773,7.74152598 C34.3094116,7.2534025 32.7991004,7.16611424 31.3679004,6.76896424 C28.5193138,5.97849902 26.0527253,3.90361992 24.7835378,1.23024568" id="path3212" stroke="#FFFFFF" fill="#F6A623"></path>
                    <path d="M16.6189298,11.2526966 C16.4120747,10.9074495 16.0645724,10.6496047 15.6745244,10.5519551 C15.28448,10.4543055 14.8566898,10.5180581 14.5119324,10.7251964 C14.1671787,10.9323453 13.9096996,11.2803411 13.8121849,11.6709432 C13.7146738,12.0615452 13.778336,12.4899395 13.985184,12.8351866 C14.1920391,13.1804336 14.5395413,13.4382785 14.9295893,13.5359281 C15.3196338,13.6335777 15.747424,13.5698251 16.0921778,13.3626833 C16.4369351,13.1555379 16.6944142,12.807542 16.7919289,12.41694 C16.88944,12.026338 16.8257778,11.5979436 16.6189298,11.2526966" id="path3292" fill="#FFFFFF"></path>
                    <path d="M20.3061724,3.6039878 C19.9269404,3.94923485 19.691968,4.44869174 19.6675876,4.96135492 C19.6431964,5.47402167 19.829728,5.99357818 20.1744853,6.37334886 C20.5192427,6.75311955 21.0179911,6.98842576 21.5299271,7.01284083 C22.0418667,7.03726659 22.5606862,6.85047008 22.9399182,6.50522303 C23.3191502,6.15997598 23.5541227,5.66051909 23.5785031,5.14785591 C23.6028942,4.63518917 23.4163627,4.11563265 23.0716053,3.73586197 C22.726848,3.35609129 22.2280996,3.12078508 21.7161636,3.09637 C21.204224,3.07194424 20.6854044,3.25874076 20.3061724,3.6039878" id="path3296" fill="#FFFFFF"></path>
                    <path d="M27.944032,10.7251999 C27.7716551,11.1049706 27.7564516,11.5534645 27.90272,11.9440666 C28.0489884,12.3346686 28.3549227,12.6625648 28.7341547,12.8351866 C29.1133902,13.0078119 29.561248,13.0230335 29.951296,12.8765573 C30.3413404,12.7300811 30.6687751,12.4237123 30.841152,12.0439416 C31.0135289,11.6641709 31.0287324,11.215677 30.882464,10.8250749 C30.7361956,10.4344729 30.4302613,10.1065767 30.0510258,9.93395492 C29.6717938,9.76132962 29.223936,9.74610803 28.833888,9.89258424 C28.4438436,10.0390605 28.1164089,10.3454292 27.944032,10.7251999" id="path3300" fill="#FFFFFF"></path>
                </g>
            </g>
        </g>
    </g>
</svg>