<?xml version="1.0" encoding="UTF-8" standalone="no"?>
<svg width="43px" height="49px" viewBox="0 0 43 49" version="1.1" xmlns="http://www.w3.org/2000/svg" xmlns:xlink="http://www.w3.org/1999/xlink" xmlns:sketch="http://www.bohemiancoding.com/sketch/ns">
    <!-- Generator: Sketch 3.0.4 (8053) - http://www.bohemiancoding.com/sketch -->
    <title>mushroom-1</title>
    <desc>Created with Sketch.</desc>
    <defs></defs>
    <g id="Page-1" stroke="none" stroke-width="1" fill="none" fill-rule="evenodd" sketch:type="MSPage">
        <g id="Desktop-HD-6" sketch:type="MSArtboardGroup" transform="translate(-1274.000000, -666.000000)">
            <g id="mushrooms-2" sketch:type="MSLayerGroup" transform="translate(1241.000000, 667.000000)">
                <g id="mushroom-1" transform="translate(34.118812, -0.500000)" sketch:type="MSShapeGroup">
                    <path d="M18.1779448,22.4512392 C16.7935571,25.8871559 15.3046275,29.2814763 13.7138786,32.6280073 C13.0730996,33.9760423 12.4089767,35.3366957 12.1383235,36.8030908 C11.7451765,38.9331466 12.2423833,41.2103538 13.4827378,42.990962 C14.723096,44.7715668 16.6900433,46.0348626 18.8319396,46.4342518 C20.9738323,46.8336445 23.2651679,46.3661188 25.0793046,45.1661616 C26.8934414,43.9662044 28.2107401,42.0488333 28.6816323,39.9344043 C29.1021325,38.0462472 28.8620867,36.05734 28.2738055,34.2139743 C27.6855243,32.3706051 26.7609543,30.6525358 25.7931176,28.9748087 C24.4037953,26.5664434 22.9140752,24.2152731 21.3290514,21.9293542 L18.1779448,22.4512392 Z" id="path3216" stroke="#FFFFFF" fill="#E0D9D9"></path>
                    <path d="M27.1060773,1.83676057 C25.4318012,0.794138977 23.4717702,0.209683295 21.496439,0.164032273 C19.5211078,0.11838125 17.5358541,0.611665227 15.814614,1.57581807 C12.8823363,3.21833193 10.8475555,6.1200975 9.52755558,9.19708 C8.2075556,12.274066 7.51347759,15.5720609 6.62388958,18.7980407 C6.19977353,20.3360493 5.72587866,21.8715603 4.98929616,23.2883625 C4.2527172,24.7051682 3.23605886,26.0080277 1.89722788,26.8872688 C1.43510594,27.1907552 0.935410609,27.4439794 0.521000752,27.8092264 C0.313795823,27.9918481 0.12901653,28.2026234 -0.00312668515,28.4445009 C-0.1352699,28.6863749 -0.213263324,28.9607002 -0.203507499,29.2357513 C-0.189540221,29.6296098 0.00804004752,30.0077288 0.304979422,30.2689707 C0.601918796,30.5302126 0.991666126,30.6776211 1.38693656,30.7098189 C1.78220344,30.7420166 2.18227025,30.6629842 2.54862417,30.5120494 C2.91497808,30.3611111 3.24904418,30.1398803 3.55242481,29.8860502 C4.15918607,29.37839 4.64350676,28.744359 5.19084328,28.1738815 C5.73817625,27.603404 6.37986634,27.0796132 7.14907342,26.8872688 C7.7380459,26.7399941 8.364925,26.7989364 8.94765829,26.9689608 C9.53039512,27.1389852 10.0752962,27.4160513 10.6066767,27.7082967 C11.1380572,28.0005422 11.661348,28.310278 12.2175754,28.5526064 C12.7737992,28.7949348 13.3691598,28.9695775 13.9764705,28.9748088 C14.5415993,28.9796701 15.1010597,28.8372639 15.6210466,28.6172695 C16.14103,28.3972752 16.6246948,28.1009328 17.093453,27.7872269 C18.0309693,27.1598151 18.9396932,26.4471568 20.0160883,26.1044377 C21.0404782,25.7782755 22.1605582,25.8138938 23.1987843,26.0935525 C24.2370069,26.3732113 25.1992318,26.8877126 26.0810173,27.4999274 C27.8445847,28.724364 29.3059413,30.3387136 31.0678355,31.5655245 C31.9487844,32.17893 32.909843,32.6953266 33.9472963,32.9777824 C34.9847531,33.2602382 36.1044999,33.2996364 37.1302192,32.9776203 C38.1559386,32.6556043 39.0770522,31.9522214 39.5562752,30.9952267 C39.7958849,30.5167276 39.9230829,29.9811674 39.909151,29.4468824 C39.8952192,28.9125939 39.7385872,28.380729 39.4479118,27.9310388 C39.045165,27.3079669 38.4154251,26.8724909 37.8723567,26.3653802 C36.3440245,24.9382459 35.5084799,22.9506739 34.4586582,21.1465267 C33.5549646,19.5935077 32.4620287,18.1310017 31.832739,16.4495582 C31.2592971,14.9173409 31.0958374,13.2679507 30.9646053,11.638411 C30.8333766,10.0088678 30.7266794,8.36143625 30.2571839,6.79467511 C29.6887334,4.89768295 28.5855665,3.16197182 27.1060773,1.83676057" id="path3260" stroke-opacity="0.74000001" stroke="#FFFFFF" fill="#F68323"></path>
                    <path d="M11.0879558,17.4933282 C10.7098502,17.3225428 10.2633227,17.3074797 9.87443329,17.4523976 C9.48554385,17.5973156 9.15908176,17.9004251 8.98721688,18.2761557 C8.815352,18.6518862 8.80019361,19.095609 8.94602759,19.4820557 C9.09186157,19.8685024 9.39688708,20.1929139 9.77499265,20.3636992 C10.1530982,20.5344845 10.5996257,20.5495477 10.9885152,20.4046298 C11.3774046,20.2597118 11.7038667,19.9566023 11.8757316,19.5808717 C12.0475965,19.2051411 12.0627548,18.7614184 11.9169209,18.3749717 C11.7710869,17.988525 11.4660614,17.6641135 11.0879558,17.4933282" id="path3264" fill="#E0D9D9"></path>
                    <path d="M33.7759206,25.2433282 C33.397815,25.0725428 32.9512875,25.0574797 32.5623981,25.2023976 C32.1735086,25.3473156 31.8470466,25.6504251 31.6751817,26.0261557 C31.5033168,26.4018863 31.4881584,26.845609 31.6339924,27.2320557 C31.7798264,27.6185024 32.0848519,27.9429139 32.4629574,28.1136992 C32.841063,28.2844845 33.2875905,28.2995477 33.67648,28.1546298 C34.0653694,28.0097118 34.3918315,27.7066023 34.5636964,27.3308717 C34.7355612,26.9551411 34.7507196,26.5114184 34.6048857,26.1249717 C34.4590517,25.738525 34.1540262,25.4141135 33.7759206,25.2433282" id="path3264-2" fill="#E0D9D9"></path>
                    <path d="M17.390169,7.31656011 C16.8761767,7.18487705 16.3286063,7.18487705 15.814614,7.31656011 C15.2400235,7.46376784 14.7092492,7.7759167 14.3028936,8.20560841 C13.8965415,8.63529659 13.6159623,9.18109739 13.5037738,9.76011398 C13.3915819,10.3391306 13.4481529,10.949436 13.6648938,11.4983439 C13.8816313,12.0472517 14.2578225,12.5329372 14.7363223,12.8816378 C15.2148257,13.230335 15.794053,13.4408884 16.3860352,13.4813152 C16.9780173,13.5217456 17.5807869,13.3919155 18.1027945,13.1115451 C18.6248055,12.8311748 19.064321,12.4011977 19.3545887,11.8869148 C19.64486,11.3726318 19.7849192,10.775755 19.7534963,10.1869311 C19.7182591,9.5264867 19.466093,8.8792067 19.0446392,8.3673333 C18.6231855,7.85545989 18.034649,7.48167034 17.390169,7.31656011" id="path3272" fill="#E0D9D9"></path>
                    <path d="M24.74275,8.62127261 C24.6740019,8.27969841 24.4641772,7.96835273 24.1725092,7.77512761 C23.8808448,7.58190602 23.5109282,7.50918636 23.1671949,7.57750261 C22.8234616,7.64581886 22.5101479,7.85432557 22.3157014,8.14416148 C22.1212584,8.43399386 22.0480791,8.80158693 22.1168272,9.14316114 C22.1855753,9.48473534 22.3953999,9.79608102 22.6870679,9.98930614 C22.9787323,10.1825277 23.348649,10.2552474 23.6923823,10.1869311 C24.0361156,10.1186149 24.3494293,9.91010818 24.5438758,9.62027227 C24.7383187,9.33043989 24.811498,8.96284682 24.74275,8.62127261" id="path3280" fill="#E0D9D9"></path>
                    <path d="M25.5305257,15.9276697 C24.4780913,15.5868599 23.2637322,15.787983 22.3794191,16.4495582 C21.8979734,16.8097394 21.5139725,17.2973201 21.2778404,17.8482817 C21.0417048,18.3992433 20.9540158,19.0122295 21.0262912,19.6067567 C21.098563,20.2012803 21.3306148,20.7758865 21.6919844,21.2551218 C22.0533505,21.7343572 22.5431447,22.1170486 23.0970536,22.3529445 C23.650959,22.588844 24.2676214,22.6773666 24.8660661,22.6068944 C25.4645108,22.5364223 26.0432737,22.307128 26.5263537,21.9491167 C27.0094372,21.5911055 27.3956537,21.105258 27.6342956,20.5553637 C27.8729376,20.0054695 27.96342,19.3928849 27.8938566,18.7980407 C27.818015,18.1494995 27.5514137,17.5241239 27.1353554,17.0188062 C26.7192971,16.5134851 26.1552247,16.1299658 25.5305257,15.9276697" id="path3284" fill="#E0D9D9"></path>
                </g>
            </g>
        </g>
    </g>
</svg>