<?xml version="1.0" encoding="UTF-8" standalone="no"?>
<svg width="121px" height="66px" viewBox="0 0 121 66" version="1.1" xmlns="http://www.w3.org/2000/svg" xmlns:xlink="http://www.w3.org/1999/xlink" xmlns:sketch="http://www.bohemiancoding.com/sketch/ns">
    <!-- Generator: Sketch 3.0.4 (8053) - http://www.bohemiancoding.com/sketch -->
    <title>pumpkin</title>
    <desc>Created with Sketch.</desc>
    <defs></defs>
    <g id="Page-1" stroke="none" stroke-width="1" fill="none" fill-rule="evenodd" sketch:type="MSPage">
        <g id="Desktop-HD-6" sketch:type="MSArtboardGroup" transform="translate(-284.000000, -655.000000)" stroke-opacity="0.74000001" stroke="#FFFFFF">
            <g id="pumpkin" sketch:type="MSLayerGroup" transform="translate(285.000000, 656.000000)">
                <path d="M27.653773,40.9566804 C27.653773,40.9566804 27.4637584,30.1235949 35.664635,30.1235955" id="Path-1240" sketch:type="MSShapeGroup"></path>
                <path d="M59.9526291,59.2941337 C76.5211716,59.2941337 92,50.3594035 92,36 C92,24.9551131 78.3491726,12.7038914 70.8500004,16.4887051 C67.3686963,12.7038915 58.4084179,14.6150888 53.3368836,16.4887052 C43.8902064,12.3082475 31.9450093,21.640596 31.9450093,35.9999995 C31.9450093,50.359403 43.3840866,59.2941337 59.9526291,59.2941337 Z" id="Oval-90" fill="#FF9A00" sketch:type="MSShapeGroup"></path>
                <path d="M59.9526294,26.1684334 C59.9526294,26.1684334 62.1078955,33.9724634 65.9776191,28.5508761 C69.8473427,23.1292889 57.6591588,16.7054966 60.3121415,13.5963488 C62.9651242,10.487201 68.9711445,6.61928444 71.6430963,10.1078166 C74.3150482,13.5963488 76.0710572,16.2556545 76.0710572,16.2556545 L81.8160247,18.1905162 C81.8160247,18.1905162 73.7170655,3.19940268 69.8473423,3.19940282 C65.9776191,3.19940295 55.4849236,7.5514869 55.4849235,11.9035706 C55.4849233,16.2556543 62.4656009,22.1614094 62.465601,22.1614089 C62.4656011,22.1614084 59.9526294,26.1684334 59.9526294,26.1684334 Z" id="Path-1236" fill="#639E1F" sketch:type="MSShapeGroup"></path>
                <path d="M51.8772928,16.4837794 C51.8772929,15.2457754 58.2444058,17.9960719 59.4445206,25.1926403 C53.6786996,22.4687014 44.4888048,22.3484437 41.0359018,31.4765611 C37.5829988,40.6046784 42.2005979,56.7374459 53.6786997,58.8633876 C49.6613667,50.170177 50.8583895,25.8392356 60.1355953,28.6578984 C63.3553936,31.4765611 64.7927315,30.0120425 64.7927315,30.0120425 C64.7927315,30.0120425 73.032089,48.9145745 63.3553944,58.957287 C74.5789769,57.5240703 72.1589787,57.4927669 75.6522419,56.4376216 C85.8758671,51.5869212 87.2217732,21.5239303 66.6847432,24.1539683 C66.6847432,18.5784197 71.1598448,16.5315534 71.1598448,16.5315534" id="Path-1237" sketch:type="MSShapeGroup"></path>
                <path d="M91.4143602,42.8366983 C91.4143602,42.8366983 93.1431197,50.9123384 97.5534119,50.9123382 C101.963704,50.9123381 105.332153,43.6491207 108.163486,45.2618195 C110.994818,46.8745182 109.951624,52.1255741 112.067701,52.1255735 C114.183779,52.125573 116.479343,48.1511819 118.028614,48.1511819 C119.577885,48.151182 118.62376,51.2983066 115.345731,53.3118181 C112.067701,55.3253296 110.290457,47.4804609 107.687098,47.4804612 C105.083739,47.4804614 101.009581,57.5952543 97.3145436,55.4535361 C93.6195065,53.3118179 89.2078643,46.3967816 89.2078643,46.3967816 L91.4143602,42.8366983 Z" id="Path-1238" fill="#639E1F" sketch:type="MSShapeGroup"></path>
                <path d="M27.5150499,41.7462628 C27.5150499,41.7462628 20.4218745,37.9270681 18.0372393,39.8366655 C15.6526041,41.7462628 13.3583884,47.8097404 13.3583884,47.8097404 L18.0372393,46.906899 C18.0372393,46.906899 13.4771478,50.1322962 13.4771478,52.6869735 C13.4771478,55.2416507 15.6377596,52.5074846 18.0372393,54.3644501 C20.4367189,56.2214156 20.1546657,57.9245325 22.1803232,59.3955306 C24.2059808,60.8665286 26.7701051,59.7558572 26.7701045,56.2214154 C26.7701039,52.6869737 30.8524581,56.0918604 30.8524592,57.7436951 C30.8524604,59.3955299 32.0483899,58.4195134 30.8524585,52.6869737 C29.6565271,46.954434 34.3990471,51.4737381 34.3990471,51.4737381 C34.3990471,51.4737381 37.8268763,41.746263 34.3396674,41.7462628 C30.8524585,41.7462627 27.5150499,41.7462628 27.5150499,41.7462628 Z" id="Path-1239" fill="#639E1F" sketch:type="MSShapeGroup"></path>
                <path d="M95.6672731,36.7262546 C96.2726537,37.0320342 96.7578288,37.5686219 97.0012948,38.2016347 C97.2447609,38.8346475 97.2442016,39.5580598 96.9997119,40.1906927 C96.707503,40.9469185 96.0948886,41.540459 95.4173119,41.9856077 C94.7397404,42.4307512 93.9885641,42.7490832 93.2687766,43.1221414 C92.3436605,43.601618 91.4446359,44.1820152 90.422393,44.3839037 C89.9112742,44.4848453 89.3733199,44.4854363 88.8770276,44.3269245 C88.38073,44.1684128 87.9293551,43.8418444 87.6723764,43.3886387 C87.5331127,43.1430357 87.4532501,42.8674895 87.4058791,42.5891522 C87.251045,41.6794377 87.4442381,40.7172923 87.9259149,39.9301735 C88.4075812,39.1430547 89.1714894,38.5355689 90.0421062,38.2296574 C90.9127283,37.9237511 91.8836378,37.9188758 92.7619158,38.2020621 C93.6401991,38.485222 94.4220574,39.052671 94.9754555,39.7911209 C95.5288536,40.5295707 95.8532376,41.4346737 95.9097788,42.3557428 C95.9663201,43.2768067 95.7567545,44.2107185 95.3252978,45.026435 C94.8938359,45.8421568 94.2430735,46.5384276 93.4663755,47.0367249 C92.6896775,47.5350222 91.789339,47.8356468 90.8703224,47.9190868 C89.2725893,48.0641439 87.6759643,47.5646172 86.07353,47.6420316 C85.2723128,47.6807599 84.4604744,47.8730402 83.7979722,48.3252962 C83.4667184,48.5514242 83.1767626,48.841111 82.965936,49.1823054 C82.7551041,49.5234945 82.6249474,49.9167821 82.6089653,50.3175411 C82.5839027,50.9452775 82.8404858,51.5627937 83.2321008,52.0540366 C83.6237159,52.5452794 84.1428811,52.9208966 84.6888607,53.2316782 C85.7808304,53.853236 87.0234976,54.253747 87.9388736,55.1144548 C88.6663276,55.7984634 89.1335525,56.7438512 89.2753805,57.7322517 C89.4172032,58.7206522 89.2395014,59.7465727 88.8103135,60.6481617 C88.3811415,61.5497506 87.7059655,62.3270976 86.8971241,62.9126128 C86.0882879,63.4981279 85.1484983,63.8942226 84.1726449,64.1057985 C82.2209435,64.5289555 80.164665,64.2138262 78.2901089,63.5251745 C76.4155527,62.836528 74.6962423,61.7888584 73.0151325,60.7108604 C71.6669755,59.8463641 70.3342201,58.9578605 69.0177053,58.0459036" id="path3294" sketch:type="MSShapeGroup"></path>
                <path d="M54.1817453,0.577206304 C52.8727967,0.0349834676 51.3911061,-0.0807318929 50.0138501,0.251709036 C48.6365941,0.584149964 47.3708429,1.36303765 46.4533775,2.4426713 C46.1360269,2.81611993 45.8581855,3.2266612 45.6643487,3.67677501 C45.4705066,4.12688355 45.3624103,4.61818445 45.387399,5.1076228 C45.4197957,5.74218155 45.6771491,6.35556635 46.0686164,6.85603753 C46.4600784,7.3565087 46.9809321,7.74752753 47.5495102,8.03114123 C48.686656,8.59837391 49.9835376,8.73763229 51.2502965,8.83855808 C51.6129973,8.86747241 51.9775605,8.89395434 52.3403298,8.86594227 C52.7030992,8.83792491 53.0666072,8.75307085 53.3822588,8.57209247 C53.7872019,8.33991779 54.1010595,7.94459874 54.2105013,7.49082843 C54.3199484,7.0370634 54.21525,6.53118397 53.915248,6.17363295 C53.7469487,5.97308991 53.5234114,5.8219545 53.280072,5.72537641 C53.0367325,5.62880361 52.7739709,5.58562734 52.5121802,5.58294696 C51.9885933,5.57756509 51.4768572,5.73089546 50.9837993,5.90713569 C50.0838829,6.22880234 49.2021067,6.6389901 48.4686272,7.25163094 C47.7351476,7.86427706 47.1565128,8.69765876 46.986372,9.63807096 C46.9385684,9.90222553 46.9235097,10.1765793 46.986372,10.4375575 C47.0549222,10.7221684 47.2157344,10.9815057 47.4297479,11.181252 C47.6437667,11.3809983 47.9094462,11.5221667 48.1907436,11.6032587 C48.7533278,11.7654428 49.3620589,11.6877487 49.9178208,11.503536 C50.3219302,11.3695909 50.723966,11.1669478 50.9717112,10.8207251 C51.0955838,10.6476137 51.1762801,10.440871 51.1843951,10.2281607 C51.1925206,10.0154505 51.1247302,9.79760103 50.9837993,9.63807096 C50.856877,9.49440157 50.6768589,9.40350082 50.489169,9.36446648 C50.3014791,9.32542158 50.1061333,9.33565767 49.9178208,9.37158953 C49.4473245,9.46128727 49.0112035,9.7131638 48.6892678,10.0678076 C48.3673373,10.4224566 48.1596659,10.8769814 48.0901344,11.350881 C48.0206028,11.8247805 48.0880238,12.3163505 48.2707539,12.7590299 C48.4536424,13.2017094 48.7505999,13.5951131 49.1183343,13.9020113 C49.5790799,14.286535 50.1416061,14.5320324 50.717302,14.7014978 C51.2604271,14.8613761 51.8287572,14.9581653 52.3930035,14.9115383 C52.9572498,14.8648954 53.5190004,14.6668428 53.9431915,14.2918641 C54.1552897,14.10438 54.3309021,13.8743422 54.4473456,13.6163135 C54.5637891,13.3582847 54.6202248,13.0722175 54.6012036,12.7897699 C54.5822088,12.5073275 54.4867123,12.2291748 54.3207187,11.9998705 C54.1547199,11.7705609 53.9177596,11.5917088 53.6487508,11.5035518 C53.3912233,11.4191568 53.1067917,11.4191568 52.8492643,11.5035518" id="path3334" sketch:type="MSShapeGroup"></path>
                <path d="M2.06855628,49.5 C1.66058458,49.5222134 1.26514418,49.7199494 1.00257779,50.0329892 C0.819531083,50.2512238 0.702042873,50.518159 0.625098042,50.7924072 C0.548147934,51.0666502 0.509757301,51.3499737 0.469588543,51.6319623 C0.220645657,53.3795275 -0.105843563,55.1390489 0.0461624482,56.8976997 C0.122162815,57.7770225 0.320167937,58.6513802 0.693358022,59.4512044 C1.06654811,60.2510233 1.6199304,60.9750002 2.33505354,61.492287 C3.10162625,62.0467879 4.05583081,62.3520979 5.00000504,62.2917735 C5.96086834,62.2303834 6.8775423,61.7959192 7.60289626,61.1627587 C8.32825023,60.5295981 8.87112733,59.7063892 9.26392956,58.8273355 C9.49261659,58.3155519 9.67470827,57.7743105 9.7062766,57.214644 C9.7378291,56.6549829 9.60752467,56.0722906 9.26392956,55.6293895 C8.88735207,55.143977 8.27825165,54.8659404 7.66495655,54.829903 C7.23065592,54.8043655 6.79012922,54.8930502 6.39960636,55.0847818 C6.00908351,55.2765081 5.66948787,55.5708749 5.42442837,55.930336 C5.17936886,56.289797 5.02943118,56.7135239 4.99407444,57.147128 C4.95872298,57.5807375 5.03802633,58.0232111 5.22199112,58.4174485 C5.40595591,58.8116859 5.69414419,59.1567478 6.04941056,59.407854 C6.40467692,59.6589549 6.82618243,59.8154828 7.25925367,59.8569179 C7.69232491,59.8983371 8.13591717,59.8245739 8.53218068,59.6450149 C8.92843891,59.4654505 9.27640282,59.1805178 9.53042682,58.8273355 C9.82196558,58.4219967 9.98471949,57.94099 10.1577464,57.4726359 C10.3307681,57.0042817 10.5248423,56.5298124 10.8629026,56.1623788 C10.9550327,56.0622391 11.0569452,55.9711801 11.1450442,55.8674737 C11.2331379,55.7637673 11.3082677,55.6444429 11.3343961,55.5108988 C11.3474287,55.4441267 11.3478508,55.3744949 11.3317579,55.308393 C11.3156651,55.242291 11.282688,55.1798614 11.2343778,55.1319364 C11.1860994,55.0840273 11.1222398,55.0511662 11.0546394,55.0434575 C10.987039,55.035754 10.9161514,55.0540102 10.8629184,55.0964003 C10.8247705,55.126792 10.7963205,55.1686122 10.7794731,55.2143845 C10.7626416,55.2601303 10.7571542,55.3097437 10.7606894,55.3583863 C10.7678652,55.4556714 10.8104452,55.5471367 10.862892,55.6293895 C10.9985994,55.842237 11.1995751,56.0036771 11.3958813,56.1623788 C11.6316966,56.3530181 11.8744187,56.5500155 12.1651396,56.6362414 C12.3104975,56.679349 12.4663605,56.6929145 12.6145622,56.6609346 C12.762764,56.6289073 12.9026661,56.5492662 12.9948543,56.4288971 C13.0704378,56.3302085 13.1114561,56.2089899 13.1349305,56.0869166 C13.1584102,55.9648432 13.1655332,55.8403058 13.180518,55.7169081 C13.1955556,55.5935051 13.2190353,55.4694057 13.2727484,55.3573099 C13.3264827,55.2452141 13.4134895,55.1451853 13.527833,55.0964214 C13.6018442,55.0648689 13.6853528,55.0559519 13.7643501,55.0712532 C13.8433474,55.0865546 13.9175169,55.1259319 13.9744116,55.1828267 C14.0313064,55.2397267 14.0706995,55.3138909 14.0859903,55.3928882 C14.1012917,55.4718856 14.0923747,55.5553942 14.0608222,55.6294053" id="path3390" sketch:type="MSShapeGroup"></path>
            </g>
        </g>
    </g>
</svg>