<?xml version="1.0" encoding="UTF-8" standalone="no"?>
<svg width="153px" height="64px" viewBox="0 0 153 64" version="1.1" xmlns="http://www.w3.org/2000/svg" xmlns:xlink="http://www.w3.org/1999/xlink" xmlns:sketch="http://www.bohemiancoding.com/sketch/ns">
    <!-- Generator: Sketch 3.0.4 (8053) - http://www.bohemiancoding.com/sketch -->
    <title>rocks</title>
    <desc>Created with Sketch.</desc>
    <defs></defs>
    <g id="Page-1" stroke="none" stroke-width="1" fill="none" fill-rule="evenodd" sketch:type="MSPage">
        <g id="Desktop-HD-6" sketch:type="MSArtboardGroup" transform="translate(-808.000000, -659.000000)" stroke="#FFFFFF" stroke-opacity="0.74000001">
            <g id="rocks" sketch:type="MSLayerGroup" transform="translate(809.000000, 660.000000)">
                <path d="M70.5746024,50.6960014 L49.286465,50.0049856 C49.286465,50.0049856 56.1117619,29.2563263 63.3431821,29.2563254 C70.5746024,29.2563245 93.4629871,48.2653228 93.4629871,48.2653228 L70.5746024,50.6960014 Z" id="Path-1217" fill="#D8D8D8" sketch:type="MSShapeGroup"></path>
                <g id="Path-1220-+-Path-1221-+-Path-1222" transform="translate(67.000000, 18.000000)" fill="#6CA22C" sketch:type="MSShapeGroup">
                    <path d="M17.7339174,29.6742961 C17.7339174,29.6742961 -4.71938001,11.1799021 0.209188684,5.52490369 C5.13775738,-0.130094774 17.7339174,29.6742961 17.7339174,29.6742961 Z" id="Path-1220"></path>
                    <path d="M18.0421273,29.4598156 C18.0421273,29.4598156 -2.19373247,1.6936922 6.43056502,-0.0221530224 C15.0548625,-1.73799824 18.0421273,29.4598156 18.0421273,29.4598156 Z" id="Path-1221"></path>
                    <path d="M18.2889741,29.379911 C18.2889741,29.379911 11.943477,0.674556645 18.7505916,0.674558422 C25.5577062,0.674560198 18.2889741,29.379911 18.2889741,29.379911 Z" id="Path-1222"></path>
                </g>
                <path d="M80.4791629,51.7385867 C80.4791629,51.7385867 138.045634,72.1356776 148.350255,55.5634201 C158.654876,38.9911626 138.572986,-6.54920774 118.89722,0.633721474 C99.2214534,7.81665069 80.4791629,51.7385867 80.4791629,51.7385867 Z" id="Path-1218" fill="#D5C7B2" sketch:type="MSShapeGroup"></path>
                <path d="M13.3538253,54.3834397 C2.76994391,54.3694483 0.124464707,52.2145323 0.124464707,52.2145323 C0.124464707,52.2145323 2.90349402,40.2074602 8.9741525,40.2074601 C15.044811,40.2074599 26.5831851,52.2935536 26.5831851,52.2935536 C26.5831851,52.2935536 23.9377067,54.397431 13.3538253,54.3834397 Z" id="Path-1244" fill="#D7D2BE" sketch:type="MSShapeGroup"></path>
            </g>
        </g>
    </g>
</svg>