<?xml version="1.0" encoding="UTF-8" standalone="no"?>
<svg width="47px" height="37px" viewBox="0 0 47 37" version="1.1" xmlns="http://www.w3.org/2000/svg" xmlns:xlink="http://www.w3.org/1999/xlink" xmlns:sketch="http://www.bohemiancoding.com/sketch/ns">
    <!-- Generator: Sketch 3.0.4 (8053) - http://www.bohemiancoding.com/sketch -->
    <title>salad2</title>
    <desc>Created with Sketch.</desc>
    <defs></defs>
    <g id="Page-1" stroke="none" stroke-width="1" fill="none" fill-rule="evenodd" sketch:type="MSPage">
        <g id="Desktop-HD-6" sketch:type="MSArtboardGroup" transform="translate(-481.000000, -677.000000)" stroke-opacity="0.74000001" stroke="#FFFFFF">
            <g id="salad2" sketch:type="MSLayerGroup" transform="translate(482.000000, 678.000000)">
                <path d="M39.5745311,15.6634519 C39.5745311,15.6634519 44.0977825,11.1050915 44.0977825,19.9716578 C44.0977825,28.8382242 29.5610611,34.5434876 24.7466949,34.5434888 C19.9323288,34.54349 -3.55580552,30.6843892 0.547596067,20.4748917 C4.65099765,10.2653941 0.775806769,9.25746377 7.91470174,6.51747403 C15.0535967,3.77748428 27.6212697,6.62865371 27.6212705,10.2931888 C27.6212713,13.9577239 39.5745311,15.6634519 39.5745311,15.6634519 Z" id="Path-1172" fill="#B2E51C" sketch:type="MSShapeGroup"></path>
                <path d="M6.88043968,18.32152 C6.88043968,18.32152 -0.131184196,11.412298 6.88043972,7.6087888 C9.85068485,5.99755653 12.841416,0.687667263 19.5353168,-0.21732127 C28.6431808,-1.44866794 41.4806746,2.51427382 41.4806746,7.60878873 C41.4806747,9.6631718 46.3573112,12.7525367 45.2185844,15.1482237 C41.4580565,23.0597327 27.7500054,30.7399795 27.7500047,30.7399791" id="Path-1171" fill="#B2E51C" sketch:type="MSShapeGroup"></path>
                <path d="M17.186488,33.6204063 C17.186488,33.6204063 -2.57722942,30.4063447 4.46150586,20.8954241 C11.5002411,11.3845035 20.9665919,9.09069444 24.5199473,12.8664094 C28.0733026,16.6421244 25.7473111,27.0198544 25.7473106,27.0198541" id="Path-1170" fill="#B2E51C" sketch:type="MSShapeGroup"></path>
                <path d="M11.5002411,11.5740634 C11.5002411,11.5740634 16.8310067,4.94425335 22.5172531,4.94425344 C24.8597501,4.94425348 30.6684551,5.73781023 32.5643699,8.27232432 C35.2706548,11.8901647 33.2502061,17.7010935 29.4952305,18.2580002" id="Path-1173" sketch:type="MSShapeGroup"></path>
            </g>
        </g>
    </g>
</svg>