<?xml version="1.0" encoding="UTF-8" standalone="no"?>
<svg width="54px" height="51px" viewBox="0 0 54 51" version="1.1" xmlns="http://www.w3.org/2000/svg" xmlns:xlink="http://www.w3.org/1999/xlink" xmlns:sketch="http://www.bohemiancoding.com/sketch/ns">
    <!-- Generator: Sketch 3.0.4 (8053) - http://www.bohemiancoding.com/sketch -->
    <title>salad1</title>
    <desc>Created with Sketch.</desc>
    <defs></defs>
    <g id="Page-1" stroke="none" stroke-width="1" fill="none" fill-rule="evenodd" sketch:type="MSPage">
        <g id="Desktop-HD-6" sketch:type="MSArtboardGroup" transform="translate(-424.000000, -664.000000)">
            <g id="salad1" sketch:type="MSLayerGroup" transform="translate(425.000000, 665.000000)">
                <path d="M25.3962362,47.7131838 C8.69445396,42.7057223 -4.71439365,38.1736884 0.778751241,28.4688878 C6.27189613,18.7640872 10.1470875,24.94479 13.0874937,21.4206918 C16.0278999,17.8965935 22.1983633,5.72975149 28.7243072,11.1000145 C35.250251,16.4702776 42.7139067,17.5879241 45.8152316,24.2455291 C48.9165565,30.9031341 56.5411278,35.3766462 47.7857422,39.2372088 C39.0303566,43.0977714 42.0980184,52.7206454 25.3962362,47.7131838 Z" id="Path-1174" stroke-opacity="0.74000001" stroke="#FFFFFF" fill="#B3E61B" sketch:type="MSShapeGroup"></path>
                <path d="M25.7517181,44.8883465 C25.7517181,44.8883465 6.04514823,52.9415467 6.04514926,42.7335119 C6.04515029,32.5254772 6.27043416,28.2187335 13.8628245,25.7288979 C21.4552149,23.2390623 35.7359295,17.7298245 39.2571032,22.4842116 C42.7782769,27.2385987 46.5920251,36.8307573 41.9385775,40.859552 C37.28513,44.8883467 32.9564431,49.1395 32.9564431,49.1395 C32.9564431,49.1395 25.7517181,44.8883465 25.7517181,44.8883465 Z" id="Path-1175" stroke-opacity="0.74000001" stroke="#FFFFFF" fill="#B3E61B" sketch:type="MSShapeGroup"></path>
                <path d="M19.1614061,38.3711789 C19.1614061,38.3711789 17.9998729,28.6927093 25.1387678,26.4837483 C32.2776628,24.2747872 37.1885791,35.0416451 37.1885791,35.0416451" id="Path-1176" stroke-opacity="0.74000001" stroke="#FFFFFF" fill="#B2E51C" sketch:type="MSShapeGroup"></path>
                <path d="M25.2031349,33.811356 C25.2031349,33.811356 28.984701,42.9587968 33.861971,39.7419053 C38.739241,36.5250138 38.8036078,32.3294501 38.8036078,32.3294501" id="Path-1177" stroke-opacity="0.74000001" stroke="#FFFFFF" fill="#B2E51C" sketch:type="MSShapeGroup"></path>
                <g id="snail" transform="translate(9.000000, 0.000000)" sketch:type="MSShapeGroup">
                    <ellipse id="Oval-89" fill="#E9DE51" cx="11.9772727" cy="18.75" rx="6.34090909" ry="6.25"></ellipse>
                    <path d="M6.20081583,22.3274485 C6.02709747,22.4023604 5.88265928,22.5313958 5.75643808,22.6713547 C5.63021371,22.8113168 5.51899363,22.9641055 5.39100385,23.1024828 C4.90703666,23.6257258 4.18616894,23.9175976 3.4698022,23.9081454 C2.75343227,23.8986932 2.05056525,23.5954063 1.53517397,23.1024828 C1.3989425,22.9721903 1.27503381,22.8292004 1.13222742,22.7060065 C0.989421027,22.5828158 0.823400444,22.4782995 0.63732112,22.4434776 C0.544279868,22.426054 0.447249771,22.4266841 0.355687636,22.4505667 C0.264125502,22.4744493 0.178260354,22.522142 0.113764477,22.5908061 C0.0492685987,22.6594733 0.00701355625,22.7494268 0.00078535894,22.8430101 C-0.00544920017,22.9365964 0.0255645505,23.0330468 0.0892365759,23.1024796 C0.147596502,23.166134 0.229526879,23.2046581 0.313572553,23.2261713 C0.397618227,23.2476908 0.484784361,23.2536142 0.571215708,23.2616171 C1.11554679,23.3120699 1.64747238,23.4483803 2.17781388,23.5798889 C3.93079695,24.0145773 5.69665948,24.4021024 7.47957797,24.6938418 C9.76172879,25.0672704 12.0910969,25.2831117 14.3879402,25.0121167 C16.2558237,24.7917321 18.0943856,24.2437652 19.7232723,23.3118304 C21.3521622,22.3798957 22.7660998,21.0562234 23.7061982,19.4423448 C24.2447782,18.5177601 24.6295841,17.4854482 24.6701533,16.4187548 C24.7024744,15.5689327 24.5175115,14.7094507 24.6701533,13.872574 C24.8051537,13.1324206 25.2107786,12.4436614 25.7947723,11.9629385 C26.439343,11.9106523 27.0663933,11.6626861 27.5700916,11.2608895 C28.0737899,10.8590929 28.4520527,10.3051301 28.6410394,9.69249399 C28.8300229,9.07985818 28.8289509,8.41108662 28.6378585,7.7990482 C28.446906,7.18701009 28.0668715,6.63424083 27.5618849,6.23403156 C26.8724635,5.6876542 25.968691,5.43845351 25.0862528,5.46772985 C24.2038114,5.49700651 23.3431242,5.79172277 22.581436,6.23403156 C21.7576344,6.71240843 21.0371421,7.36647014 20.4928619,8.1436671 C19.4288739,9.66297126 19.0833394,11.5564463 18.8862669,13.3951651 C18.818183,14.0304014 18.7646103,14.667164 18.7256061,15.3048006" id="path3146" stroke-opacity="0.74000001" stroke="#FFFFFF" fill="#E9DE51"></path>
                    <path d="M9.06390497,19.7593828 C9.00864005,19.3233002 9.0735749,18.8728612 9.24986342,18.4695305 C9.42614558,18.0661998 9.7133011,17.7110514 10.0721477,17.4525469 C10.4309943,17.1940421 10.8605745,17.0328699 11.3022707,16.9910224 C11.743967,16.9491749 12.1966023,17.0267637 12.5984133,17.2132014 C13.0532785,17.4242552 13.439484,17.7730264 13.7069402,18.1941648 C13.9743964,18.6153032 14.1240099,19.1068164 14.151935,19.6035807 C14.2077884,20.5971105 13.772613,21.5844289 13.0803924,22.3055635 C12.1523306,23.2723927 10.7709145,23.7775284 9.42668315,23.6941883 C8.08245177,23.6108512 6.7941851,22.9555545 5.89989485,21.9579867 C5.0056046,20.9604221 4.50405022,19.6378093 4.45700475,18.304532 C4.40995928,16.971255 4.8079309,15.6344343 5.52939345,14.5078842 C6.66291264,12.7379149 8.60694996,11.5033895 10.70187,11.2075248 C12.7967932,10.9116601 15.005777,11.5552784 16.614904,12.9165211 C17.5277261,13.6887222 18.2504101,14.6798776 18.7034781,15.7809745" id="path3142" stroke-opacity="0.74000001" stroke="#FFFFFF" fill="#E9DE51"></path>
                    <path d="M24.3115529,5.98121891 L25.4361688,1.68453855" id="path3158" stroke-opacity="0.74000001" stroke="#FFFFFF" fill="#F6A623"></path>
                    <path d="M25.5839119,5.68213888 L30.7250185,-0.20590427" id="path3166" stroke-opacity="0.74000001" stroke="#FFFFFF" fill="#F6A623"></path>
                </g>
            </g>
        </g>
    </g>
</svg>