<?xml version="1.0" encoding="UTF-8" standalone="no"?>
<svg width="92px" height="164px" viewBox="0 0 92 164" version="1.1" xmlns="http://www.w3.org/2000/svg" xmlns:xlink="http://www.w3.org/1999/xlink" xmlns:sketch="http://www.bohemiancoding.com/sketch/ns">
    <!-- Generator: Sketch 3.0.4 (8053) - http://www.bohemiancoding.com/sketch -->
    <title>scarecrow</title>
    <desc>Created with Sketch.</desc>
    <defs></defs>
    <g id="Page-1" stroke="none" stroke-width="1" fill="none" fill-rule="evenodd" sketch:type="MSPage">
        <g id="Desktop-HD-6" sketch:type="MSArtboardGroup" transform="translate(-343.000000, -545.000000)" stroke="#FFFFFF" stroke-opacity="0.74000001">
            <g id="scarecrow" sketch:type="MSLayerGroup" transform="translate(344.000000, 546.000000)">
                <path d="M42.3173781,28.5913274 L43.7531589,162.011538 L53.3655415,161.039277 L48.3092191,23.3512928 L42.3173781,28.5913274 Z" id="Path-1228" fill="#998472" sketch:type="MSShapeGroup"></path>
                <g id="chapeau" transform="translate(23.000000, 0.000000)" sketch:type="MSShapeGroup">
                    <path d="M7.16262652,9.46001726 C7.16262652,9.46001726 16.0333588,20.9732918 8.51667946,20.9732921 C1.00000016,26.6485833 -0.160184606,32.2136466 -0.160184606,32.2136466 C-0.160184606,32.2136466 11.1988759,36.3203182 19.3132986,32.6997771 C27.4277213,29.0792359 41.6805365,25.6366557 42.9697651,20.6482629 C42.9697669,20.6482639 37.5035117,16.5952911 34.3579069,16.5952913 C31.5539916,14.275547 31.8594039,4.18498655 30.3517249,2.43833037" id="Path-1230" fill="#E3C260"></path>
                    <path d="M7.0808987,9.08570565 C7.0808987,9.08570565 13.4486426,16.5981176 20.3760025,11.3552567 C27.3033623,6.11239589 29.9262056,2.43815376 29.9262056,2.43815376 C29.9262056,2.43815376 21.1899883,0.114902379 15.6955833,0.114902207 C10.2011782,0.114902035 7.0808987,9.08570565 7.0808987,9.08570565 Z" id="Path-1229" fill="#D7B44B"></path>
                </g>
                <g id="chemise" transform="translate(0.000000, 35.000000)" fill="#37CABE" sketch:type="MSShapeGroup">
                    <path d="M45.7918317,13.3462298 C45.7918317,13.3462298 3.86584813,24.0552265 1.65281189,27.5645971 C0.839950926,29.0786621 -0.714310671,47.6750895 0.469250609,49.2114863 C1.65281189,50.7478831 0.839950935,52.6270655 0.839950935,52.6270655 L8.9272475,52.3914698 L9.27338334,50.3001393 C9.27338334,50.3001393 11.8861503,49.5732541 11.8861507,47.0118488 C11.8861511,44.4504435 10.9739157,41.2693443 12.6509993,41.2693434 C14.3280829,41.2693426 27.4466315,35.2711433 27.4466318,35.2711442 C27.4466322,35.2711451 26.4595859,72.7152281 26.4595864,75.5758721 C31.4405935,75.5758707 38.3208796,78.1584929 40.0962222,76.130806 C41.8715647,74.1031191 44.4363189,62.4260591 44.436319,61.2090013 C44.4363192,59.9919436 41.798989,45.2398562 43.7954094,45.2398566 C45.7918299,45.2398569 42.4890276,27.0308779 44.1404287,25.8350344 C45.7918299,24.6391909 45.7918317,13.3462298 45.7918317,13.3462298 Z" id="Path-1231"></path>
                    <path d="M48.9729318,11.7662871 L86.1579708,0.0892268573 C86.1579708,0.0892268573 89.5367044,5.06241748 89.5367032,9.24731141 C89.5367021,13.4322053 88.9694871,21.1811825 88.9694871,22.9956039 C88.9694871,24.8100253 89.8325936,27.4786214 89.8325936,27.4786214 L88.1063806,28.7381092 L88.9694871,30.4464571 L83.3967,31.8120189 L83.0271162,28.5248449 C83.0271162,28.5248449 80.4132328,28.547176 80.4132323,27.3725475 C80.4132318,26.197919 77.9969813,17.3178594 79.2051065,15.9299664 C80.4132318,14.5420734 75.9491968,20.7323223 73.310748,20.7323221 C70.6722993,20.7323219 65.9134908,20.8194142 65.91349,22.5690752 C65.9134892,24.3187362 62.2891129,60.8461175 63.4972385,63.9200266 C64.7053641,66.9939357 58.6390544,70.2386806 58.6390544,70.2386806 C58.6390544,70.2386806 57.3081061,73.6542599 55.9269126,73.6542598 C54.5457191,73.6542598 46.2362254,63.1741598 46.2362254,61.1877865 C46.2362255,59.2014133 47.3706578,45.7110491 45.8912062,44.2159644 C44.4117546,42.7208797 46.8525706,26.6668765 46.8525706,24.6179761 C46.8525706,22.5690757 48.9729318,11.7662871 48.9729318,11.7662871 Z" id="Path-1232"></path>
                </g>
                <g id="echarpe" transform="translate(38.000000, 38.000000)" fill="#D8D8D8" sketch:type="MSShapeGroup">
                    <path d="M10.4805256,3.89917049 C10.4805256,3.89917049 4.66097677,5.5226591 4.66097713,7.20867581 C4.66097748,8.89469251 6.85503176,12.2466272 6.85503176,12.2466272 L12.7482737,11.5845028 C12.7482737,11.5845028 16.5468355,4.75334448 14.6475546,4.75334443 C12.7482736,4.75334439 10.4805256,3.89917049 10.4805256,3.89917049 Z" id="Path-1233"></path>
                    <path d="M11.1951286,3.30180701 C11.1951286,3.30180701 13.5879322,0.44116174 15.5106611,0.441161729 C17.4333899,0.441161719 19.5548682,9.04319624 19.5548676,11.6481472 C19.554867,14.2530981 19.8250775,32.7836496 19.8250769,35.3238391 C19.8250763,37.8640286 15.5843544,44.1402535 15.5843545,44.140254 C15.5843546,44.1402546 11.8371547,18.1387528 13.7107547,15.8118264 C14.7695961,14.4967933 15.4190498,10.7885532 15.7836632,7.8120835 C16.0642264,5.52174633 13.7107547,5.09501411 13.7107546,5.09501419 C13.7107543,5.09501437 11.1951286,3.30180701 11.1951286,3.30180701 Z" id="Path-1234"></path>
                    <path d="M4.58616712,6.86700623 L4.6855416,3.77076526 C4.6855416,3.77076526 2.39211257,4.04767398 2.39211248,6.43936097 C2.3921124,8.83104796 1.52788942,11.413668 3.10671552,11.4136681 C4.68554162,11.4136681 4.58616712,6.86700623 4.58616712,6.86700623 Z" id="Path-1235"></path>
                    <path d="M3.62480272,11.5632881 C3.62480272,11.5632881 0.271751267,29.581334 0.271751282,33.7226816 C0.271751297,37.8640293 2.31841899,45.3360967 2.31841904,49.1569907 C5.52408349,49.1569923 7.10179312,47.427428 7.10179312,47.427428 C7.10179312,47.427428 4.98031535,12.6095116 6.87959624,12.6095116" id="Path-1236"></path>
                </g>
            </g>
        </g>
    </g>
</svg>