<?xml version="1.0" encoding="UTF-8" standalone="no"?>
<svg width="30px" height="29px" viewBox="0 0 30 29" version="1.1" xmlns="http://www.w3.org/2000/svg" xmlns:xlink="http://www.w3.org/1999/xlink" xmlns:sketch="http://www.bohemiancoding.com/sketch/ns">
    <!-- Generator: Sketch 3.0.4 (8053) - http://www.bohemiancoding.com/sketch -->
    <title>snail-baby</title>
    <desc>Created with Sketch.</desc>
    <defs></defs>
    <g id="Page-1" stroke="none" stroke-width="1" fill="none" fill-rule="evenodd" sketch:type="MSPage">
        <g id="Desktop-HD-5" sketch:type="MSArtboardGroup" transform="translate(-750.000000, -545.000000)">
            <g id="snails" sketch:type="MSLayerGroup" transform="translate(751.000000, 517.000000)">
                <g id="snail-baby" transform="translate(0.000000, 28.394005)" sketch:type="MSShapeGroup">
                    <path d="M18.4628474,25.4835502 C20.0984145,24.361894 21.3248088,22.6643608 21.8708934,20.7662482 C22.4169807,18.8681355 22.2787661,16.7833128 21.4868079,14.9727072 C20.6948497,13.1621016 19.2549383,11.6389395 17.4854142,10.7399743 C15.7158874,9.84100901 13.629683,9.57280402 11.6880225,9.99466213 C9.74636465,10.4165175 7.96344242,11.525348 6.7334352,13.0760122 C5.50342797,14.6266737 4.83532472,16.6078334 4.87682997,18.5814882 C4.91833523,20.5551429 5.66914837,22.5068664 6.96327546,24.0051652 C8.25740526,25.5034613 10.0853861,26.5373844 12.0430881,26.8783447 C12.8383261,27.0168453 13.6604524,27.0435727 14.4504985,26.8783447 C15.8402055,26.5877082 17.0632144,25.7226229 18.4628474,25.4835502 C19.8161788,25.2523886 21.1902234,25.6274441 22.5589029,25.7380068 C23.2432426,25.7932882 23.9418065,25.7808498 24.6027463,25.5961626 C25.263686,25.4114728 25.8877815,25.0421361 26.2869307,24.4872703 C26.5567812,24.1121475 26.7158824,23.6636938 26.7715902,23.205992 C26.8272979,22.7482902 26.7818818,22.2814694 26.6675738,21.8346324 C26.4389577,20.9409583 25.9442476,20.1392 25.4245341,19.3751604 C24.9048178,18.611118 24.3492162,17.862005 23.9743364,17.0184555 C23.5994593,16.1749061 23.4164055,15.2096441 23.6789029,14.3252046 C23.8284545,13.8213189 24.1157305,13.3658444 24.4590636,12.9662403 C24.802394,12.5666363 25.2019657,12.2188704 25.6052153,11.8789403 C26.4117173,11.1990776 27.2689003,10.5063245 27.6912545,9.54305577 C28.0829477,8.6497152 28.0411662,7.58781378 27.614763,6.71029286 C27.1883571,5.83277194 26.3927616,5.14733019 25.4704891,4.8151795 C24.5482166,4.48302882 23.5102359,4.49909056 22.5848244,4.82252309 C21.6594156,5.14595024 20.8490001,5.76880742 20.2684059,6.55422147 C19.3695849,7.77012571 19.0352679,9.38119828 19.3767701,10.8510023 C19.7182724,12.320809 20.7295842,13.623459 22.0739644,14.3252127" id="path3327" stroke="#FFFFFF"></path>
                    <path d="M23.0339948,6.26969382 C23.1324726,6.211007 23.248644,6.1820496 23.3633529,6.1875936 C23.4780618,6.19313492 23.5908532,6.23316419 23.6831289,6.3010695 C23.7754046,6.3689775 23.8467991,6.46449523 23.8855364,6.57187568 C23.9242765,6.67925613 23.9302104,6.79807159 23.9023552,6.9087311 C23.8745026,7.01939061 23.812972,7.1214557 23.7279139,7.1980953 C23.6428559,7.27473491 23.5346037,7.32564775 23.4210107,7.34243578 C23.3074176,7.35922112 23.1889306,7.34189779 23.0850903,7.29310195 C22.98125,7.24437873 22.8924653,7.16453 22.8333775,7.06672043 C22.7545947,6.93630855 22.7303497,6.77448604 22.7674891,6.62693913 C22.8046258,6.47939491 22.902692,6.34794202 23.0339948,6.26969382 C23.1222351,6.21711052 23.2246482,6.18824188 23.3275433,6.18695339 C23.4304384,6.18560841 23.5335529,6.2119431 23.6230986,6.26231258 C23.712647,6.3126686 23.7883965,6.38696256 23.8402232,6.47525775 C23.89205,6.56355564 23.9198185,6.6656288 23.9198185,6.76783646 C23.9198185,6.87004143 23.89205,6.97211459 23.8402232,7.06041247 C23.7883965,7.14870767 23.712647,7.22300163 23.6230986,7.27335765 C23.5335529,7.32371636 23.4304384,7.35000533 23.3275433,7.34871684 C23.2246482,7.34737186 23.1222351,7.31855971 23.0339948,7.26597641 C22.9478643,7.21464931 22.8754326,7.14087182 22.8259458,7.0540561 C22.7764564,6.96724307 22.7500257,6.86759626 22.7500257,6.76783377 C22.7500257,6.66807397 22.7764591,6.56842715 22.8259458,6.48161412 C22.8754326,6.39479841 22.9478643,6.32102092 23.0339948,6.26969382" id="path3343" stroke="#FFFFFF"></path>
                    <path d="M24.0683491,4.57566972 C21.8672354,4.63984406 19.9873845,6.43933208 19.5947353,8.54828368 C19.2166028,10.2821932 19.8537091,12.1570727 21.1637504,13.3450175 C21.4487324,13.6766087 21.8901073,13.8462832 22.1864534,14.1422163 C22.1729388,14.3866582 21.9042637,14.1063403 21.8098891,14.07182 C21.6325932,13.9692466 21.4736572,13.8254468 21.2812868,13.7541736 C21.1499379,13.9354123 21.454103,14.1845212 21.4859422,14.383137 C22.8235029,16.9747747 22.7336295,20.2403197 21.186514,22.7252118 C20.6790286,23.6328468 19.9145438,24.3307484 19.2291884,25.0899542 C19.3603505,25.2873084 19.7302334,25.1708655 19.9428757,25.235949 C21.3779744,25.3036472 22.8021341,25.7190548 24.2420158,25.4844312 C25.5287085,25.3515823 26.772688,24.3349501 26.8128608,22.9883866 C26.8971415,21.8025184 26.3918742,20.6891123 25.7471629,19.7226991 C24.8619079,18.3217095 23.6830774,16.9314072 23.6080294,15.1968414 C23.5655681,13.9724073 24.3252104,12.9144735 25.2081119,12.1425765 C26.2573485,11.1523194 27.6464082,10.2502311 27.9404522,8.73461979 C28.2565882,7.30577575 27.4409456,5.8235468 26.2094163,5.10970716 C25.5709477,4.72660329 24.8163266,4.54825097 24.0683491,4.57566972 L24.0683491,4.57566972 Z M23.4881124,6.09325548 C23.8732379,6.04691019 24.2892302,6.43963874 24.1592517,6.83283802 C24.1507746,7.40401572 23.2996664,7.6184081 22.9968473,7.14403931 C22.6601225,6.77081027 22.9639843,6.06893826 23.4881124,6.09325548 L23.4881124,6.09325548 Z" id="path4247" fill="#FFE500"></path>
                    <path d="M0.593272265,25.0187404 C0.17397304,24.9770326 -0.211217396,25.5589352 0.132952577,25.8582146 C0.649565037,26.015865 1.20835713,25.7894619 1.73633648,25.7660082 C1.8328345,25.7414489 2.27836667,25.7470709 2.08834708,25.5643043 C1.62294926,25.3371454 1.12726141,25.0160666 0.593272265,25.0187404 L0.593272265,25.0187404 Z" id="path4251" fill="#FFE500"></path>
                    <path d="M6.24435936,23.4047244 C6.10950858,23.5589854 6.11141525,23.8242745 5.97829239,24.004039 C5.7499038,24.5765698 5.23023363,24.9295461 4.87500552,25.4025565 C5.00513566,25.5751254 5.31906435,25.3907207 5.50301456,25.4341124 C6.30299213,25.3547129 7.11390868,25.3101887 7.90770041,25.2104585 C7.89126081,24.9518513 7.55664043,24.8018108 7.41450152,24.5976617 C6.9964075,24.2367231 6.71063197,23.7643584 6.30238276,23.4085656 C6.2839119,23.4007379 6.26358584,23.402029 6.24435936,23.404719 L6.24435936,23.4047244 Z" id="path4253" fill="#FFE500"></path>
                    <path d="M23.670062,6.19020073 C22.8896978,6.21251588 22.7630869,7.5255971 23.5640227,7.62323225 C24.2224766,7.81872316 24.7354833,6.97804013 24.285082,6.48104861 C24.1524681,6.28462861 23.9069081,6.16517467 23.670062,6.19020073 L23.670062,6.19020073 Z" id="path4255" fill="#333333"></path>
                    <path d="M6.31326378,23.1336423 C6.19590344,24.0526047 5.62168196,24.9028736 4.81013708,25.3593649 C3.99859491,25.815859 2.96909395,25.8676864 2.11523674,25.495033 C1.87493688,25.3901569 1.64920246,25.2544189 1.40826344,25.1510061 C1.16732171,25.0475934 0.903559533,24.9764843 0.643421114,25.0111929 C0.51335055,25.0285431 0.386031656,25.072836 0.2780882,25.1469712 C0.170144745,25.2211065 0.0822836034,25.3257996 0.035987301,25.447765 C-0.0103090014,25.5697331 -0.0133721298,25.7088443 0.0351748001,25.8299597 C0.0836838134,25.9510778 0.185116428,26.051892 0.309721569,26.0928036 C0.437985673,26.1349149 0.577459581,26.1133549 0.71095619,26.0928036 C1.24378075,26.0107411 1.77983365,25.9511746 2.31589467,25.8935476 C4.45279376,25.6638333 6.59300514,25.4645477 8.73565673,25.295777" id="path3375" stroke="#FFFFFF"></path>
                    <path d="M13.371787,9.95470191 C11.5666998,9.95254994 9.80686072,10.6651899 8.39978246,11.7572915 C7.31944062,12.6528754 6.38711206,13.7431532 5.84613811,15.0510944 C4.5669475,17.8928875 5.07912912,21.4117405 7.0646322,23.8146642 C7.50658395,24.3609624 8.03278121,24.8824781 8.65641088,25.2189085 C8.77662851,25.2446783 8.77640101,25.4433022 8.92525118,25.4744008 C10.3520353,26.4120907 12.0708106,26.9879059 13.7931582,26.9094532 C15.4383615,26.8076867 16.8534808,25.8496661 18.4178998,25.4455859 C19.2659016,25.0642924 19.872049,24.3110045 20.4641942,23.6225635 C22.6717755,20.8918952 22.8534859,16.7604258 20.9065197,13.8448686 C19.4437473,11.6214835 16.9216198,10.0273738 14.2092615,9.96622569 C13.9302271,9.95549275 13.6510165,9.94960175 13.371787,9.95471267 L13.371787,9.95470191 Z M14.3407811,12.2656559 C16.9157617,12.2856692 19.2873517,14.1209579 19.9515441,16.5900653 C20.1356839,17.3186594 20.2753474,18.1209583 20.0909097,18.8585019 C19.9397168,18.9739657 19.9839683,18.6130109 19.9651941,18.5300122 C19.9813358,17.4893319 19.8504663,16.432614 19.3211327,15.5159757 C18.3676385,13.6543308 16.3167345,12.3961942 14.1976915,12.4586335 C11.7423842,12.4219856 9.39394775,14.0259217 8.42389478,16.2477278 C7.88332167,17.3030523 7.90099356,18.5403094 8.01969182,19.693118 C8.38068869,21.3707132 9.59685903,22.9943156 11.3506341,23.36323 C12.6711594,23.5401539 14.0842014,23.3909823 15.2420802,22.6908829 C16.1835223,22.1424165 16.9580524,21.1991692 17.0794915,20.0975424 C17.1306086,19.3508584 17.0883748,18.5463295 16.5553444,17.9633187 C15.7471389,16.8587007 13.8961399,16.7867847 13.0120414,17.8365356 C12.9481789,17.965008 12.7880756,17.9507351 12.826366,17.8077207 C13.2948134,17.1593681 14.1711796,16.8377271 14.9671109,16.9092047 C16.4363103,17.0251822 17.4536156,18.5058618 17.3096513,19.9188915 C17.1508155,21.5735468 15.7461747,22.8689824 14.210502,23.3480909 C13.3050374,23.6291808 12.3134017,23.6668698 11.3719108,23.5649338 C9.56272045,23.1826235 8.23883686,21.554015 7.87502604,19.8036322 C7.34067668,17.5009955 8.39951705,15.0105245 10.2758525,13.6322705 C11.4289105,12.7559627 12.8776213,12.2311653 14.3407811,12.2656559 L14.3407811,12.2656559 Z" id="path4249" fill="#FF9C00"></path>
                    <path d="M12.8409817,17.9689674 C13.1510862,17.5494872 13.6042531,17.2363276 14.1080606,17.093359 C14.6118653,16.9503904 15.1632041,16.9784951 15.6496267,17.1719408 C16.3835236,17.463804 16.9427978,18.1269164 17.1603259,18.8817833 C17.3778541,19.6366501 17.266704,20.4684122 16.911679,21.169956 C16.5566513,21.8714999 15.9691021,22.4447219 15.2859053,22.8397612 C14.6027084,23.2348031 13.8268242,23.457233 13.041599,23.5481402 C12.3012102,23.6338584 11.5350733,23.6026011 10.8348085,23.3488842 C10.0175897,23.0527924 9.32680684,22.4631159 8.82863274,21.7548337 C8.00142826,20.5787516 7.69320874,19.068305 7.93337047,17.6536397 C8.1735322,16.2389718 8.94667558,14.9301321 10.0323366,13.9838424 C10.8137702,13.3027235 11.7566802,12.8022325 12.7658199,12.5538041 C13.7749596,12.3053756 14.8488854,12.3113016 15.850244,12.5890506 C17.1954097,12.9621613 18.3944715,13.8326426 19.1607438,14.9923751 C19.9270188,16.1521049 20.2538907,17.5910767 20.063213,18.9652473" id="path3371" stroke="#FFFFFF"></path>
                    <path d="M22.0518662,4.3420301 L22.0518662,-0.126693829" id="Path-1206" stroke="#FFFFFF" stroke-width="0.5"></path>
                    <path d="M24.8746901,4.07658503 L27.3354036,0.615734809" id="Path-1207" stroke="#FFFFFF" stroke-width="0.5"></path>
                </g>
            </g>
        </g>
    </g>
</svg>