<?xml version="1.0" encoding="UTF-8" standalone="no"?>
<svg width="52px" height="57px" viewBox="0 0 52 57" version="1.1" xmlns="http://www.w3.org/2000/svg" xmlns:xlink="http://www.w3.org/1999/xlink" xmlns:sketch="http://www.bohemiancoding.com/sketch/ns">
    <!-- Generator: Sketch 3.0.4 (8053) - http://www.bohemiancoding.com/sketch -->
    <title>snail-mom</title>
    <desc>Created with Sketch.</desc>
    <defs></defs>
    <g id="Page-1" stroke="none" stroke-width="1" fill="none" fill-rule="evenodd" sketch:type="MSPage">
        <g id="Desktop-HD-5" sketch:type="MSArtboardGroup" transform="translate(-786.000000, -516.000000)">
            <g id="snails" sketch:type="MSLayerGroup" transform="translate(751.000000, 517.000000)">
                <g id="snail-mom" transform="translate(35.866112, 0.000000)" sketch:type="MSShapeGroup">
                    <path d="M23.719484,28.3980097 C19.220962,28.4674007 14.8816307,31.0082457 12.4882601,34.7890819 C9.89948402,38.7563371 9.71362782,44.2766747 12.3729506,48.2602042 C14.2262871,51.1206213 17.4314074,53.1652736 20.8626685,53.3223274 C22.7202841,53.3835787 24.6275692,53.158225 26.2761401,52.247684 C29.2201252,50.8392816 31.3492821,47.6893353 31.1483471,44.3713662 C30.9923694,41.37812 28.5923736,38.4634355 25.501188,38.2919806 C23.6517768,38.0816607 21.6170674,38.9163249 20.747359,40.6208967 C20.091029,41.8930329 20.6019667,43.7379707 22.0503649,44.1782223 C23.2529556,44.6100552 24.2458641,43.5073068 25.1810431,42.9559301 C25.8674308,42.5425383 26.9846203,42.5835103 27.2854523,43.4229367 C27.5722965,44.0366806 27.018449,44.972562 26.2851365,44.8066613 C25.5951273,44.9560237 25.2337911,44.2214907 25.1752746,43.6535608 C25.0394267,43.2164675 24.6019946,43.8063405 24.3853982,43.8957119 C23.3762952,44.8274387 21.6309655,44.8123301 20.7761864,43.6910359 C19.9766261,42.7453611 19.9827981,41.3032346 20.5570992,40.2576726 C21.5240446,38.6544923 23.4418704,37.812087 25.2876102,37.9585353 C26.997562,37.9897189 28.6247876,38.8118798 29.7260765,40.1268709 C30.6954528,41.1714615 31.2565183,42.6042977 31.4279733,44.0312011 C31.6078369,45.7828721 31.1783003,47.5531088 30.2833312,49.0695181 C30.2201621,49.2278769 29.9214422,49.6568854 30.2748629,49.6151014 C32.9292939,47.775673 35.5846116,45.9043536 38.1534372,43.9620144 C38.5004368,43.3272938 38.3220129,42.5287049 38.3563896,41.8288873 C38.2090446,38.7298161 37.0659069,35.6735103 35.0198797,33.3304071 C33.0907263,30.9714481 30.3104201,29.3812891 27.366161,28.6718674 C26.1707983,28.3981641 24.9400327,28.3828513 23.7194741,28.3980097 L23.719484,28.3980097 Z" id="path4235" fill="#FFB000"></path>
                    <path d="M27.2139326,42.9688131 C27.0671256,42.7807402 26.8447906,42.6534055 26.6082934,42.621943 C26.3717913,42.5904605 26.1238967,42.6552686 25.9330292,42.7984192 C25.7421617,42.9415698 25.610558,43.1614042 25.5745424,43.3972587 C25.5385269,43.6331083 25.598503,43.8822034 25.7379624,44.0757958 C25.8808739,44.2742001 26.1056249,44.4117068 26.3473426,44.448619 C26.5890553,44.4855312 26.8446063,44.4213707 27.0402161,44.2746634 C27.2358309,44.1279511 27.3689788,43.9005898 27.4012234,43.6582046 C27.4334531,43.4158244 27.364361,43.1615586 27.2139326,42.9688131 C27.1052284,42.829553 26.9567477,42.7231402 26.7930687,42.6566534 C26.6293897,42.5901666 26.4509259,42.5629034 26.2743501,42.5685174 C25.9211934,42.5797256 25.5827717,42.719977 25.2821689,42.9056738 C24.981566,43.0913656 24.7122115,43.3225426 24.4323861,43.5382823 C24.1525607,43.7540169 23.8568695,43.9572881 23.5240021,44.0757958 C23.161306,44.2049237 22.7626193,44.2277286 22.3857661,44.1489527 C22.0089179,44.0701767 21.6545956,43.8909209 21.3623316,43.6403164 C20.7777986,43.1391074 20.460538,42.359667 20.4662317,41.5896963 C20.4719105,40.8197256 20.7847029,40.0667714 21.2779864,39.4755385 C21.771275,38.8843056 22.4368405,38.4496232 23.1550095,38.1719099 C24.8663461,37.5101453 26.8810403,37.75935 28.4310989,38.74114 C29.9811625,39.72293 31.053913,41.394495 31.3947307,43.1973948 C31.7355484,45.0002946 31.3633479,46.9120032 30.454381,48.5058683 C29.5454242,50.0997334 28.118715,51.3763727 26.4759475,52.1936369 C23.8755199,53.4873276 20.7365725,53.6145476 18.0122923,52.607497 C15.288012,51.6004413 13.004845,49.4896658 11.7170125,46.886329 C10.42918,44.2829923 10.1330405,41.2178046 10.8221879,38.3962923 C11.5113303,35.574775 13.1673783,33.0113742 15.4061609,31.1610415 C17.5769275,29.3669239 20.2900942,28.2380231 23.0928267,27.9627606 C25.8955591,27.6874932 28.7765145,28.266975 31.2548479,29.604492 C33.7331813,30.9420041 35.7988601,33.0321367 37.1071264,35.526032 C38.4153876,38.0199323 38.9609361,40.907503 38.6527117,43.7068032 L29.4278879,50.3486741" id="path3347" stroke="#FFFFFF"></path>
                    <path d="M14.5057718,50.6253302 C13.7969677,52.3206516 12.3530977,53.6934569 10.6241867,54.3158685 C8.8952757,54.938275 6.90770031,54.8007933 5.28095295,53.9462682 C4.69050209,53.636106 4.14967101,53.2387195 3.56305584,52.9213691 C2.97643569,52.6040138 2.32169484,52.3645577 1.65634359,52.410815 C1.32366548,52.4339288 0.993552784,52.5303837 0.712551759,52.7099583 C0.431550734,52.889528 0.201828287,53.154459 0.0848051335,53.4667333 C-0.0322180198,53.7790026 -0.031346274,54.1380074 0.107520338,54.4412056 C0.17694119,54.5928097 0.27965775,54.7294048 0.40791397,54.835952 C0.536165209,54.9424993 0.689941164,55.018655 0.853052272,55.0532459 C1.03391212,55.0916027 1.22116312,55.080544 1.40575404,55.0701328 C1.59033998,55.0596719 1.7751451,55.0532459 1.96002993,55.0532459 L6.38794555,55.0532459 L15.6127693,55.0532459 C19.7973433,55.0532459 24.0016188,55.5336724 28.1585261,55.0532459 C32.0212665,54.6068174 35.7154611,53.0659146 39.5973052,52.8392856 C41.0217926,52.756121 42.4567011,52.8515398 43.8731734,52.6792579 C44.5814096,52.5931145 45.2848486,52.4391044 45.9453829,52.1694511 C46.6059171,51.8997927 47.2237059,51.5115271 47.7151513,50.9943228 C48.6085314,50.0541176 49.0335498,48.7234101 48.9979327,47.4269348 C48.9623157,46.1304596 48.493451,44.8699799 47.7987443,43.7747634 C46.4093409,41.5843203 44.1996347,40.0766335 42.1802581,38.448566 C39.928992,36.6335465 37.7769506,34.4847928 36.8851198,31.7339516 C36.4392044,30.3585311 36.3341814,28.8552478 36.7143921,27.4602354 C37.0946028,26.065223 37.9819752,24.7908303 39.2283127,24.0578415 C40.5520711,23.2793177 42.1429772,23.154409 43.6401882,22.8126598 C44.3887936,22.6417827 45.1316804,22.4095994 45.792922,22.0192565 C46.4541586,21.6289087 47.0328135,21.0689241 47.3461588,20.367911 C47.5517961,19.9078584 47.6382135,19.3988635 47.6275533,18.8950542 C47.6168931,18.3912449 47.5110034,17.892163 47.3461588,17.4159656 C46.8595353,16.0102083 45.8490425,14.8031243 44.5816686,14.024202 C43.3142997,13.2452797 41.8017909,12.8896772 40.3158728,12.9604679 C38.8299597,13.0312587 37.3739948,13.5205123 36.1124541,14.3088445 C34.8509085,15.0971766 33.7819987,16.1791377 32.9554343,17.4159656 C31.1949163,20.0503216 30.564674,23.4138107 31.2520131,26.5068394 C31.9393523,29.5998632 33.9348182,32.3798655 36.6453648,34.0206504" id="path3351" stroke="#FFFFFF"></path>
                    <path d="M38.6010591,12.9709545 C37.5976348,11.9734233 36.8818369,10.6897901 36.560616,9.31183896 C36.2393951,7.93388784 36.3137874,6.46604728 36.7726744,5.12763357 C37.2315564,3.78921488 38.0734636,2.58452698 39.1726005,1.69355298 C40.2717374,0.802583959 41.6245723,0.228193156 43.0289747,0.0562051864 C43.6409153,-0.0187350621 44.2619968,-0.0187350621 44.8739375,0.0562051864" id="path3379" stroke="#FFFFFF"></path>
                    <path d="M40.3639009,12.5727252 C39.3414726,11.85485 38.6244343,10.7159665 38.419056,9.48368158 C38.2136727,8.25140168 38.5225795,6.94152145 39.2569182,5.93085427 C39.7893058,5.19812952 40.5371192,4.62394296 41.3824636,4.29880669 C42.2278079,3.9736754 43.1676495,3.89876504 44.0538264,4.0858915" id="path3435" stroke="#FFFFFF"></path>
                    <path d="M37.8828336,15.5956677 C38.0639625,15.4869884 38.2776348,15.4333636 38.4886172,15.4436302 C38.6995996,15.4538919 38.9070552,15.5280202 39.0767716,15.6537758 C39.2464931,15.7795263 39.3778079,15.956411 39.4490569,16.1552637 C39.5203109,16.3541114 39.5312202,16.57414 39.4799914,16.7790651 C39.4287577,16.9839901 39.3155901,17.1729995 39.1591442,17.3149247 C39.0026982,17.4568499 38.8035914,17.5511329 38.5946614,17.5822219 C38.3857313,17.6133058 38.1677998,17.5812256 37.9768078,17.4908629 C37.7858158,17.4006347 37.6225204,17.2527667 37.5138411,17.0716379 C37.368937,16.8301344 37.3243484,16.5304631 37.3926535,16.2572331 C37.4609635,15.983998 37.6413301,15.7405717 37.8828336,15.5956677 C38.0451278,15.4982912 38.2334996,15.4448357 38.4227531,15.4424447 C38.6120066,15.439954 38.8016586,15.4887219 38.9663638,15.5819987 C39.131064,15.6752506 39.2703889,15.812832 39.365713,15.9763416 C39.4610372,16.1398512 39.5121115,16.3288806 39.5121115,16.5181491 C39.5121115,16.7074175 39.4610372,16.8964469 39.365713,17.0599565 C39.2703889,17.2234661 39.131064,17.3610475 38.9663638,17.4542994 C38.8016586,17.5475513 38.6120066,17.5962395 38.4227531,17.5938535 C38.2334996,17.5913628 38.0451278,17.5380069 37.8828336,17.4406304 C37.724415,17.3455803 37.5911923,17.2089553 37.5001721,17.0481904 C37.4091469,16.8874255 37.3605334,16.7028944 37.3605334,16.5181491 C37.3605334,16.3334037 37.4091519,16.1488726 37.5001721,15.9881077 C37.5911923,15.8273428 37.724415,15.6907179 37.8828336,15.5956677" id="path3439" stroke="#FFFFFF"></path>
                    <path d="M40.3719985,12.9561977 C36.7376007,13.0470684 33.6309976,15.747707 32.2018177,18.9585908 C31.1262578,21.3034076 30.9052727,24.0141683 31.4902241,26.5195707 C32.2409965,29.4246909 34.1009931,32.0203961 36.6301817,33.6284483 C36.5820613,33.770234 36.4827271,33.9855203 36.2986642,33.8619516 C36.0068685,34.0630409 36.5080974,34.4143396 36.5768956,34.6486399 C38.2707873,37.374046 38.9755913,40.6800597 38.6538772,43.8651198 C35.5590452,46.052868 32.5358508,48.372708 29.3627509,50.4233929 C28.5036579,50.8157034 27.8897447,51.6113283 27.0248334,52.0290888 C23.6524275,54.0838135 19.1447048,53.9571862 15.8137891,51.8388241 C15.3438534,51.6278765 14.9761211,51.1300599 14.4761924,51.0374207 C14.0318262,51.5434118 13.6913372,52.1791237 13.1616545,52.6287005 C12.4569751,53.4636536 11.4221332,53.8804925 10.5037515,54.4246562 C10.2977804,54.7393165 10.8931578,54.6700053 11.0600249,54.691241 C15.0590316,54.7729858 19.0603547,54.738116 23.0581609,54.8887836 C26.0557659,54.9565805 29.0625865,54.7063795 31.9718064,53.9481201 C34.8891559,53.2605468 37.8197261,52.4530262 40.8361209,52.4442042 C43.0107879,52.3431016 45.4880204,52.4944167 47.2473728,50.9768817 C48.9649411,49.5299929 49.1689595,46.9362752 48.3168753,44.9634498 C47.1906495,42.1985163 44.6091612,40.4612764 42.3985783,38.6040892 C39.9567237,36.5905807 37.4271815,34.3002903 36.6272974,31.1089187 C35.9810001,28.7747571 36.4545124,25.9943961 38.3425394,24.3517332 C39.9802758,22.8379442 42.3911958,22.8445943 44.4280373,22.1954327 C45.8923959,21.8348836 47.3156927,20.7193927 47.4232213,19.11953 C47.5525286,17.117384 46.3242338,15.1972767 44.7047842,14.1064139 C43.4309943,13.2732392 41.8852695,12.9058157 40.3719985,12.9561977 L40.3719985,12.9561977 Z M38.2474046,15.0807866 C39.2013485,14.9744286 39.8698131,16.172556 39.3342076,16.945934 C38.9034456,17.6879391 37.7484621,17.7067041 37.29898,16.9689979 C36.8079829,16.2923488 37.2489667,15.1849926 38.1263315,15.0923235 C38.1293204,15.118725 38.2511058,15.042908 38.2474046,15.0807667 L38.2474046,15.0807866 Z" id="path4237" fill="#FFCE00"></path>
                    <path d="M1.4100559,52.821543 C0.457466904,52.7700892 -0.45877776,54.0075212 0.254071179,54.8308027 C0.659776683,55.4769969 1.49467999,55.0777067 2.11344515,55.1872834 C3.56397533,55.1730798 5.05220478,55.2206798 6.48082674,55.1401416 C6.71581951,54.8614041 6.08497943,54.8197249 5.91580596,54.7100056 C4.47980653,54.2159481 3.31607573,52.9700449 1.77616422,52.8244856 C1.65429416,52.8154238 1.53207042,52.8177656 1.4100559,52.821431 L1.4100559,52.821543 Z" id="path4239" fill-opacity="0.94117647" fill="#FFCE00"></path>
                    <path d="M26.2042185,42.8430436 C25.6120989,42.7879891 25.1515133,43.5118868 25.5613683,43.9875013 C25.979866,44.626207 27.0837951,44.1217851 26.8672534,43.3850054 C26.8088664,43.0706987 26.5294694,42.8218228 26.2042185,42.8430436 L26.2042185,42.8430436 Z" id="path4241" fill="#FFFFFF"></path>
                    <path d="M37.7846487,17.065605 C38.4793255,17.5786299 39.4814197,16.6169598 39.0040567,15.8923248 C38.8404375,15.5927183 38.4992362,15.4162769 38.162294,15.4454978 C37.3461855,15.4599937 37.0394505,16.6942413 37.7846487,17.065605 Z" id="path4243" fill="#333333"></path>
                    <path d="M26.1726446,42.843587 C25.5075175,42.8914583 25.0883124,43.8508818 25.7085172,44.256139 C26.2894187,44.7740556 27.3483009,44.0473982 26.9538683,43.3250099 C26.8289745,43.0197943 26.5037834,42.8100971 26.1726446,42.843587 L26.1726446,42.843587 Z" id="path4245" fill="#FF6400"></path>
                </g>
            </g>
        </g>
    </g>
</svg>