<?xml version="1.0" encoding="UTF-8" standalone="no"?>
<svg width="37px" height="49px" viewBox="0 0 37 49" version="1.1" xmlns="http://www.w3.org/2000/svg" xmlns:xlink="http://www.w3.org/1999/xlink" xmlns:sketch="http://www.bohemiancoding.com/sketch/ns">
    <!-- Generator: Sketch 3.0.4 (8053) - http://www.bohemiancoding.com/sketch -->
    <title>squirrel</title>
    <desc>Created with Sketch.</desc>
    <defs></defs>
    <g id="Page-1" stroke="none" stroke-width="1" fill="none" fill-rule="evenodd" sketch:type="MSPage">
        <g id="Desktop-HD-5" sketch:type="MSArtboardGroup" transform="translate(-607.000000, -525.000000)">
            <g id="squirrel" sketch:type="MSLayerGroup" transform="translate(608.000000, 526.000000)">
                <path d="M15.1320984,34.7806751 C14.5988647,34.0976567 14.033821,33.4394065 13.4393987,32.8087573 C11.8433201,31.1154041 10.0430133,29.628403 8.36130389,28.0198055 C7.64009178,27.3299489 6.93475839,26.610395 6.39977001,25.7682815 C5.86478598,24.9261724 5.506,23.945827 5.54014058,22.9491511 C5.55275453,22.5809713 5.61825974,22.2113403 5.56872928,21.846281 C5.54398151,21.6637514 5.48950585,21.4832179 5.39129167,21.3273 C5.29307749,21.1713778 5.14892498,21.0411433 4.97591752,20.977229 C4.80304101,20.9133626 4.60751177,20.9187581 4.43426426,20.9816308 C4.26102111,21.0444992 4.11014262,21.1628181 3.99852885,21.3093003 C3.88691071,21.4557825 3.81368436,21.6295824 3.77529694,21.8096104 C3.73693135,21.989634 3.7326976,22.175903 3.75102929,22.3590471 C3.7877363,22.7253397 3.91289369,23.0760645 4.03070968,23.4248804 C4.14852131,23.7736963 4.26095564,24.130527 4.27062342,24.4985194 C4.28122961,24.9017006 4.16598442,25.3026939 3.97396439,25.6575286 C3.78194436,26.0123589 3.51520526,26.3230223 3.21706223,26.5951279 C2.62078492,27.1393347 1.90358831,27.5309228 1.25133825,28.0068352 C0.925217587,28.2447936 0.61345674,28.5056373 0.348851969,28.8103604 C0.0842428336,29.1150834 -0.132786851,29.465599 -0.252977231,29.8506497 C-0.373167611,30.2357004 -0.392978924,30.6566939 -0.274844312,31.042381 C-0.1567097,31.4280636 0.105333,31.7744563 0.462050121,31.9636497 C0.763104391,32.1233245 1.11624683,32.1662841 1.45565361,32.134595 C1.79506474,32.1029102 2.12380859,32.0003204 2.4435699,31.8823589 C2.76333559,31.7643973 3.07754502,31.6303101 3.40383591,31.5317735 C3.7301268,31.4332369 4.07209128,31.3705429 4.41168137,31.4002446 C4.87702245,31.4409511 5.31990722,31.6579374 5.65855453,31.9792132 C5.99720185,32.3004846 6.23377224,32.7218225 6.36182342,33.1703953 C6.61792142,34.0675366 6.44356964,35.0382763 6.10437673,35.907494 C5.87765744,36.4884847 5.57449503,37.0467601 5.15113351,37.5051173 C4.72777199,37.9634701 4.17716238,38.3180825 3.56533369,38.4428212 C3.30781717,38.4953211 3.04240929,38.5071844 2.7883627,38.5744764 C2.66134159,38.6081224 2.53717934,38.6559024 2.42642541,38.7265329 C2.31567149,38.7971677 2.21851356,38.8914855 2.15474985,39.0062262 C2.08150168,39.1380384 2.05478543,39.294026 2.07396823,39.4435503 C2.0931292,39.5930789 2.1572901,39.7357389 2.25169391,39.8533735 C2.34609772,39.9710125 2.47011593,40.0638485 2.607154,40.1270873 C2.74419643,40.1903261 2.89402304,40.2243513 3.04475313,40.2328456 C3.34620895,40.249843 3.64633354,40.165558 3.91960222,40.037337 C4.19287089,39.9091161 4.44318568,39.7377916 4.69379726,39.5696313 C5.25906348,39.1903379 5.85139512,38.8155466 6.52055398,38.6890777 C6.85512905,38.6258433 7.20530787,38.627896 7.53197848,38.7238569 C7.8586491,38.8198395 8.16048465,39.0133128 8.36130825,39.287907 C8.61242614,39.6312706 8.6907679,40.0829683 8.62242564,40.5026326 C8.55408774,40.9222968 8.34871613,41.31127 8.08231747,41.6429534 C7.54952452,42.3063247 6.79179308,42.7431431 6.1387661,43.2889494 C5.81225261,43.5618526 5.50750145,43.8672032 5.28238837,44.2281003 C5.05727528,44.5889973 4.91485992,45.0099211 4.93060334,45.4348066 C4.93845978,45.6472472 4.98598249,45.8588553 5.0762704,46.0513829 C5.16655395,46.243906 5.30004353,46.4169694 5.46789192,46.5477487 C5.63574468,46.6785236 5.83811338,46.7662124 6.0494035,46.7923012 C6.26069363,46.8184073 6.48034649,46.7818848 6.66861289,46.6826073 C6.88925217,46.5662714 7.05879406,46.3703226 7.1880368,46.1572065 C7.31727954,45.9440861 7.41063583,45.7116933 7.51496057,45.4853715 C8.15834595,44.0896025 9.24700359,42.9025825 10.5829775,42.1401474 C12.0344104,41.0605898 13.9699526,40.6577834 15.7324349,41.0685001 C17.4949173,41.4792124 19.0519582,42.6958993 19.8749024,44.3054599 C20.0710427,44.6890811 20.227233,45.0926938 20.4371046,45.4689974 C20.6469806,45.8452967 20.9189748,46.2004321 21.2889693,46.4218507 C21.4739665,46.53256 21.6817692,46.6077188 21.8964551,46.6283727 C22.1111366,46.649031 22.332627,46.6138596 22.52497,46.5164213 C22.7173086,46.4189873 22.8788457,46.2579136 22.9656331,46.0607575 C23.0524162,45.8636015 23.0611237,45.6310736 22.9782034,45.4322745 C22.9007302,45.2465894 22.7515758,45.1004036 22.5949839,44.9738563 C22.4383877,44.8473133 22.2695791,44.7339672 22.1318557,44.5871625 C21.8679755,44.3058783 21.7386106,43.9221046 21.6837595,43.5405928 C21.6289085,43.1590811 21.6412475,42.77152 21.6207989,42.3866393 C21.5143442,40.3847059 20.5357072,38.5497301 19.6459833,36.7525798 C17.2404778,31.8937079 15.3146209,26.6760134 15.1321246,21.2589141 C15.0962906,20.1946498 15.1286329,19.1223923 15.3369245,18.0780236 C15.5451593,17.0336549 15.934904,16.0144815 16.5661905,15.1562337 C17.1974726,14.2979814 18.0808459,13.6076062 19.1016589,13.2994925 C20.1224718,12.9913787 21.2798121,13.0899763 22.1850307,13.6529368 C22.6777558,13.959364 23.0841169,14.3900939 23.4184301,14.8639317 C23.7527433,15.3377739 24.0186444,15.8558223 24.2722807,16.3771873 C24.7795533,17.4199129 25.2666523,18.5171782 26.134662,19.2869963 C26.925277,19.9881757 27.990793,20.355693 29.0482126,20.3502756 C30.1056365,20.3448714 31.1490978,19.9774587 32.0123761,19.3676857 C32.8756588,18.7579128 33.5614864,17.91301 34.036085,16.9694486 C34.5106836,16.0258828 34.7782781,14.9856022 34.8802678,13.9346394 C35.1142368,11.5236847 34.4835745,9.09259045 33.4696839,6.89206286 C33.0101217,5.89464167 32.4683855,4.92873093 31.7769886,4.07503312 C29.8886592,1.74342555 26.9590509,0.390821031 23.9771231,0.0359950761 C20.9951996,-0.31882652 17.9618689,0.254145005 15.1321246,1.25800339 C14.456589,1.49765277 13.7879233,1.76262383 13.157309,2.10311536 C11.3251925,3.0923386 9.86582888,4.70694183 8.92328786,6.56155617 C7.98074685,8.41617052 7.53930243,10.5018746 7.48700475,12.5809758 C7.38240503,16.7391695 8.78766395,20.7779112 10.3361457,24.6393532 C11.7136103,28.0743364 15.1320984,34.7806751 15.1320984,34.7806751 Z" id="path4337" stroke="#FFFFFF" stroke-linejoin="round" fill="#EB8F04" sketch:type="MSShapeGroup"></path>
                <path d="M3.64062248,28.0045377 C3.57599893,28.1151598 3.55737481,28.2516702 3.5900183,28.3755242 C3.62266616,28.4993781 3.70615825,28.6090502 3.81694273,28.6735834 C3.92773157,28.7381122 4.06443793,28.7567047 4.1884736,28.7241134 C4.31250927,28.6915134 4.42234661,28.6081393 4.48697016,28.4975171 C4.55159371,28.386895 4.57021783,28.2503845 4.53757434,28.1265306 C4.50492648,28.0026767 4.42143439,27.8930046 4.31064554,27.8284714 C4.19986107,27.7639425 4.06315471,27.7453501 3.93911904,27.7779414 C3.81508337,27.8105414 3.70524603,27.8939155 3.64062248,28.0045377" id="path4347" stroke="#333333" fill="#333333" sketch:type="MSShapeGroup"></path>
                <path d="M14.3096727,40.6736412 C12.6854229,40.7621173 9.8631128,42.4124455 9.8631128,42.4124455 C9.8631128,42.4124455 13.6926554,36.141622 16.830849,37.5785698 C19.9690426,39.0155176 19.7687324,43.1267462 19.7687324,43.1267462 C19.7687324,43.1267462 15.6689791,40.5995971 14.3096727,40.6736412 Z" id="Path-1210" fill="#FFFFFF" sketch:type="MSShapeGroup"></path>
            </g>
        </g>
    </g>
</svg>