<?xml version="1.0" encoding="UTF-8" standalone="no"?>
<svg width="93px" height="171px" viewBox="0 0 93 171" version="1.1" xmlns="http://www.w3.org/2000/svg" xmlns:xlink="http://www.w3.org/1999/xlink" xmlns:sketch="http://www.bohemiancoding.com/sketch/ns">
    <!-- Generator: Sketch 3.0.4 (8053) - http://www.bohemiancoding.com/sketch -->
    <title>sunflower</title>
    <desc>Created with Sketch.</desc>
    <defs></defs>
    <g id="Page-1" stroke="none" stroke-width="1" fill="none" fill-rule="evenodd" sketch:type="MSPage">
        <g id="Desktop-HD-6" sketch:type="MSArtboardGroup" transform="translate(-546.000000, -539.000000)" stroke-opacity="0.74000001" stroke="#FFFFFF">
            <g id="sunflower" sketch:type="MSLayerGroup" transform="translate(547.000000, 540.000000)">
                <path d="M57.811864,94.2650066 C65.5895761,103.396865 73.9865779,110.437217 73.9865779,110.437217 C73.9865779,110.437217 96.7788462,95.1080685 90.0261293,85.0625583 C83.2734124,75.0170481 69.8875183,82.1912213 69.8875183,82.1912213 C69.8875183,82.1912213 50.0341518,85.1331479 57.811864,94.2650066 Z" id="Path-1164" fill="#639E1F" sketch:type="MSShapeGroup"></path>
                <path d="M23.1661633,75.4423285 C23.1661633,75.4423285 4.07284656,59.6597033 1.06484393,71.4035553 C-1.94315871,83.1474073 0.266972398,95.1052888 0.266972398,95.1052888 C0.266972398,95.1052888 22.1236477,96.5423466 25.0704908,91.3333582 C28.0173338,86.1243698 23.1661633,75.4423285 23.1661633,75.4423285 Z" id="Path-1162" fill="#639E1F" sketch:type="MSShapeGroup"></path>
                <path d="M42.6292245,169.879574 C42.6292245,169.879574 54.2331121,86.7608968 39.8658646,76.770982 C25.498617,66.7810672 9.96653254,84.8485283 9.96653254,84.8485283" id="Path-1161" sketch:type="MSShapeGroup"></path>
                <path d="M46.6607511,100.779101 C46.6607511,100.779101 54.9726035,73.6883957 63.565707,77.3018875 C72.1588105,80.9153792 73.6322324,95.1581014 73.6322324,95.1581014" id="Path-1163" sketch:type="MSShapeGroup"></path>
                <path d="M46.1343562,93.2630324 C46.1343562,93.2630324 38.2089602,24.4781787 52.2064629,24.4781812 C66.2039655,24.4781837 60.4937626,34.6821291 60.4937626,34.6821291" id="Path-1165" sketch:type="MSShapeGroup"></path>
                <path d="M44.8631521,39.429031 C44.8631521,39.429031 43.7522234,21.0606944 39.6054892,14.9633155" id="Path-1167" sketch:type="MSShapeGroup"></path>
                <path d="M64.116156,25.506079 C66.8086249,23.6034959 71.116296,21.3955938 74.1242995,21.3955938 C77.1323031,21.3955937 74.3077827,30.1096708 74.3077827,30.1096708 C74.3077827,30.1096708 83.0110645,27.720523 84.3159268,30.1096708 L78.383503,39.2711376 C78.383503,39.2711376 85.6697491,41.4798186 85.6697491,45.5484048 C83.2844763,49.3048691 76.0286271,52.0602501 76.0286271,52.0602501 C76.0286271,52.0602501 77.3637137,60.1869873 74.3077827,60.9937378 C69.6862025,62.6905114 64.1161549,56.0462107 64.1161549,56.0462107 C64.1161549,56.0462107 60.2550946,64.2741631 55.5819645,64.2741631 C51.1027872,63.0408604 51.1027869,55.0872452 51.1027869,55.0872452 C51.1027869,55.0872452 41.3771614,55.0872451 38.0915148,52.0602503 C38.0915148,49.2687336 43.1824525,44.1411415 43.1824525,44.1411415 C43.1824525,44.1411415 37.6307322,35.2820763 39.5740627,32.1156322 C41.5173931,28.9491881 44.7125626,31.4679114 51.1027872,30.1096708 C51.1027873,27.4964261 49.9600302,20.6908024 53.5926636,19.4636874 C57.2252971,18.2365725 60.7134439,23.6034957 64.116156,25.506079 Z" id="Path-1166" fill="#F6A623" sketch:type="MSShapeGroup"></path>
                <path d="M61.6644737,54.1084594 C69.9305777,54.1084594 75.3767673,51.5075308 75.3767673,43.234984 C75.3767673,34.9624373 69.9305777,30.3183112 61.6644737,30.3183112 C53.3983697,30.3183112 49.5402095,35.651358 47.4134172,41.7094603 C45.2866249,47.7675626 53.3983697,54.1084594 61.6644737,54.1084594 Z" id="Oval-72" fill="#F8E81C" sketch:type="MSShapeGroup"></path>
                <path d="M27.2249971,13.7842165 C27.2249971,13.7842165 22.419091,16.5768197 22.419091,20.0614851 C22.419091,23.5461506 26.9303732,19.3859187 26.9303732,19.3859187 C26.9303732,19.3859187 28.0578007,24.0418277 29.4979229,24.0418281 C30.938045,24.0418284 32.6727907,20.1518225 33.6100878,20.1518225 C34.5473849,20.1518225 37.6876833,23.6663389 38.9368892,21.9090807 C40.186095,20.1518225 40.0470323,17.0277207 40.0470323,17.0277207 C40.0470323,17.0277207 47.8203901,19.131403 47.8203911,18.0795619 C47.8203921,17.0277207 47.3513494,14.5344094 48.2713622,13.2728284 C49.1913749,12.0112475 53.4834592,14.5493352 53.4834577,13.272829 C53.4834562,11.9963227 53.0874827,9.34668815 51.8382774,9.34668811 C50.5890721,9.34668807 58.6649109,8.35140555 58.6649112,7.15031148 C58.6649116,5.94921742 54.3618296,4.53131361 54.3618296,4.53131361 C54.3618296,4.53131361 58.5596316,1.35222368 56.9458774,0.540758557 C55.3321233,-0.270706568 49.1913746,0.342016372 48.2713624,2.33965042 C47.3513503,4.33728447 27.2249971,13.7842165 27.2249971,13.7842165 Z" id="Path-1169" fill="#F6A623" sketch:type="MSShapeGroup"></path>
                <path d="M49.1568054,2.9398048 C45.7556664,1.57296114 32.9501305,-0.154447498 27.6932528,11.6208329 C22.4363751,23.3961134 48.0120915,10.9047863 49.1568049,9.16776813 C50.3015184,7.43074996 50.8915513,5.22259066 49.1568054,2.9398048 Z" id="Path-1168" fill="#F8E81C" sketch:type="MSShapeGroup"></path>
            </g>
        </g>
    </g>
</svg>