<?xml version="1.0" encoding="UTF-8" standalone="no"?>
<svg width="86px" height="173px" viewBox="0 0 86 173" version="1.1" xmlns="http://www.w3.org/2000/svg" xmlns:xlink="http://www.w3.org/1999/xlink" xmlns:sketch="http://www.bohemiancoding.com/sketch/ns">
    <!-- Generator: Sketch 3.0.4 (8053) - http://www.bohemiancoding.com/sketch -->
    <title>tomato1</title>
    <desc>Created with Sketch.</desc>
    <defs></defs>
    <g id="Page-1" stroke="none" stroke-width="1" fill="none" fill-rule="evenodd" sketch:type="MSPage">
        <g id="Desktop-HD-6" sketch:type="MSArtboardGroup" transform="translate(-420.000000, -537.000000)">
            <g id="tomato1" sketch:type="MSLayerGroup" transform="translate(421.000000, 538.142070)">
                <path d="M57.0718404,169.884541 C57.0718404,169.884541 55.710016,43.7520404 36.7638311,38.5125452 C17.8176463,33.2730501 18.3084357,63.5383091 18.3084357,63.5383091" id="Path-1192" stroke="#639E1F" sketch:type="MSShapeGroup"></path>
                <path d="M48.7035829,64.1636622 C48.7035829,64.1636622 42.03151,13.6592192 51.1132985,13.6592204" id="Path-1193" stroke="#639E1F" sketch:type="MSShapeGroup"></path>
                <path d="M46.1435736,31.2598085 C46.1435736,31.2598085 40.6191076,16.0306468 37.0366298,12.4178651 C34.0225797,9.37831936 27.1418381,9.8084196 27.1418381,9.8084196" id="Path-1194" stroke="#639E1F" sketch:type="MSShapeGroup"></path>
                <path d="M46.631363,40.7392341 C46.631363,40.7392341 50.6901494,27.8283634 54.6669154,27.8283634 C58.6436814,27.8283635 60.041951,30.4110814 60.041951,30.4110814" id="Path-1195" stroke="#639E1F" sketch:type="MSShapeGroup"></path>
                <path d="M52.7344087,92.0018739 C52.7344087,92.0018739 49.4543816,69.9474608 35.6818794,76.9324072 C21.9093771,83.9173535 9.18672524,96.0839667 9.18672524,96.0839667" id="Path-1196" stroke="#639E1F" sketch:type="MSShapeGroup"></path>
                <path d="M49.8230665,70.3170255 C49.8230665,70.3170255 53.0294912,52.3685446 58.8963369,54.0828303 C64.7631826,55.7971159 76.0820209,61.1955789 79.4068796,66.7479382" id="Path-1197" stroke="#639E1F" sketch:type="MSShapeGroup"></path>
                <path d="M17.9649137,72.8228808 C17.9649137,72.8228808 12.6159664,63.202939 18.0980686,63.2029391 C23.5801707,63.2029392 17.9649137,72.8228808 17.9649137,72.8228808 Z" id="Path-1198" stroke="#639E1F" fill="#B8E986" sketch:type="MSShapeGroup"></path>
                <path d="M28.7869696,58.7608281 C28.7869696,58.7608281 24.1884406,64.2199571 21.8791395,58.8634265 C19.5698384,53.506896 28.7869696,58.7608281 28.7869696,58.7608281 Z" id="Path-1199" stroke="#639E1F" fill="#B8E986" sketch:type="MSShapeGroup"></path>
                <path d="M6.76102445,60.0892031 C6.76102445,60.0892031 10.5036372,46.3421277 15.0848802,50.1711684 C19.6661232,54.000209 6.76102445,60.0892031 6.76102445,60.0892031 Z" id="Path-1200" stroke="#639E1F" fill="#B8E986" sketch:type="MSShapeGroup"></path>
                <path d="M16.1623037,12.3752275 C16.1623037,12.3752275 22.2954601,3.38158248 27.5112521,9.38158357 C32.7270441,15.3815847 16.1623037,12.3752275 16.1623037,12.3752275 Z" id="Path-1201" stroke="#639E1F" fill="#B8E986" sketch:type="MSShapeGroup"></path>
                <path d="M61.1586325,18.5030307 C61.1586325,18.5030307 54.7310632,5.77368721 51.3466533,13.3347459 C47.9622434,20.8958047 61.1586325,18.5030307 61.1586325,18.5030307 Z" id="Path-1202" stroke="#639E1F" fill="#B8E986" sketch:type="MSShapeGroup"></path>
                <path d="M28.1020853,23.3648584 C28.1020853,23.3648584 24.9545437,13.7957699 29.358024,15.1132675 C33.7615043,16.4307652 28.1020853,23.3648584 28.1020853,23.3648584 Z" id="Path-1203" stroke="#639E1F" fill="#B8E986" sketch:type="MSShapeGroup"></path>
                <path d="M24.582337,0.196570048 C24.582337,0.196570048 25.7352305,8.26950557 31.1584507,6.73387479 C36.5816708,5.198244 24.582337,0.196570048 24.582337,0.196570048 Z" id="Path-1204" stroke="#639E1F" fill="#B8E986" sketch:type="MSShapeGroup"></path>
                <path d="M59.4296258,39.8553266 C59.4296258,39.8553266 53.6363824,29.991825 59.8725834,29.9918252 C66.1087843,29.9918254 59.4296258,39.8553266 59.4296258,39.8553266 Z" id="Path-1205" stroke="#639E1F" fill="#B8E986" sketch:type="MSShapeGroup"></path>
                <path d="M10.9311217,41.2751998 C10.9311217,41.2751998 18.6454082,31.1433811 22.0585913,36.2092904 C25.4717744,41.2751998 10.9311217,41.2751998 10.9311217,41.2751998 Z" id="Path-1206" stroke="#639E1F" fill="#B8E986" sketch:type="MSShapeGroup"></path>
                <path d="M0.306830547,105.125999 C0.306830547,105.125999 2.28608794,92.4220816 9.21683565,95.300637 C16.1475834,98.1791924 0.306830547,105.125999 0.306830547,105.125999 Z" id="Path-1207" stroke="#639E1F" fill="#B8E986" sketch:type="MSShapeGroup"></path>
                <path d="M-0.0484723003,88.1617932 C-0.0484723003,88.1617932 7.75413937,80.1791888 11.4630723,84.6696547 C15.1720052,89.1601205 -0.0484723003,88.1617932 -0.0484723003,88.1617932 Z" id="Path-1208" stroke="#639E1F" fill="#B8E986" sketch:type="MSShapeGroup"></path>
                <path d="M20.4179085,103.286411 C20.4179085,103.286411 9.73406548,94.8809226 16.3690619,92.9110328 C23.0040583,90.941143 20.4179085,103.286411 20.4179085,103.286411 Z" id="Path-1209" stroke="#639E1F" fill="#B8E986" sketch:type="MSShapeGroup"></path>
                <path d="M13.7104713,75.4993618 C13.7104713,75.4993618 12.6619601,86.3223813 16.9617266,84.3009694 C21.261493,82.2795575 13.7104713,75.4993618 13.7104713,75.4993618 Z" id="Path-1215" stroke="#639E1F" fill="#B8E986" sketch:type="MSShapeGroup"></path>
                <path d="M26.2104824,92.7037814 C26.2104824,92.7037814 19.6504275,91.5013727 22.930455,87.9704248 C26.2104824,84.4394769 26.2104824,92.7037814 26.2104824,92.7037814 Z" id="Path-1210" stroke="#639E1F" fill="#B8E986" sketch:type="MSShapeGroup"></path>
                <path d="M81.3881447,77.7870839 C81.3881447,77.7870839 69.6845624,65.9021703 79.1713493,65.9021702 C88.6581362,65.90217 81.3881447,77.7870839 81.3881447,77.7870839 Z" id="Path-1211" stroke="#639E1F" fill="#B8E986" sketch:type="MSShapeGroup"></path>
                <path d="M68.7096544,73.7823992 C68.7096544,73.7823992 63.1974417,63.1132774 69.1673326,63.8553314 C75.1372235,64.5973853 68.7096544,73.7823992 68.7096544,73.7823992 Z" id="Path-1212" stroke="#639E1F" fill="#B8E986" sketch:type="MSShapeGroup"></path>
                <path d="M83.4129025,54.298287 C83.4129025,54.298287 73.9997191,47.3648628 73.999719,55.0918636 C73.9997189,62.8188644 83.4129025,54.298287 83.4129025,54.298287 Z" id="Path-1213" stroke="#639E1F" fill="#B8E986" sketch:type="MSShapeGroup"></path>
                <path d="M71.6091434,46.3386236 C71.6091434,46.3386236 61.9604295,52.9020234 67.5455761,55.2171801 C73.1307228,57.5323368 71.6091434,46.3386236 71.6091434,46.3386236 Z" id="Path-1214" stroke="#639E1F" fill="#B8E986" sketch:type="MSShapeGroup"></path>
                <ellipse id="Oval-73" stroke-opacity="0.74000001" stroke="#FFFFFF" fill="#F54C28" sketch:type="MSShapeGroup" cx="35.1565681" cy="69.4370881" rx="5.21267466" ry="5.21267466"></ellipse>
                <ellipse id="Oval-74" stroke-opacity="0.74000001" stroke="#FFFFFF" fill="#F54C28" sketch:type="MSShapeGroup" cx="48.7674288" cy="42.2153667" rx="5.21267466" ry="5.21267466"></ellipse>
                <ellipse id="Oval-74" stroke-opacity="0.74000001" stroke="#FFFFFF" fill="#F54C28" sketch:type="MSShapeGroup" cx="36.39097" cy="55.5498015" rx="6.70044487" ry="6.70044487"></ellipse>
                <ellipse id="Oval-74" stroke-opacity="0.74000001" stroke="#FFFFFF" fill="#FF7900" sketch:type="MSShapeGroup" cx="29.5855396" cy="52.977371" rx="3.97827265" ry="3.97827265"></ellipse>
                <ellipse id="Oval-75" stroke-opacity="0.74000001" stroke="#FFFFFF" fill="#FF7900" sketch:type="MSShapeGroup" cx="33.6687978" cy="25.7556497" rx="3.97827265" ry="3.97827265"></ellipse>
            </g>
        </g>
    </g>
</svg>