<?xml version="1.0" encoding="UTF-8" standalone="no"?>
<svg width="103px" height="141px" viewBox="0 0 103 141" version="1.1" xmlns="http://www.w3.org/2000/svg" xmlns:xlink="http://www.w3.org/1999/xlink" xmlns:sketch="http://www.bohemiancoding.com/sketch/ns">
    <!-- Generator: Sketch 3.0.4 (8053) - http://www.bohemiancoding.com/sketch -->
    <title>tomato2</title>
    <desc>Created with Sketch.</desc>
    <defs></defs>
    <g id="Page-1" stroke="none" stroke-width="1" fill="none" fill-rule="evenodd" sketch:type="MSPage">
        <g id="Desktop-HD-6" sketch:type="MSArtboardGroup" transform="translate(-441.000000, -571.000000)" stroke="#FFFFFF" stroke-opacity="0.74000001">
            <g id="tomato2" sketch:type="MSLayerGroup" transform="translate(442.777377, 572.169221)">
                <path d="M60.9644102,138.384437 C60.9644102,138.384437 55.5670569,22.7999477 63.9410982,19.1754407 C72.3151394,15.5509338 80.0657606,18.5222532 80.0657606,18.5222532" id="Path-1178" sketch:type="MSShapeGroup"></path>
                <path d="M59.1701952,87.7193984 C59.1701952,87.7193984 50.4224424,56.5121846 29.7091866,64.3275952 C8.99593081,72.1430058 11.7226901,81.0067143 11.7226901,81.0067143" id="Path-1179" sketch:type="MSShapeGroup"></path>
                <path d="M59.1838783,71.9846433 C59.1838783,71.9846433 63.0087771,50.0054325 78.0185856,50.0054323 C93.0283942,50.005432 96.8110345,59.4812183 96.8110345,59.4812183" id="Path-1180" sketch:type="MSShapeGroup"></path>
                <path d="M59.3607649,45.6376524 C59.3607649,45.6376524 58.1758718,24.896541 50.6695629,24.8965407 C43.1632541,24.8965404 39.0099324,31.665938 39.0099324,31.665938" id="Path-1181" sketch:type="MSShapeGroup"></path>
                <path d="M63.5086359,19.2926412 C63.5086359,19.2926412 61.0907789,7.10818223 56.7493077,7.10818267" id="Path-1182" sketch:type="MSShapeGroup"></path>
                <path d="M15.6934795,71.0947087 C15.6934795,71.0947087 -4.58731346,70.7475597 0.374769265,76.3361956 C5.33685199,81.9248314 15.6934795,71.0947087 15.6934795,71.0947087 Z" id="Path-1184" fill="#639E1F" sketch:type="MSShapeGroup"></path>
                <path d="M22.3910274,69.3932239 C22.3910274,69.3932239 35.6625625,76.2928021 29.026795,79.6980555 C22.3910274,83.103309 22.0793176,74.1094201 22.0793176,74.1094201 C22.0793176,74.1094201 23.5676614,85.7229105 19.1644099,82.7104831 C14.7611585,79.6980556 22.3910274,69.3932239 22.3910274,69.3932239 Z" id="Path-1185" fill="#639E1F" sketch:type="MSShapeGroup"></path>
                <path d="M11.2902278,79.4788038 C11.2902278,79.4788038 5.02795044,90.7017517 9.80188386,90.7017521 C14.5758173,90.7017525 11.2902278,79.4788038 11.2902278,79.4788038 Z" id="Path-1186" fill="#639E1F" sketch:type="MSShapeGroup"></path>
                <path d="M68.4679104,53.2805051 C68.4679104,53.2805051 65.7411522,37.9534376 70.8267952,37.9534384 C75.9124382,37.9534391 68.4679104,53.2805051 68.4679104,53.2805051 Z" id="Path-1186" fill="#639E1F" sketch:type="MSShapeGroup"></path>
                <path d="M81.7422538,50.0054323 C81.7422538,50.0054323 82.8257812,47.5267637 84.3613915,44.8381192 C86.5896242,40.9367873 89.7697259,36.5933472 91.9725125,38.7390904 C95.693373,42.3635955 89.4310949,47.1231855 89.4310949,47.1231855 C89.4310949,47.1231855 99.0435507,41.2719052 99.0435505,45.6386685 C99.0435502,50.0054319 81.7422538,50.0054323 81.7422538,50.0054323 Z" id="Path-1187" fill="#639E1F" sketch:type="MSShapeGroup"></path>
                <path d="M70.0208429,54.4589832 C70.0208429,54.4589832 71.0121356,66.8604093 76.1595597,66.8604096 C81.3069839,66.8604098 77.0890727,59.9174379 77.0890727,59.9174379 C77.0890727,59.9174379 84.8425026,64.4120985 84.8425024,59.4355408 C84.8425021,54.4589832 70.0208429,54.4589832 70.0208429,54.4589832 Z" id="Path-1188" fill="#639E1F" sketch:type="MSShapeGroup"></path>
                <path d="M42.9189415,27.6486067 C42.9189415,27.6486067 29.709186,28.6101172 29.7091866,33.1938486 C29.7091872,37.7775799 38.0804195,33.936107 38.0804195,33.936107 C38.0804195,33.936107 36.3421466,41.4454793 39.6305438,41.445479 C42.9189409,41.4454788 42.9189415,27.6486067 42.9189415,27.6486067 Z" id="Path-1189" fill="#639E1F" sketch:type="MSShapeGroup"></path>
                <path d="M60.9026299,10.0490871 C60.9026299,10.0490871 62.1438519,-2.30666175 55.3845244,0.39972676 C48.6251968,3.10611527 46.5780211,10.0947645 46.5780211,10.0947645 C46.5780211,10.0947645 55.5698649,9.74533206 55.5698653,5.07252941 C55.5698657,0.399726754 48.0017767,15.2037875 54.4522032,15.2037868 C60.9026298,15.203786 60.9026299,10.0490871 60.9026299,10.0490871 Z" id="Path-1190" fill="#639E1F" sketch:type="MSShapeGroup"></path>
                <path d="M75.8445149,17.4920262 C75.8445149,17.4920262 69.6240145,19.6309707 71.6736376,22.6815 C73.7232608,25.7320293 77.3723714,26.5800599 77.3723714,26.5800599 C77.3723714,26.5800599 78.7211504,21.7189416 77.2828327,20.9344632 C75.8445149,20.1499848 82.4785212,24.8078669 84.3116237,23.7446834 C86.1447263,22.6814999 75.8445149,17.4920262 75.8445149,17.4920262 Z" id="Path-1191" fill="#639E1F" sketch:type="MSShapeGroup"></path>
                <ellipse id="Oval-74" fill="#F55D2C" sketch:type="MSShapeGroup" cx="50.6896066" cy="75.0986361" rx="6.46154237" ry="6.46154237"></ellipse>
                <ellipse id="Oval-75" fill="#F55D2C" sketch:type="MSShapeGroup" cx="43.4950285" cy="81.0515795" rx="5.38461864" ry="5.38461864"></ellipse>
                <ellipse id="Oval-76" fill="#FF7900" sketch:type="MSShapeGroup" cx="46.3819117" cy="92.3294158" rx="4.30769491" ry="4.30769491"></ellipse>
                <ellipse id="Oval-77" fill="#F55D2C" sketch:type="MSShapeGroup" cx="44.5266924" cy="46.2895296" rx="7.53846609" ry="7.53846609"></ellipse>
                <ellipse id="Oval-78" fill="#F55D2C" sketch:type="MSShapeGroup" cx="44.5266924" cy="46.2895296" rx="7.53846609" ry="7.53846609"></ellipse>
                <ellipse id="Oval-78" fill="#F54B15" sketch:type="MSShapeGroup" cx="76.4307906" cy="33.0678167" rx="6.46154237" ry="6.46154237"></ellipse>
                <ellipse id="Oval-79" fill="#F55D2C" sketch:type="MSShapeGroup" cx="71.2253489" cy="71.8154618" rx="6.46154237" ry="6.46154237"></ellipse>
                <ellipse id="Oval-80" fill="#F55D2C" sketch:type="MSShapeGroup" cx="66.3185352" cy="8.95741532" rx="3.23077118" ry="3.23077118"></ellipse>
                <ellipse id="Oval-81" fill="#F55D2C" sketch:type="MSShapeGroup" cx="14.5972647" cy="81.0949768" rx="3.23077118" ry="3.23077118"></ellipse>
                <ellipse id="Oval-81" fill="#F55D2C" sketch:type="MSShapeGroup" cx="52.0651585" cy="38.7510635" rx="6.46154237" ry="6.46154237"></ellipse>
                <ellipse id="Oval-83" fill="#F55D2C" sketch:type="MSShapeGroup" cx="74.0525065" cy="83.0551816" rx="4.89048538" ry="4.89048538"></ellipse>
            </g>
        </g>
    </g>
</svg>