<?xml version="1.0" encoding="UTF-8" standalone="no"?>
<svg width="84px" height="84px" viewBox="0 0 84 84" version="1.1" xmlns="http://www.w3.org/2000/svg" xmlns:xlink="http://www.w3.org/1999/xlink" xmlns:sketch="http://www.bohemiancoding.com/sketch/ns">
    <!-- Generator: Sketch 3.0.4 (8053) - http://www.bohemiancoding.com/sketch -->
    <title>rayons + soleil</title>
    <desc>Created with Sketch.</desc>
    <defs>
        <filter x="-50%" y="-50%" width="200%" height="200%" filterUnits="objectBoundingBox" id="filter-1">
            <feOffset dx="0" dy="0" in="SourceAlpha" result="shadowOffsetOuter1"></feOffset>
            <feGaussianBlur stdDeviation="9" in="shadowOffsetOuter1" result="shadowBlurOuter1"></feGaussianBlur>
            <feColorMatrix values="0 0 0 0 1   0 0 0 0 1   0 0 0 0 1  0 0 0 0.685971467 0" in="shadowBlurOuter1" type="matrix" result="shadowMatrixOuter1"></feColorMatrix>
            <feMerge>
                <feMergeNode in="shadowMatrixOuter1"></feMergeNode>
                <feMergeNode in="SourceGraphic"></feMergeNode>
            </feMerge>
        </filter>
    </defs>
    <g id="Page-1" stroke="none" stroke-width="1" fill="none" fill-rule="evenodd" sketch:type="MSPage">
        <g id="Desktop-HD-5" sketch:type="MSArtboardGroup" transform="translate(-113.000000, -29.000000)" stroke="#FFFFFF">
            <g id="rayons-+-soleil" sketch:type="MSLayerGroup" transform="translate(84.000000, 0.000000)">
                <g id="rayons" transform="translate(71.500000, 71.500000) rotate(-45.000000) translate(-71.500000, -71.500000) translate(21.000000, 21.000000)" sketch:type="MSShapeGroup">
                    <polygon id="Star-2" transform="translate(50.500000, 50.500000) rotate(-15.000000) translate(-50.500000, -50.500000) " points="50.5 50.5 39.7590096 90.5859218 50.5 50.5 21.1550686 79.8449314 50.5 50.5 10.4140782 61.2409904 50.5 50.5 10.4140782 39.7590096 50.5 50.5 21.1550686 21.1550686 50.5 50.5 39.7590096 10.4140782 50.5 50.5 61.2409904 10.4140782 50.5 50.5 79.8449314 21.1550686 50.5 50.5 90.5859218 39.7590096 50.5 50.5 90.5859218 61.2409904 50.5 50.5 79.8449314 79.8449314 50.5 50.5 61.2409904 90.5859218 "></polygon>
                </g>
                <circle id="soleil" fill="#FBF7C5" filter="url(#filter-1)" sketch:type="MSShapeGroup" cx="71" cy="71" r="25"></circle>
            </g>
        </g>
    </g>
</svg>