<?xml version="1.0" encoding="UTF-8" standalone="no"?>
<svg width="95px" height="48px" viewBox="0 0 95 48" version="1.1" xmlns="http://www.w3.org/2000/svg" xmlns:xlink="http://www.w3.org/1999/xlink" xmlns:sketch="http://www.bohemiancoding.com/sketch/ns">
    <!-- Generator: Sketch 3.0.3 (7891) - http://www.bohemiancoding.com/sketch -->
    <title>cloud 2</title>
    <desc>Created with Sketch.</desc>
    <defs></defs>
    <g id="Page-1" stroke="none" stroke-width="1" fill="none" fill-rule="evenodd" sketch:type="MSPage">
        <g id="Desktop-HD-5" sketch:type="MSArtboardGroup" transform="translate(-135.000000, -53.000000)" stroke-opacity="0.793251812" stroke="#FFFFFF" fill="#5AD5D5">
            <path d="M201.783223,70.3470001 C198.541606,60.8878266 188.578064,54 176.789474,54 C164.074934,54 153.483405,62.0123458 151.15866,72.6214456 C142.432068,74.2004625 136,79.6321955 136,86.0901814 C136,93.7847054 145.131035,100.02235 156.394737,100.02235 C160.086949,100.02235 163.550003,99.3521077 166.537403,98.180013 L166.537403,98.180013 C169.684772,99.365904 173.150154,100.02235 176.789474,100.02235 C183.133061,100.02235 188.948178,98.0278761 193.4718,94.7115167 C197.203934,97.7690553 202.60166,99.6902408 208.605263,99.6902408 C219.868965,99.6902408 229,92.9277359 229,84.5857632 C229,76.2437906 219.868965,69.4812856 208.605263,69.4812856 C206.212663,69.4812856 203.916291,69.786416 201.783223,70.3470001 Z" id="cloud-2" sketch:type="MSShapeGroup"></path>
        </g>
    </g>
</svg>