<?xml version="1.0" encoding="UTF-8" standalone="no"?>
<svg width="117px" height="84px" viewBox="0 0 117 84" version="1.1" xmlns="http://www.w3.org/2000/svg" xmlns:xlink="http://www.w3.org/1999/xlink" xmlns:sketch="http://www.bohemiancoding.com/sketch/ns">
    <!-- Generator: Sketch 3.0.4 (8053) - http://www.bohemiancoding.com/sketch -->
    <title>rayons + soleil + cloud 2</title>
    <desc>Created with Sketch.</desc>
    <defs>
        <filter x="-50%" y="-50%" width="200%" height="200%" filterUnits="objectBoundingBox" id="filter-1">
            <feOffset dx="0" dy="0" in="SourceAlpha" result="shadowOffsetOuter1"></feOffset>
            <feGaussianBlur stdDeviation="9" in="shadowOffsetOuter1" result="shadowBlurOuter1"></feGaussianBlur>
            <feColorMatrix values="0 0 0 0 1   0 0 0 0 1   0 0 0 0 1  0 0 0 0.685971467 0" in="shadowBlurOuter1" type="matrix" result="shadowMatrixOuter1"></feColorMatrix>
            <feMerge>
                <feMergeNode in="shadowMatrixOuter1"></feMergeNode>
                <feMergeNode in="SourceGraphic"></feMergeNode>
            </feMerge>
        </filter>
    </defs>
    <g id="Page-1" stroke="none" stroke-width="1" fill="none" fill-rule="evenodd" sketch:type="MSPage">
        <g id="Desktop-HD-5" sketch:type="MSArtboardGroup" transform="translate(-113.000000, -29.000000)" stroke="#FFFFFF">
            <g id="rayons-+-soleil-+-cloud-2" sketch:type="MSLayerGroup" transform="translate(84.000000, 0.000000)">
                <g id="rayons-+-soleil" sketch:type="MSShapeGroup">
                    <g id="rayons" transform="translate(71.500000, 71.500000) rotate(-45.000000) translate(-71.500000, -71.500000) translate(21.000000, 21.000000)">
                        <polygon id="Star-2" transform="translate(50.500000, 50.500000) rotate(-15.000000) translate(-50.500000, -50.500000) " points="50.5 50.5 39.7590096 90.5859218 50.5 50.5 21.1550686 79.8449314 50.5 50.5 10.4140782 61.2409904 50.5 50.5 10.4140782 39.7590096 50.5 50.5 21.1550686 21.1550686 50.5 50.5 39.7590096 10.4140782 50.5 50.5 61.2409904 10.4140782 50.5 50.5 79.8449314 21.1550686 50.5 50.5 90.5859218 39.7590096 50.5 50.5 90.5859218 61.2409904 50.5 50.5 79.8449314 79.8449314 50.5 50.5 61.2409904 90.5859218 "></polygon>
                    </g>
                    <circle id="soleil" fill="#FBF7C5" filter="url(#filter-1)" cx="71" cy="71" r="25"></circle>
                </g>
                <path d="M117.783223,70.3470001 C114.541606,60.8878266 104.578064,54 92.7894737,54 C80.0749343,54 69.4834053,62.0123458 67.1586604,72.6214456 C58.4320685,74.2004625 52,79.6321955 52,86.0901814 C52,93.7847054 61.1310347,100.02235 72.3947368,100.02235 C76.0869489,100.02235 79.5500034,99.3521077 82.5374026,98.180013 L82.5374026,98.180013 C85.6847718,99.365904 89.1501544,100.02235 92.7894737,100.02235 C99.133061,100.02235 104.948178,98.0278761 109.4718,94.7115167 C113.203934,97.7690553 118.60166,99.6902408 124.605263,99.6902408 C135.868965,99.6902408 145,92.9277359 145,84.5857632 C145,76.2437906 135.868965,69.4812856 124.605263,69.4812856 C122.212663,69.4812856 119.916291,69.786416 117.783223,70.3470001 Z" id="cloud-2" stroke-opacity="0.793251812" fill="#5AD5D5" sketch:type="MSShapeGroup"></path>
            </g>
        </g>
    </g>
</svg>