<?xml version="1.0" encoding="UTF-8" standalone="no"?>
<svg width="95px" height="99px" viewBox="0 0 95 99" version="1.1" xmlns="http://www.w3.org/2000/svg" xmlns:xlink="http://www.w3.org/1999/xlink" xmlns:sketch="http://www.bohemiancoding.com/sketch/ns">
    <!-- Generator: Sketch 3.0.3 (7891) - http://www.bohemiancoding.com/sketch -->
    <title>sleet + cloud 2 + rain</title>
    <desc>Created with Sketch.</desc>
    <defs></defs>
    <g id="Page-1" stroke="none" stroke-width="1" fill="none" fill-rule="evenodd" sketch:type="MSPage">
        <g id="Desktop-HD-5" sketch:type="MSArtboardGroup" transform="translate(-135.000000, -53.000000)" stroke="#FFFFFF">
            <g id="sleet-+-cloud-2-+-rain" sketch:type="MSLayerGroup" transform="translate(136.000000, 54.000000)">
                <path d="M65.7832229,16.3470001 C62.5416057,6.88782663 52.5780644,0 40.7894737,0 C28.0749343,0 17.4834053,8.01234583 15.1586604,18.6214456 C6.43206846,20.2004625 0,25.6321955 0,32.0901814 C0,39.7847054 9.13103471,46.0223496 20.3947368,46.0223496 C24.0869489,46.0223496 27.5500034,45.3521077 30.5374026,44.180013 L30.5374026,44.180013 C33.6847718,45.365904 37.1501544,46.0223496 40.7894737,46.0223496 C47.133061,46.0223496 52.9481778,44.0278761 57.4718005,40.7115167 C61.2039335,43.7690553 66.6016596,45.6902408 72.6052632,45.6902408 C83.8689653,45.6902408 93,38.9277359 93,30.5857632 C93,22.2437906 83.8689653,15.4812856 72.6052632,15.4812856 C70.2126634,15.4812856 67.9162915,15.786416 65.7832229,16.3470001 Z" id="cloud-2" stroke-opacity="0.793251812" fill="#5AD5D5" sketch:type="MSShapeGroup"></path>
                <g id="rain" transform="translate(19.000000, 55.000000)" stroke-opacity="0.846212636" fill="#8BEEFA" sketch:type="MSShapeGroup" fill-opacity="0.492895154">
                    <path d="M6.03571429,31 C9.36914724,31 12.0714286,28.2163791 12.0714286,24.7826087 C12.0714286,21.3488383 6.03571429,9 6.03571429,9 C6.03571429,9 0,21.3488383 0,24.7826087 C0,28.2163791 2.70228133,31 6.03571429,31 Z" id="Oval-14"></path>
                    <path d="M26.4642857,42 C29.7977187,42 32.5,39.2163791 32.5,35.7826087 C32.5,32.3488383 26.4642857,20 26.4642857,20 C26.4642857,20 20.4285714,32.3488383 20.4285714,35.7826087 C20.4285714,39.2163791 23.1308528,42 26.4642857,42 Z" id="Oval-15"></path>
                    <path d="M45.9642857,22 C49.2977187,22 52,19.2163791 52,15.7826087 C52,12.3488383 45.9642857,0 45.9642857,0 C45.9642857,0 39.9285714,12.3488383 39.9285714,15.7826087 C39.9285714,19.2163791 42.6308528,22 45.9642857,22 Z" id="Oval-16"></path>
                </g>
            </g>
        </g>
    </g>
</svg>