<?xml version="1.0" encoding="UTF-8" standalone="no"?>
<svg width="95px" height="108px" viewBox="0 0 95 108" version="1.1" xmlns="http://www.w3.org/2000/svg" xmlns:xlink="http://www.w3.org/1999/xlink" xmlns:sketch="http://www.bohemiancoding.com/sketch/ns">
    <!-- Generator: Sketch 3.0.3 (7891) - http://www.bohemiancoding.com/sketch -->
    <title>sleet + cloud 2</title>
    <desc>Created with Sketch.</desc>
    <defs></defs>
    <g id="Page-1" stroke="none" stroke-width="1" fill="none" fill-rule="evenodd" sketch:type="MSPage">
        <g id="Desktop-HD-5" sketch:type="MSArtboardGroup" transform="translate(-135.000000, -53.000000)" stroke="#FFFFFF">
            <g id="sleet-+-cloud-2" sketch:type="MSLayerGroup" transform="translate(136.000000, 54.000000)">
                <g id="sleet" transform="translate(16.000000, 54.000000)" sketch:type="MSShapeGroup">
                    <path d="M29.271118,20.2806323 L28.4894702,21.6344859 L28.4894702,21.6344859 L26.6275912,21.8222018 L26.6665561,22.0695865 L28.3354066,21.9013319 L27.4388013,23.4542979 L27.3757456,23.5635136 L27.6005251,23.6932901 L27.6635808,23.5840744 L28.6136172,21.938563 L29.3774185,23.6347037 L29.6111424,23.5447559 L28.7793908,21.6977208 L28.7676808,21.671717 L29.5176666,20.3727037 L30.6698343,22.653126 L30.8985573,22.5527056 L29.6667033,20.1145645 L32.6660002,14.9196299 L32.7290559,14.8104142 L32.5042764,14.6806377 L32.4412207,14.7898534 L29.4201547,20.0224932 L26.7721349,20.1703145 L26.7995298,20.4186046 L29.271118,20.2806323 Z M35.6932232,20.3642594 L36.4425847,21.6621917 L36.4425847,21.6621917 L36.4212795,21.7095033 L35.5895279,23.5565385 L35.8232518,23.6464863 L36.5966484,21.9290377 L37.5581641,23.5944318 L37.6194067,23.7005071 L37.8441862,23.5707306 L37.7829435,23.4646553 L36.8885145,21.9154587 L38.5341142,22.0813691 L38.5730791,21.8339844 L36.7344509,21.6486127 L35.952179,20.293678 L38.4011405,20.4303872 L38.4285354,20.182097 L35.8031423,20.0355389 L32.9243613,15.0493441 L32.8631187,14.9432687 L32.6383392,15.0730452 L32.6995819,15.1791206 L35.5441865,20.1061203 L34.302113,22.5644881 L34.530836,22.6649085 L35.6932232,20.3642594 L35.6932232,20.3642594 Z M39.0243586,14.7265251 L40.509824,14.752454 L40.509824,14.752454 L41.5719025,16.2273863 L41.7666616,16.0699493 L40.8218734,14.7579008 L42.3065624,14.7838162 L42.429029,14.7859538 L42.4335589,14.5264404 L42.3110922,14.5243027 L40.6465436,14.4952479 L41.7666616,12.939715 L41.5719025,12.7822781 L40.388199,14.4261137 L40.3422412,14.4899363 L38.9054677,14.4648573 L40.341272,12.2703108 L40.1399439,12.1224411 L38.629613,14.4308973 L38.6107599,14.4597132 L32.5954078,14.3547148 L32.4729412,14.3525772 L32.4684114,14.6120906 L32.590878,14.6142283 L38.7228418,14.7212621 L40.1399439,16.8872233 L40.341272,16.7393535 L39.0243586,14.7265251 L39.0243586,14.7265251 Z M38.8309411,14.4635565 L38.8525556,14.4639337 L38.8309411,14.4308973 L38.8309411,14.4635565 L38.8309411,14.4635565 Z M35.7166596,8.96824591 L32.793791,14.2412404 L32.7344089,14.3483685 L32.5790848,14.2622709 L32.5790848,14.2622709 L32.5042764,14.3054615 L32.4412207,14.1962458 L29.412484,8.95031999 L29.412484,8.95031999 L29.5457436,8.95775898 L29.6339593,8.96268348 L29.6738007,8.88382776 L32.6292198,14.0027638 L35.5152134,8.79629348 L34.3213744,6.43339366 L34.5500974,6.33297325 L35.6614139,8.5325408 L36.4004336,7.19931384 L35.6087893,5.44134333 L35.8425132,5.35139551 L36.5517412,6.92634771 L37.2777556,5.61658316 L37.3371376,5.50945513 L37.5641478,5.63528892 L37.5047658,5.74241694 L36.7533585,7.09799158 L38.5533757,6.91651267 L38.5923405,7.1638974 L36.6058073,7.36418099 L36.6058073,7.36418099 L35.8595585,8.7104494 L38.4204019,8.5674946 L38.4477968,8.81578475 L35.7166596,8.96824591 L35.7166596,8.96824591 Z M29.2634473,8.69218085 L28.4810566,7.33704047 L26.6468527,7.15211482 L26.6858175,6.90473008 L28.326993,7.07019447 L27.4388013,5.53180127 L27.3757456,5.42258558 L27.6005251,5.29280909 L27.6635808,5.40202477 L28.6214576,7.06111604 L29.39668,5.33961292 L29.6304039,5.42956074 L28.7986522,7.27659588 L28.7755212,7.32796203 L29.524764,8.62568862 L29.4450795,8.78340371 L29.5731355,8.70947055 L29.6738007,8.88382776 L29.2634473,8.69218085 Z M28.6536364,21.8692478 L28.6619689,21.8548155 L28.6820113,21.866387 L28.6536364,21.8692478 L28.6536364,21.8692478 Z M36.5551245,21.8571163 L36.5702847,21.8833745 L36.518659,21.8781696 L36.5551245,21.8571163 L36.5551245,21.8571163 Z M40.6325649,14.4950039 L40.582958,14.494138 L40.582958,14.4261137 L40.6325649,14.4950039 L40.6325649,14.4950039 Z M28.6452228,7.10227861 L28.6616822,7.13078718 L28.7012727,7.1079296 L28.6452228,7.10227861 Z M26.2634192,14.3632731 L24.803451,14.3632731 L24.803451,14.3632731 L23.6480292,12.7587129 L23.4532702,12.9161499 L24.4953238,14.3632731 L22.48879,14.3632731 L22.3663048,14.3632731 L22.3663048,14.6228261 L22.48879,14.6228261 L24.4783549,14.6228261 L23.4532702,16.0463842 L23.6480292,16.2038211 L24.7864821,14.6228261 L26.2480015,14.6228261 L24.8786597,16.7157884 L25.0799878,16.8636581 L26.5460749,14.6228261 L32.2059544,14.6228261 L32.3284397,14.6228261 L32.3284397,14.3632731 L32.2059544,14.3632731 L26.5614927,14.3632731 L25.0799878,12.0988759 L24.8786597,12.2467457 L26.2634192,14.3632731 L26.2634192,14.3632731 Z" id="Line-2" stroke-width="0.7" fill="#FFFFFF" transform="translate(33.041236, 14.493050) rotate(13.000000) translate(-33.041236, -14.493050) "></path>
                    <path d="M5.6060605,27.5006744 C8.70220223,27.5006744 11.212121,25.0998825 11.212121,22.1383557 C11.212121,19.1768288 5.6060605,8.52631579 5.6060605,8.52631579 C5.6060605,8.52631579 0,19.1768288 0,22.1383557 C0,25.0998825 2.50991878,27.5006744 5.6060605,27.5006744 Z" id="Oval-14" stroke-opacity="0.846212636" fill-opacity="0.492895154" fill="#8BEEFA"></path>
                    <path d="M33.7878787,52.1322534 C36.8840204,52.1322534 39.3939392,49.7314615 39.3939392,46.7699346 C39.3939392,43.8084078 33.7878787,33.1578947 33.7878787,33.1578947 C33.7878787,33.1578947 28.1818182,43.8084078 28.1818182,46.7699346 C28.1818182,49.7314615 30.691737,52.1322534 33.7878787,52.1322534 Z" id="Oval-18" stroke-opacity="0.846212636" fill-opacity="0.492895154" fill="#8BEEFA"></path>
                    <path d="M55.3939393,18.9743586 C58.490081,18.9743586 60.9999998,16.5735668 60.9999998,13.6120399 C60.9999998,10.650513 55.3939393,0 55.3939393,0 C55.3939393,0 49.7878788,10.650513 49.7878788,13.6120399 C49.7878788,16.5735668 52.2977976,18.9743586 55.3939393,18.9743586 Z" id="Oval-16" stroke-opacity="0.846212636" fill-opacity="0.492895154" fill="#8BEEFA"></path>
                </g>
                <path d="M65.7832229,16.3470001 C62.5416057,6.88782663 52.5780644,0 40.7894737,0 C28.0749343,0 17.4834053,8.01234583 15.1586604,18.6214456 C6.43206846,20.2004625 0,25.6321955 0,32.0901814 C0,39.7847054 9.13103471,46.0223496 20.3947368,46.0223496 C24.0869489,46.0223496 27.5500034,45.3521077 30.5374026,44.180013 L30.5374026,44.180013 C33.6847718,45.365904 37.1501544,46.0223496 40.7894737,46.0223496 C47.133061,46.0223496 52.9481778,44.0278761 57.4718005,40.7115167 C61.2039335,43.7690553 66.6016596,45.6902408 72.6052632,45.6902408 C83.8689653,45.6902408 93,38.9277359 93,30.5857632 C93,22.2437906 83.8689653,15.4812856 72.6052632,15.4812856 C70.2126634,15.4812856 67.9162915,15.786416 65.7832229,16.3470001 Z" id="cloud-2" stroke-opacity="0.793251812" fill="#5AD5D5" sketch:type="MSShapeGroup"></path>
            </g>
        </g>
    </g>
</svg>