<?xml version="1.0" encoding="UTF-8" standalone="no"?>
<svg width="95px" height="96px" viewBox="0 0 95 96" version="1.1" xmlns="http://www.w3.org/2000/svg" xmlns:xlink="http://www.w3.org/1999/xlink" xmlns:sketch="http://www.bohemiancoding.com/sketch/ns">
    <!-- Generator: Sketch 3.0.3 (7891) - http://www.bohemiancoding.com/sketch -->
    <title>snow + cloud 2</title>
    <desc>Created with Sketch.</desc>
    <defs></defs>
    <g id="Page-1" stroke="none" stroke-width="1" fill="none" fill-rule="evenodd" sketch:type="MSPage">
        <g id="Desktop-HD-5" sketch:type="MSArtboardGroup" transform="translate(-135.000000, -53.000000)" stroke="#FFFFFF">
            <g id="snow-+-cloud-2" sketch:type="MSLayerGroup" transform="translate(136.000000, 54.000000)">
                <g id="snow" transform="translate(14.000000, 47.000000)" stroke-width="0.7" fill="#FFFFFF" sketch:type="MSShapeGroup">
                    <path d="M7.61806369,26.7500124 L6.79238302,28.1801333 L6.79238302,28.1801333 L4.83876952,28.3726178 L4.88039048,28.632895 L6.63053776,28.4604575 L5.69791393,30.0758094 L5.63167332,30.1905415 L5.86894056,30.3275278 L5.93518116,30.2127957 L6.92917017,28.4911562 L7.74185639,30.2849631 L7.98807354,30.1908693 L7.10712686,28.2463941 L7.09101543,28.210832 L7.88069714,26.8430631 L9.10247664,29.2481433 L9.34339852,29.1430239 L8.03726158,26.5718856 L11.1902694,21.1107157 L11.2565101,20.9959837 L11.0192428,20.8589973 L10.9530022,20.9737294 L7.77462814,26.4788348 L4.98773042,26.6282777 L5.01715522,26.8894819 L7.61806369,26.7500124 Z M14.3713429,26.8346364 L15.1603823,28.2012926 L15.1603823,28.2012926 L15.1343143,28.2588312 L14.2533677,30.2033065 L14.4995848,30.2974003 L15.3222275,28.4816168 L16.328399,30.224357 L16.392735,30.3357901 L16.6300022,30.1988038 L16.5656662,30.0873707 L15.6349139,28.4752604 L17.3610507,28.6453321 L17.4026717,28.3850549 L15.4730686,28.1949361 L14.6467456,26.7637027 L17.224286,26.9019191 L17.2537108,26.6407149 L14.4901812,26.4925251 L11.4616803,21.2470077 L11.3973443,21.1355745 L11.1600771,21.2725608 L11.224413,21.383994 L14.2147785,26.5634588 L12.8980427,29.155461 L13.1389645,29.2605805 L14.3713429,26.8346364 L14.3713429,26.8346364 Z M17.869126,20.8848814 L19.4295169,20.9121181 L19.4295169,20.9121181 L20.5454359,22.4692639 L20.7500321,22.3030805 L19.7573078,20.9178397 L21.3171916,20.9450676 L21.4458439,20.9473132 L21.4506254,20.6733824 L21.321973,20.6711367 L19.573537,20.6406177 L20.7500321,18.9989443 L20.5454359,18.8327609 L19.3019443,20.5679207 L19.2538455,20.6350374 L17.7444037,20.60869 L19.2526471,18.292351 L19.04115,18.1362662 L17.4545333,20.57297 L17.4347937,20.6032858 L11.1155558,20.4929831 L10.9869035,20.4907374 L10.982122,20.7646683 L11.1107743,20.7669139 L17.5523973,20.8793529 L19.04115,23.1657585 L19.2526471,23.0096738 L17.869126,20.8848814 L17.869126,20.8848814 Z M17.6660304,20.607322 L17.6886552,20.6077169 L17.6660304,20.57297 L17.6660304,20.607322 L17.6660304,20.607322 Z M14.4000217,14.8029822 L11.3245205,20.3513332 L11.2621391,20.4638722 L11.0978182,20.3727876 L11.0978182,20.3727876 L11.0192428,20.4181531 L10.9530022,20.303421 L7.76657167,14.7843614 L7.76657167,14.7843614 L5.00796475,14.6364356 L5.03738955,14.3752314 L7.61000722,14.5131838 L6.78354886,13.0817159 L6.78354886,13.0817159 L4.85900385,12.8920955 L4.90062481,12.6318183 L6.6217036,12.8013917 L5.69791393,11.2013411 L5.63167332,11.086609 L5.86894056,10.9496227 L5.93518116,11.0643548 L6.93735059,12.8001632 L7.76209072,10.9797502 L8.00830787,11.073844 L7.1273612,13.0183192 L7.09919585,13.0804874 L7.88809987,14.4469092 L9.12271098,12.0165699 L9.36363286,12.1216894 L8.04669383,14.7140917 L8.04466432,14.7180868 L11.1512377,20.0988298 L14.1844962,14.6266866 L12.918277,12.1341266 L13.1591989,12.0290071 L14.3380727,14.3496273 L15.1161346,12.9459666 L14.273602,11.0862812 L14.5198191,10.9921874 L15.2750749,12.6592306 L16.0338217,11.2904152 L16.0962031,11.1778762 L16.3358249,11.3107008 L16.2734435,11.4232398 L15.4935241,12.8302517 L17.381285,12.6442555 L17.422906,12.9045327 L15.338511,13.1099027 L15.338511,13.1099027 L14.5501464,14.53215 L17.2445203,14.3876685 L17.2739451,14.6488727 L14.4000217,14.8029822 L14.4000217,14.8029822 Z M7.93647067,14.5306899 L7.93769322,14.5328074 L7.94094529,14.5309298 L7.93647067,14.5306899 L7.93647067,14.5306899 Z M6.96597539,28.4274077 L6.97734636,28.4077126 L7.00482877,28.4235796 L6.96597539,28.4274077 L6.96597539,28.4274077 Z M15.2810783,28.4103443 L15.2994763,28.4422105 L15.2366124,28.4360167 L15.2810783,28.4103443 L15.2810783,28.4103443 Z M19.5584496,20.6403543 L19.5065405,20.6394482 L19.5065405,20.5679207 L19.5584496,20.6403543 L19.5584496,20.6403543 Z M6.95714123,12.8344415 L6.97701949,12.8688717 L7.0250631,12.8411337 L6.95714123,12.8344415 L6.95714123,12.8344415 Z M4.46373127,20.5015889 L2.93002103,20.5015889 L2.93002103,20.5015889 L1.71623963,18.8078865 L1.51164344,18.9740699 L2.60633052,20.5015889 L0.498448031,20.5015889 L0.369776115,20.5015889 L0.369776115,20.7755615 L0.498448031,20.7755615 L2.58850447,20.7755615 L1.51164344,22.2782062 L1.71623963,22.4443896 L2.91219499,20.7755615 L4.44753478,20.7755615 L3.00902843,22.9847995 L3.22052551,23.1408842 L4.76066368,20.7755615 L10.70642,20.7755615 L10.8350919,20.7755615 L10.8350919,20.5015889 L10.70642,20.5015889 L4.77686017,20.5015889 L3.22052551,18.1113919 L3.00902843,18.2674766 L4.46373127,20.5015889 L4.46373127,20.5015889 Z" id="Line" transform="translate(11.583891, 20.638575) rotate(13.000000) translate(-11.583891, -20.638575) "></path>
                    <path d="M26.174387,43.527725 L25.5138425,44.6718217 L25.5138425,44.6718217 L23.9509517,44.8258093 L23.9842485,45.034031 L25.3843663,44.896081 L24.6382672,46.1883625 L24.5852747,46.2801482 L24.7750885,46.3897372 L24.828081,46.2979516 L25.6232722,44.92064 L26.2734212,46.3556855 L26.4703949,46.2804105 L25.7656376,44.7248303 L25.7527484,44.6963806 L26.3844938,43.6021656 L27.3619174,45.5262297 L27.5546549,45.4421341 L26.5097454,43.3852235 L29.0321516,39.0162876 L29.0851441,38.924502 L28.8953303,38.8149129 L28.8423379,38.9066986 L26.2996386,43.3107829 L24.0701204,43.4303372 L24.0936603,43.6393006 L26.174387,43.527725 Z M31.5770104,43.5954242 L32.2082419,44.6887492 L32.2082419,44.6887492 L32.1873875,44.73478 L31.4826302,46.2903602 L31.6796039,46.3656353 L32.3377181,44.9130085 L33.1426553,46.3072006 L33.1941241,46.3963472 L33.3839378,46.2867581 L33.3324691,46.1976116 L32.5878672,44.9079233 L33.9687767,45.0439808 L34.0020734,44.835759 L32.458391,44.683664 L31.7973326,43.5386772 L33.8593649,43.6492503 L33.8829047,43.440287 L31.672081,43.3217351 L29.2492803,39.1253212 L29.1978115,39.0361747 L29.0079978,39.1457637 L29.0594665,39.2349102 L31.4517589,43.3784821 L30.3983702,45.4520839 L30.5911077,45.5361795 L31.5770104,43.5954242 L31.5770104,43.5954242 Z M34.3752369,38.8356202 L35.6235496,38.8574095 L35.6235496,38.8574095 L36.5162848,40.1031262 L36.6799618,39.9701794 L35.8857823,38.8619868 L37.1336893,38.8837691 L37.2366112,38.8855656 L37.2404364,38.6664209 L37.1375145,38.6646244 L35.7387656,38.6402092 L36.6799618,37.3268705 L36.5162848,37.1939237 L35.5214915,38.5820516 L35.4830125,38.635745 L34.2754591,38.6146671 L35.4820538,36.7615958 L35.3128561,36.636728 L34.0435627,38.5860911 L34.0277711,38.6103437 L28.9723807,38.5221015 L28.8694589,38.520305 L28.8656337,38.7394497 L28.9685556,38.7412462 L34.1218539,38.8311974 L35.3128561,40.6603219 L35.4820538,40.5354541 L34.3752369,38.8356202 L34.3752369,38.8356202 Z M34.2127604,38.6135727 L34.2308603,38.6138886 L34.2127604,38.5860911 L34.2127604,38.6135727 L34.2127604,38.6135727 Z M31.5999534,33.9701008 L29.1395525,38.4087816 L29.0896474,38.4988128 L28.9581906,38.4259451 L28.9581906,38.4259451 L28.8953303,38.4622375 L28.8423379,38.3704518 L26.2931934,33.9552042 L26.2931934,33.9552042 L24.0863079,33.8368635 L24.1098477,33.6279001 L26.1679419,33.7382621 L25.5067752,32.5930878 L25.5067752,32.5930878 L23.9671392,32.4413914 L24.0004359,32.2331697 L25.377299,32.3688284 L24.6382672,31.0887879 L24.5852747,30.9970022 L24.7750885,30.8874132 L24.828081,30.9791989 L25.6298166,32.3678456 L26.2896087,30.9115152 L26.4865824,30.9867902 L25.781825,32.5423704 L25.7592928,32.5921049 L26.390416,33.6852424 L27.3781049,31.740971 L27.5708424,31.8250666 L26.5172911,33.8989884 L26.5156675,33.9021845 L29.0009263,38.2067789 L31.4275331,33.8290643 L30.4145577,31.8350163 L30.6072952,31.7509207 L31.5503943,33.6074169 L32.1728437,32.4844883 L31.4988177,30.99674 L31.6957914,30.9214649 L32.299996,32.2550995 L32.9069934,31.1600472 L32.9568985,31.070016 L33.148596,31.1762757 L33.0986909,31.2663069 L32.4747553,32.3919164 L33.9849641,32.2431194 L34.0182609,32.4513412 L32.3507449,32.6156372 L32.3507449,32.6156372 L31.7200532,33.753435 L33.8755523,33.6378499 L33.8990922,33.8468132 L31.5999534,33.9701008 L31.5999534,33.9701008 Z M26.4291126,33.752267 L26.4300907,33.753961 L26.4326923,33.7524589 L26.4291126,33.752267 L26.4291126,33.752267 Z M25.6527164,44.8696412 L25.6618132,44.8538851 L25.6837991,44.8665787 L25.6527164,44.8696412 L25.6527164,44.8696412 Z M32.3047987,44.8559905 L32.3195171,44.8814835 L32.269226,44.8765284 L32.3047987,44.8559905 L32.3047987,44.8559905 Z M35.7266958,38.6399985 L35.6851685,38.6392736 L35.6851685,38.5820516 L35.7266958,38.6399985 L35.7266958,38.6399985 Z M25.6456491,32.3952683 L25.6615517,32.4228124 L25.6999866,32.400622 L25.6456491,32.3952683 L25.6456491,32.3952683 Z M23.6509211,38.5289862 L22.4239529,38.5289862 L22.4239529,38.5289862 L21.4529278,37.1740243 L21.2892508,37.306971 L22.1650005,38.5289862 L20.4786945,38.5289862 L20.375757,38.5289862 L20.375757,38.7481643 L20.4786945,38.7481643 L22.1507397,38.7481643 L21.2892508,39.95028 L21.4529278,40.0832267 L22.4096921,38.7481643 L23.6379639,38.7481643 L22.4871588,40.5155546 L22.6563565,40.6404224 L23.888467,38.7481643 L28.6450721,38.7481643 L28.7480096,38.7481643 L28.7480096,38.5289862 L28.6450721,38.5289862 L23.9014242,38.5289862 L22.6563565,36.6168286 L22.4871588,36.7416963 L23.6509211,38.5289862 L23.6509211,38.5289862 Z" id="Line-2" transform="translate(29.347049, 38.638575) rotate(13.000000) translate(-29.347049, -38.638575) "></path>
                    <path d="M41.1670035,21.9722998 L40.1761867,23.6884449 L40.1761867,23.6884449 L37.8318505,23.9194263 L37.8817957,24.2317589 L39.9819724,24.0248339 L38.8628238,25.9632562 L38.7833351,26.1009347 L39.0680557,26.2653183 L39.1475445,26.1276397 L40.3403313,24.0616724 L41.3155547,26.2142407 L41.6110153,26.1013281 L40.5538793,23.7679578 L40.5345456,23.7252833 L41.4821636,22.0839607 L42.948299,24.970057 L43.2374053,24.8439136 L41.670041,21.7585476 L45.4536504,15.2051439 L45.5331391,15.0674653 L45.2484185,14.9030818 L45.1689297,15.0407603 L41.3548808,21.6468867 L38.0106036,21.8262182 L38.0459133,22.1396633 L41.1670035,21.9722998 Z M49.2709386,22.0738486 L50.2177858,23.7138361 L50.2177858,23.7138361 L50.1865043,23.7828824 L49.1293683,26.1162527 L49.4248288,26.2291653 L50.4120001,24.0502252 L51.6194059,26.1415134 L51.696609,26.2752331 L51.9813297,26.1108496 L51.9041266,25.9771298 L50.7872238,24.0425974 L52.8585879,24.2466835 L52.9085331,23.9343509 L50.5930094,23.7062083 L49.6014218,21.9887281 L52.6944702,22.1545879 L52.72978,21.8411428 L49.4135445,21.663315 L45.7793434,15.3686942 L45.7021403,15.2349744 L45.4174196,15.3993579 L45.4946227,15.5330777 L49.0830612,21.7484355 L47.5029783,24.8588382 L47.7920845,24.9849816 L49.2709386,22.0738486 L49.2709386,22.0738486 Z M53.4682782,14.9341426 L55.3407474,14.9668267 L55.3407474,14.9668267 L56.6798501,16.8354017 L56.9253656,16.6359816 L55.7340965,14.9736926 L57.6059569,15.0063661 L57.7603397,15.0090609 L57.7660775,14.6803438 L57.6116947,14.677649 L55.5135714,14.6410262 L56.9253656,12.6710181 L56.6798501,12.471598 L55.1876602,14.5537898 L55.1299416,14.6343299 L53.3186116,14.602713 L55.1285036,11.8231061 L54.8747071,11.6358044 L52.970767,14.559849 L52.9470796,14.5962279 L45.3639941,14.4638646 L45.2096113,14.4611699 L45.2038735,14.7898869 L45.3582563,14.7925817 L53.0882038,14.9275084 L54.8747071,17.6711952 L55.1285036,17.4838935 L53.4682782,14.9341426 L53.4682782,14.9341426 Z M53.2245635,14.6010714 L53.2517133,14.6015453 L53.2245635,14.559849 L53.2245635,14.6010714 L53.2245635,14.6010714 Z M49.3053531,7.63586363 L45.6147517,14.2938848 L45.539894,14.4289316 L45.3427089,14.3196301 L45.3427089,14.3196301 L45.2484185,14.3740687 L45.1689297,14.2363902 L41.3452131,7.61351863 L41.3452131,7.61351863 L38.0348848,7.43600762 L38.0701945,7.12256258 L41.1573357,7.28810554 L40.1655857,5.57034409 L40.1655857,5.57034409 L37.8561317,5.34279956 L37.9060769,5.03046691 L39.9713714,5.23395504 L38.8628238,3.31389427 L38.7833351,3.17621575 L39.0680557,3.01183219 L39.1475445,3.14951071 L40.3501478,5.23248074 L41.3398359,3.04798518 L41.6352965,3.16089773 L40.5781605,5.49426801 L40.5443621,5.56886979 L41.4910469,7.20857601 L42.9725802,4.29216887 L43.2616865,4.41831224 L41.6813597,7.52919497 L41.6789243,7.5339891 L45.4068124,13.9908807 L49.0467225,7.42430891 L47.5272595,4.43323685 L47.8163657,4.30709347 L49.2310144,7.09183768 L50.1646885,5.40744487 L49.1536495,3.17582234 L49.44911,3.06290978 L50.355417,5.06336164 L51.2659131,3.4207832 L51.3407707,3.28573641 L51.6283169,3.44512588 L51.5534593,3.58017267 L50.617556,5.26858697 L52.8828691,5.04539152 L52.9328143,5.35772417 L50.4315402,5.60416823 L50.4315402,5.60416823 L49.4855028,7.31086492 L52.7187514,7.13748718 L52.7540612,7.45093223 L49.3053531,7.63586363 L49.3053531,7.63586363 Z M41.5490919,7.30911283 L41.5505589,7.31165386 L41.5544614,7.30940076 L41.5490919,7.30911283 L41.5490919,7.30911283 Z M40.3844975,23.9851742 L40.3981427,23.9615401 L40.4311216,23.9805804 L40.3844975,23.9851742 L40.3844975,23.9851742 Z M50.3626211,23.9646982 L50.3846986,24.0029376 L50.309262,23.995505 L50.3626211,23.9646982 L50.3626211,23.9646982 Z M55.4954666,14.6407101 L55.4331756,14.6396228 L55.4331756,14.5537898 L55.4954666,14.6407101 L55.4954666,14.6407101 Z M40.3738965,5.27361481 L40.3977505,5.314931 L40.4554028,5.28164541 L40.3738965,5.27361481 L40.3738965,5.27361481 Z M37.3818046,14.4741917 L35.5413523,14.4741917 L35.5413523,14.4741917 L34.0848146,12.4417488 L33.8392992,12.6411689 L35.1529237,14.4741917 L32.6234647,14.4741917 L32.4690584,14.4741917 L32.4690584,14.8029588 L32.6234647,14.8029588 L35.1315324,14.8029588 L33.8392992,16.6061323 L34.0848146,16.8055524 L35.5199611,14.8029588 L37.3623688,14.8029588 L35.6361612,17.4540443 L35.8899577,17.641346 L37.7381235,14.8029588 L44.873031,14.8029588 L45.0274373,14.8029588 L45.0274373,14.4741917 L44.873031,14.4741917 L37.7575593,14.4741917 L35.8899577,11.6059552 L35.6361612,11.7932569 L37.3818046,14.4741917 L37.3818046,14.4741917 Z" id="Line-3" transform="translate(45.925996, 14.638575) rotate(13.000000) translate(-45.925996, -14.638575) "></path>
                </g>
                <path d="M65.7832229,16.3470001 C62.5416057,6.88782663 52.5780644,0 40.7894737,0 C28.0749343,0 17.4834053,8.01234583 15.1586604,18.6214456 C6.43206846,20.2004625 0,25.6321955 0,32.0901814 C0,39.7847054 9.13103471,46.0223496 20.3947368,46.0223496 C24.0869489,46.0223496 27.5500034,45.3521077 30.5374026,44.180013 L30.5374026,44.180013 C33.6847718,45.365904 37.1501544,46.0223496 40.7894737,46.0223496 C47.133061,46.0223496 52.9481778,44.0278761 57.4718005,40.7115167 C61.2039335,43.7690553 66.6016596,45.6902408 72.6052632,45.6902408 C83.8689653,45.6902408 93,38.9277359 93,30.5857632 C93,22.2437906 83.8689653,15.4812856 72.6052632,15.4812856 C70.2126634,15.4812856 67.9162915,15.786416 65.7832229,16.3470001 Z" id="cloud-2" stroke-opacity="0.793251812" fill="#5AD5D5" sketch:type="MSShapeGroup"></path>
            </g>
        </g>
    </g>
</svg>