<?xml version="1.0" encoding="UTF-8" standalone="no"?>
<svg width="152px" height="71px" viewBox="0 0 152 71" version="1.1" xmlns="http://www.w3.org/2000/svg" xmlns:xlink="http://www.w3.org/1999/xlink" xmlns:sketch="http://www.bohemiancoding.com/sketch/ns">
    <!-- Generator: Sketch 3.0.4 (8053) - http://www.bohemiancoding.com/sketch -->
    <title>wind</title>
    <desc>Created with Sketch.</desc>
    <defs></defs>
    <g id="Page-1" stroke="none" stroke-width="1" fill="none" fill-rule="evenodd" sketch:type="MSPage">
        <g id="Desktop-HD-5" sketch:type="MSArtboardGroup" transform="translate(-82.000000, -26.000000)" stroke="#FFFFFF" stroke-width="2">
            <g id="wind" sketch:type="MSLayerGroup" transform="translate(83.000000, 27.000000)">
                <path d="M78.3919598,18.5769231 C78.3919598,8.31717176 86.6600681,0 96.8592965,0 C107.058525,0 115.326633,8.31717176 115.326633,18.5769231 C115.326633,28.8366744 107.058525,37.1538462 96.8592965,37.1538462 L-0.20915183,37.1538462" id="Oval-20" sketch:type="MSShapeGroup"></path>
                <path d="M104.020101,57.6263736 C104.020101,63.907854 109.082208,69 115.326633,69 C121.571059,69 126.633166,63.907854 126.633166,57.6263736 C126.633166,51.3448932 121.571059,46.2527473 115.326633,46.2527473 L18.8087797,46.2527473" id="Oval-20" sketch:type="MSShapeGroup"></path>
                <path d="M127.386935,28.8131868 C127.386935,22.5317064 132.449042,17.4395604 138.693467,17.4395604 C144.937893,17.4395604 150,22.5317064 150,28.8131868 C150,35.0946672 144.937893,40.1868132 138.693467,40.1868132 L115.2648,40.1868132" id="Oval-20" sketch:type="MSShapeGroup"></path>
            </g>
        </g>
    </g>
</svg>