<?xml version="1.0" encoding="UTF-8" standalone="no"?>
<svg width="181px" height="160px" viewBox="0 0 181 160" version="1.1" xmlns="http://www.w3.org/2000/svg" xmlns:xlink="http://www.w3.org/1999/xlink" xmlns:sketch="http://www.bohemiancoding.com/sketch/ns">
    <!-- Generator: Sketch 3.0.4 (8053) - http://www.bohemiancoding.com/sketch -->
    <title>acacia</title>
    <desc>Created with Sketch.</desc>
    <defs></defs>
    <g id="Page-1" stroke="none" stroke-width="1" fill="none" fill-rule="evenodd" sketch:type="MSPage">
        <g id="Desktop-HD-5" sketch:type="MSArtboardGroup" transform="translate(-278.000000, -305.000000)" stroke="#FFFFFF">
            <g id="verger-personnalisé" sketch:type="MSLayerGroup" transform="translate(31.000000, 200.000000)">
                <g id="acacia" transform="translate(248.300494, 105.560494)" sketch:type="MSShapeGroup">
                    <path d="M86.5187943,157.343014 C86.5187943,157.343014 95.5384857,100.329278 90.2857086,90.3920161 C80.8872171,72.6118437 26.8894914,34.2686487 1,29.7522687 C6.26314857,29.9394299 7.66281143,29.1052923 10.2105257,29.3779463 C24.6512971,38.0567984 71.66392,61.0675277 91.97744,85.3387034 C93.8571429,87.5846208 78.6315714,57.8262278 79.7593943,50.7141589 C80.5102571,45.979188 65.4594057,32.8495122 63.5939771,33.4954644 C62.1173543,34.0067766 63.96992,29.377952 63.96992,29.377952 C63.96992,29.377952 80.1353371,40.6075334 82.3909771,54.0830322 C84.6466114,67.558531 92.775,85.9571973 101.563903,88.8947378 C112.232509,74.6135839 143.480211,27.2781449 157.95488,19.2713265 C161.338337,17.3997315 162.845398,19.2713265 162.845398,19.2713265 C162.845398,19.2713265 145.705823,18.5942461 100.812023,97.8784075 C92.6130457,112.358113 97.0451029,156.594375 97.0451029,156.594375 L86.5187943,157.343014 Z" id="path3186" stroke-opacity="0.74000001" fill="#684E37"></path>
                    <path d="M72.1397634,5.27037854 C72.1397634,5.27037854 33.2428281,7.7048982 25.005693,13.5670993 C16.7685578,19.4293004 -3.04922602,23.7737466 0.585661184,32.0500948 C4.22054839,40.326443 56.8251578,43.4424244 64.4824619,50.2977873 C72.139766,57.1531502 94.4371376,61.0483817 94.4371376,61.0483817 C94.4371376,61.0483817 110.877903,60.6205581 116.282882,55.4591727 C121.687862,50.2977873 119.62931,43.3222274 132.305521,39.1733577 C144.981731,35.024488 163.288745,30.9306252 163.288745,22.2488622 C163.288745,13.5670993 169.241514,17.5591004 177.284882,13.5670994 C185.328251,9.57509832 87.973754,-2.81650499 77.8667166,0.670256974 C67.7596792,4.15701894 72.1397634,5.27037854 72.1397634,5.27037854 Z" id="TreeShape" fill-opacity="0.800000012" fill="#ADDE60"></path>
                </g>
            </g>
        </g>
    </g>
</svg>