<?xml version="1.0" encoding="UTF-8" standalone="no"?>
<svg width="118px" height="184px" viewBox="0 0 118 184" version="1.1" xmlns="http://www.w3.org/2000/svg" xmlns:xlink="http://www.w3.org/1999/xlink" xmlns:sketch="http://www.bohemiancoding.com/sketch/ns">
    <!-- Generator: Sketch 3.0.4 (8053) - http://www.bohemiancoding.com/sketch -->
    <title>chêne</title>
    <desc>Created with Sketch.</desc>
    <defs></defs>
    <g id="Page-1" stroke="none" stroke-width="1" fill="none" fill-rule="evenodd" sketch:type="MSPage">
        <g id="Desktop-HD-5" sketch:type="MSArtboardGroup" transform="translate(-802.000000, -392.000000)" stroke="#FFFFFF">
            <g id="verger-personnalisé" sketch:type="MSLayerGroup" transform="translate(31.000000, 192.000000)">
                <g id="chêne" transform="translate(772.000000, 201.000000)" sketch:type="MSShapeGroup">
                    <path d="M50.6206353,177.484866 C50.6206353,177.484866 64.0004752,156.444014 60.7728484,148.216123 C57.5452216,139.988231 56.5661618,124.907471 47.1795005,122.021402 C37.7928393,119.135332 35.3288403,107.551489 35.3288403,107.551489 L40.2568376,107.852642 C40.2568376,107.852642 43.6114136,117.245909 59.1167181,127.932031 C74.6220226,138.618152 70.4999682,96.1555984 69.2266143,89.3002576 C67.9532604,82.4449168 64.1293493,73.7446688 64.1293493,73.7446688 C64.1293493,73.7446688 66.6799066,77.2910463 67.9532604,77.2910463 C70.4595773,84.1488597 76.6186083,111.053351 76.6186103,114.030923 C76.6186123,117.008495 79.6750444,106.134421 82.3948695,101.784298 C85.1146946,97.4341743 91.1890942,95.6832424 91.1890942,95.6832424 L87.6633256,101.35893 C87.6633256,101.35893 77.8496502,116.867532 77.8496479,122.399781 C77.8496456,127.93203 72.6235074,146.940017 76.4051022,154.079764 C80.186697,161.21951 75.0028748,172.518947 81.3330996,172.518948 C87.6633244,172.518949 87.4498176,177.01251 87.4498176,177.01251 C87.4498176,177.01251 67.9532592,170.911457 67.9532598,176.112314 C67.9532604,181.313171 52.1074976,182.307346 52.1074979,182.307346 C52.1074982,182.307345 50.6206353,177.484866 50.6206353,177.484866 Z" id="Path-1035" stroke-opacity="0.74000001" fill="#67614F"></path>
                    <path d="M17.8264311,98.5496309 C26.8144415,104.562609 31.1106053,114.499497 34.9300396,114.499497 C39.0872872,114.499497 39.1893442,117.170986 67.2459238,111.664547 C95.3025034,106.158108 82.8094281,115.417026 89.7787648,109.989815 C96.7481015,104.562605 110.238403,84.8787249 104.287613,76.8908317 C98.3368237,68.9029385 122.594834,45.3757663 114.014173,28.5990131 C105.433513,11.82226 102.428987,-0.322864773 57.9575098,-0.32286475 C13.4860323,-0.322864726 9.70177397,16.2470354 3.60434994,34.4143624 C-2.49307409,52.5816893 1.08685294,55.3795977 1.08685288,64.939978 C1.08685281,74.5003583 8.8384207,92.5366533 17.8264311,98.5496309 Z" id="TreeShape" fill="rgba(176,217,68,0.8)"></path>
                </g>
            </g>
        </g>
    </g>
</svg>