<?xml version="1.0" encoding="UTF-8" standalone="no"?>
<svg width="162px" height="235px" viewBox="0 0 162 235" version="1.1" xmlns="http://www.w3.org/2000/svg" xmlns:xlink="http://www.w3.org/1999/xlink" xmlns:sketch="http://www.bohemiancoding.com/sketch/ns">
    <!-- Generator: Sketch 3.0.4 (8053) - http://www.bohemiancoding.com/sketch -->
    <title>cocotier</title>
    <desc>Created with Sketch.</desc>
    <defs></defs>
    <g id="Page-1" stroke="none" stroke-width="1" fill="none" fill-rule="evenodd" sketch:type="MSPage">
        <g id="Desktop-HD-5" sketch:type="MSArtboardGroup" transform="translate(-199.000000, -212.000000)" stroke="#FFFFFF">
            <g id="verger-personnalisé" sketch:type="MSLayerGroup" transform="translate(45.000000, 213.000000)">
                <g id="cocotier" transform="translate(155.291404, -0.399374)" sketch:type="MSShapeGroup">
                    <path d="M69.4306669,70.3201699 C69.4306669,70.3201699 85.1017398,151.361429 36.7244412,232.074282 C43.0026379,232.074283 45.9240615,229.104406 51.2673004,232.074278 C68.0406749,182.443791 78.8569777,88.4617177 78.8569796,70.3201698 C78.8569815,52.1786218 69.4306669,70.3201699 69.4306669,70.3201699 Z" id="Path-1052" stroke-opacity="0.74" fill="#8B572A"></path>
                    <path d="M57.0387477,30.3531312 C57.0387477,30.3531312 39.7754308,15.7067563 20.3452822,26.8769807 C0.915133662,38.047205 0.127465104,55.566131 0.127465104,55.566131 C0.127465104,55.566131 37.3500061,36.3333709 47.1943769,41.4772977 C22.9728256,41.4772977 19.702816,49.8569501 11.6809281,58.6713949 C5.78549717,65.1492903 5.05262285,80.5488417 5.05262285,80.5488417 C5.05262285,80.5488417 11.6809281,74.6146603 22.9728256,72.5299396 C22.9728256,72.5299396 26.515848,98.8555985 39.6446481,109.005279 C39.6446481,109.005279 47.1943769,83.6056243 73.6481511,74.6146603 C73.6481511,74.6146603 113.816275,85.3703649 110.077079,98.8555985 C106.337883,112.340832 138.893859,64.789808 116.182253,47.5957106 C130.559434,41.4772977 158.588545,53.1565821 158.588545,53.1565818 C158.588545,53.1565815 130.752635,21.7815354 116.182253,24.3292581 C101.611871,26.8769807 133.576353,19.1368491 138.893859,19.1368491 C144.211365,19.1368491 93.7351856,5.23224692 83.6916684,14.7807525 C73.6481511,24.3292581 82.8356361,0.0883198301 82.8356361,0.0883198301 L57.0387477,30.3531312 Z" id="TreeShape" fill="rgba(183,242,91,0.8)"></path>
                </g>
            </g>
        </g>
    </g>
</svg>