<?xml version="1.0" encoding="UTF-8" standalone="no"?>
<svg width="67px" height="41px" viewBox="0 0 67 41" version="1.1" xmlns="http://www.w3.org/2000/svg" xmlns:xlink="http://www.w3.org/1999/xlink" xmlns:sketch="http://www.bohemiancoding.com/sketch/ns">
    <!-- Generator: Sketch 3.0.4 (8053) - http://www.bohemiancoding.com/sketch -->
    <title>crown</title>
    <desc>Created with Sketch.</desc>
    <defs></defs>
    <g id="Page-1" stroke="none" stroke-width="1" fill="none" fill-rule="evenodd" sketch:type="MSPage">
        <g id="Artboard-2" sketch:type="MSArtboardGroup" transform="translate(-213.000000, -378.000000)" stroke-opacity="0.74000001" stroke="#FFFFFF" fill="#F8E81C">
            <path d="M246.500019,386.000035 C246.500006,386.000012 246.5,386 246.5,386 C246.5,386 242.070552,396.756625 235.089935,399.626042 C230.200729,401.299975 223.040912,396.847738 219.549817,394.337258 C220.42841,393.701399 221,392.667451 221,391.5 C221,389.567003 219.432997,388 217.5,388 C215.567003,388 214,389.567003 214,391.5 C214,393.432997 215.567003,395 217.5,395 C218.191048,395 218.835319,394.799726 219.377939,394.454054 L219.377939,394.454054 C223.734858,398.503017 234.089934,409.033364 234.089934,417.657797 C243.508075,417.658405 259.564166,417.657797 259.564166,417.657797 C259.564165,409.165231 269.473519,398.483485 273.576597,394.424595 L273.576597,394.424595 C274.128539,394.788322 274.78955,395 275.5,395 C277.432997,395 279,393.432997 279,391.5 C279,389.567003 277.432997,388 275.5,388 C273.567003,388 272,389.567003 272,391.5 C272,392.654597 272.559073,393.678615 273.421275,394.316112 C270.132996,396.852388 263.285021,401.416871 258.564166,399.626042 C252.972915,397.941736 246.51278,386.023586 246.500019,386.000035 C244.567003,386 243,384.432997 243,382.5 C243,380.567003 244.567003,379 246.5,379 C248.432997,379 250,380.567003 250,382.5 C250,384.432997 248.432997,386 246.5,386 Z" id="crown" sketch:type="MSShapeGroup"></path>
        </g>
    </g>
</svg>