<?xml version="1.0" encoding="UTF-8" standalone="no"?>
<svg width="128px" height="166px" viewBox="0 0 128 166" version="1.1" xmlns="http://www.w3.org/2000/svg" xmlns:xlink="http://www.w3.org/1999/xlink" xmlns:sketch="http://www.bohemiancoding.com/sketch/ns">
    <!-- Generator: Sketch 3.0.4 (8053) - http://www.bohemiancoding.com/sketch -->
    <title>default-tree 3</title>
    <desc>Created with Sketch.</desc>
    <defs></defs>
    <g id="Page-1" stroke="none" stroke-width="1" fill="none" fill-rule="evenodd" sketch:type="MSPage">
        <g id="Desktop-HD-6" sketch:type="MSArtboardGroup" transform="translate(-280.000000, -441.000000)" stroke="#FFFFFF">
            <g id="verger-vrai" sketch:type="MSLayerGroup" transform="translate(121.000000, 228.000000)">
                <g id="default-tree-3" transform="translate(160.000000, 214.000000)" sketch:type="MSShapeGroup">
                    <path d="M55.3735507,164.05891 C59.0634495,155.233558 59.3735495,142.809665 59.3735503,130.20298 C59.3735511,117.596294 46.5800115,95.9159801 42.4658896,95.915978 C38.3517676,95.9159759 38.5323177,91.1692161 41.8296042,92.6636821 C45.1268908,94.1581481 33.6139312,79.157506 34.5464862,76.11209 C35.4790411,73.0666739 54.7919527,110.43826 61.631077,112.639587 C68.4702012,114.840913 52.1418126,88.0746898 55.5156254,86.1243064 C59.3735503,84.4658595 57.477148,85.2375936 57.477148,85.2375936 C57.477148,85.2375936 59.3735504,80.5464576 59.3735504,78.1376715 C59.3735503,75.7288854 63.0634501,79.7998456 63.0634501,79.7998456 C63.0634501,79.7998456 60.6941527,82.4275145 59.3735503,87.1187889 C57.477148,91.608817 66.1544492,107.060496 66.1544492,107.060496 C66.1544492,107.060496 81.7308809,92.7705181 81.7308826,89.7120186 C81.7308843,86.6535192 85.9564666,89.2411935 85.9564666,89.2411935 C85.9564666,89.2411935 68.1923765,109.301572 68.1923775,117.596294 C68.1923785,125.891016 66.1544491,124.968482 66.1544482,136.911304 C66.1544491,154.336967 72.0503025,164.058906 72.0503025,164.058906 C72.0503025,164.058906 62.1544491,164.058906 55.3735507,164.05891 Z" id="Path-1212" stroke-opacity="0.788581295" fill="#87684C"></path>
                    <path d="M27.0798495,105.357244 C45.0827852,112.181202 46.2673236,104.923464 67.0589662,107.629181 C87.8506089,110.334898 85.1068449,110.953948 100.748331,107.629181 C111.27678,105.391246 120.312314,89.2690559 125.079676,77.4349203 C129.847039,65.6007847 120.55009,58.676109 120.550096,45.729234 C120.550102,32.782359 113.307583,15.0994761 100.748328,8.94918061 C84.3144253,4.3473572 67.0589698,-3.1940216 52.1069474,1.23857611 C37.154925,5.67117382 38.5268004,-3.31750762 19.2634605,12.402082 C0.00012057336,28.1216716 13.4740951,37.5636031 4.31804061,45.7292322 C-7.18120847,55.9845887 4.31804071,96.7294486 27.0798495,105.357244 Z" id="TreeShape" fill-opacity="0.774711277" fill="rgba(192,232,51,0.8)"></path>
                </g>
            </g>
        </g>
    </g>
</svg>