<?xml version="1.0" encoding="UTF-8" standalone="no"?>
<svg width="78px" height="145px" viewBox="0 0 78 145" version="1.1" xmlns="http://www.w3.org/2000/svg" xmlns:xlink="http://www.w3.org/1999/xlink" xmlns:sketch="http://www.bohemiancoding.com/sketch/ns">
    <!-- Generator: Sketch 3.0.4 (8053) - http://www.bohemiancoding.com/sketch -->
    <title>?</title>
    <desc>Created with Sketch.</desc>
    <defs></defs>
    <g id="Page-1" stroke="none" stroke-width="1" fill="none" fill-rule="evenodd" sketch:type="MSPage">
        <path d="M12.71875,42.21875 L3.9296875,40.265625 C1.84634375,34.9270566 0.8046875,30.044293 0.8046875,25.6171875 C0.8046875,17.6744395 3.83200098,11.554709 9.88671875,7.2578125 C15.9414365,2.96091602 23.3957891,0.8125 32.25,0.8125 C45.4011074,0.8125 56.0129805,4.62105566 64.0859375,12.2382812 C72.1588945,19.8555068 76.1953125,30.3046211 76.1953125,43.5859375 C76.1953125,49.1849238 75.0885527,54.1002393 72.875,58.3320312 C70.6614473,62.5638232 67.9596514,66.0468613 64.7695312,68.78125 C61.5794111,71.5156387 58.3567871,74.2825381 55.1015625,77.0820312 C51.8463379,79.8815244 48.9817832,83.4622178 46.5078125,87.8242188 C44.0338418,92.1862197 42.6015645,97.2317422 42.2109375,102.960938 C41.0390566,106.997416 38.7604336,109.015625 35.375,109.015625 C32.9010293,109.015625 30.6224062,107.908865 28.5390625,105.695312 C26.4557188,103.48176 25.1536484,100.421895 24.6328125,96.515625 C24.6328125,91.0468477 25.9348828,86.164084 28.5390625,81.8671875 C31.1432422,77.570291 34.3333145,73.9570459 38.109375,71.0273438 C41.8854355,68.0976416 45.6288877,65.1679834 49.3398438,62.2382812 C53.0507998,59.3085791 56.2083203,55.6302305 58.8125,51.203125 C61.4166797,46.7760195 62.71875,41.7630488 62.71875,36.1640625 C62.71875,29.1327773 59.5937812,23.5013232 53.34375,19.2695312 C47.0937188,15.0377393 40.1276426,12.921875 32.4453125,12.921875 C26.3254902,12.921875 21.1497607,14.4843594 16.9179688,17.609375 C12.6861768,20.7343906 10.5703125,25.2265332 10.5703125,31.0859375 C10.5703125,34.6015801 11.2864512,38.3124805 12.71875,42.21875 L12.71875,42.21875 Z M32.0546875,119.367188 C35.5703301,119.367188 38.4999883,120.89712 40.84375,123.957031 C43.1875117,127.016942 44.359375,130.49998 44.359375,134.40625 C44.359375,137.270848 43.6757881,139.582022 42.3085938,141.339844 C40.9413994,143.097665 39.0859492,143.976562 36.7421875,143.976562 C33.0963359,143.976562 30.2317812,142.479182 28.1484375,139.484375 C26.0650938,136.489568 25.0234375,132.973979 25.0234375,128.9375 C25.0234375,126.072902 25.6419209,123.761728 26.8789062,122.003906 C28.1158916,120.246085 29.8411348,119.367188 32.0546875,119.367188 L32.0546875,119.367188 Z" id="?" fill="#E0EB91" sketch:type="MSShapeGroup"></path>
    </g>
</svg>