<?xml version="1.0" encoding="UTF-8" standalone="no"?>
<svg width="127px" height="151px" viewBox="0 0 127 151" version="1.1" xmlns="http://www.w3.org/2000/svg" xmlns:xlink="http://www.w3.org/1999/xlink" xmlns:sketch="http://www.bohemiancoding.com/sketch/ns">
    <!-- Generator: Sketch 3.0.4 (8053) - http://www.bohemiancoding.com/sketch -->
    <title>olivier</title>
    <desc>Created with Sketch.</desc>
    <defs></defs>
    <g id="Page-1" stroke="none" stroke-width="1" fill="none" fill-rule="evenodd" sketch:type="MSPage">
        <g id="Desktop-HD-5" sketch:type="MSArtboardGroup" transform="translate(-635.000000, -414.000000)" stroke="#FFFFFF" stroke-opacity="0.74000001">
            <g id="verger-personnalisé" sketch:type="MSLayerGroup" transform="translate(31.000000, 200.000000)">
                <g id="olivier" transform="translate(604.182510, 214.500000)" sketch:type="MSShapeGroup">
                    <path d="M63.2178307,108.020869 C61.7326807,104.606412 63.21783,93.604288 63.21783,93.604288 C63.21783,93.604288 61.23763,92.4661357 61.23763,96.2599691 C61.23763,100.05381 57.77228,104.227028 57.77228,104.227028 C57.77228,104.227028 55.79208,102.709499 55.29703,99.295042 C54.80198,95.880585 35,90.189831 35,90.189831 C35,90.189831 38.55165,94.3862768 42.42575,95.1218168 C57.53303,97.9901001 42.9208,104.227028 50.34654,108.020869 C57.77228,111.814702 56.78218,112.952855 56.28713,115.229159 C55.79208,117.505464 67.67327,124.33437 66.18812,131.542661 C64.70297,138.750951 45.39605,142.924169 45.39605,142.924169 C45.39605,142.924169 47.87129,144.821089 55.29704,145.200474 C62.72278,145.579858 62.22773,151.270612 66.68317,147.856162 C71.13862,144.441705 86.48514,147.476778 84.50495,139.889104 C80.31083,130.624705 84.11398,145.742524 90.9406,145.200474 C96.88119,144.062321 108.76238,144.821089 108.76238,144.821089 C108.76238,144.821089 100.84159,142.924169 94.90099,139.130335 C88.9604,135.336494 85.9901,118.643609 83.01981,110.67655 C80.04951,102.709491 89.9505,93.6042803 92.42575,88.6722945 C94.90099,83.7403087 103.31684,81.8433882 103.31684,81.8433882 L98.86139,81.08462 C98.86139,81.08462 98.36634,83.3609246 94.40594,84.499077 C90.44555,85.6372293 83.51485,93.2248962 83.51485,93.2248962 C83.51485,93.2248962 79.05941,92.0867515 74.60397,86.3959975 C70.14852,80.7052358 72.12872,78.8083153 70.14852,77.2907865 C68.16832,75.77325 78.06931,70.4618725 78.06931,70.4618725 C78.06931,70.4618725 76.9747488,68.1124825 75.4896088,69.2506272 C74.6039696,69.665526 67.67327,78.0495471 63.21783,75.3938659 C58.76238,72.7381772 56.28713,67.0474231 56.28713,67.0474231 C56.28713,67.0474231 55.2970409,69.2506273 55.2970409,70.8568889 C56.2871304,72.7320254 65.98699,81.3888629 68.16832,86.7753816 C71.3867137,94.7227732 70.2789926,102.691209 70.7054482,108.020869 C71.4597364,117.447643 71.6423247,121.230486 70.70545,120.682803 C64.12261,116.834566 63.9604007,109.728094 63.2178307,108.020869 Z" id="path3126" fill="#978A77"></path>
                    <path d="M21.955413,23.5017811 C21.955413,23.5017811 -4.67435062,35.5645676 1.21018321,55.5674625 C7.09471704,75.5703573 7.72815885,91.961615 26.9617654,96.1597557 C46.1953719,100.357896 53.0336713,105.996567 60.822128,99.9634553 C68.6105846,93.9303439 75.1285627,78.6503604 82.9962031,86.9128741 C90.8638435,95.1753878 115.028222,84.6183047 115.028223,77.2715616 C115.028224,69.9248186 143.16601,9.14099253 104.140934,4.35292057 C65.1158575,-0.435151389 65.9076598,-1.48468655 53.746291,4.35292058 C41.5849221,10.1905277 21.955413,23.5017811 21.955413,23.5017811 Z" id="TreeShape" fill="rgba(199,237,161,0.7)"></path>
                </g>
            </g>
        </g>
    </g>
</svg>