<?xml version="1.0" encoding="UTF-8" standalone="no"?>
<svg width="145px" height="236px" viewBox="0 0 145 236" version="1.1" xmlns="http://www.w3.org/2000/svg" xmlns:xlink="http://www.w3.org/1999/xlink" xmlns:sketch="http://www.bohemiancoding.com/sketch/ns">
    <!-- Generator: Sketch 3.0.4 (8053) - http://www.bohemiancoding.com/sketch -->
    <title>pin-maritime</title>
    <desc>Created with Sketch.</desc>
    <defs></defs>
    <g id="Page-1" stroke="none" stroke-width="1" fill="none" fill-rule="evenodd" sketch:type="MSPage">
        <g id="Desktop-HD-5" sketch:type="MSArtboardGroup" transform="translate(-585.000000, -181.000000)" stroke="#FFFFFF">
            <g id="verger-personnalisé" sketch:type="MSLayerGroup" transform="translate(31.000000, 182.000000)">
                <g id="pin-maritime" transform="translate(555.000000, 0.000000)" sketch:type="MSShapeGroup">
                    <g id="Group">
                        <path d="M49.0935835,232.446611 C51.585536,226.082017 49.2232685,207.815604 58.1573258,195.292269 C67.0913831,182.768934 76.3314335,188.370616 76.3314327,170.987401 C76.3314319,153.604185 61.0874369,113.67242 61.0874369,113.67242 L60.6748105,88.4457562 L44.3967088,70.0781871 C44.3967088,70.0781871 43.9897843,64.2697173 46.0326656,69.1850959 C48.075547,74.1004745 59.5727726,81.7482874 59.5727726,81.7482874 C59.5727726,81.7482874 61.8478964,78.6927949 61.0874365,70.0781871 C61.3335068,70.1090249 62.0426462,68.7827946 64.1108053,67.0392478 L64.1108058,79.3366516 C64.1108058,79.3366516 82.9708021,70.5516449 85.2073018,64.8036357 C86.3408572,65.1261678 89.1929817,66.5067495 89.1929817,66.5067495 L67.3878029,82.782796 C67.3878029,82.782796 64.8996597,90.0668694 64.8996601,101.869645 C64.8996606,113.672422 80.9707999,149.528286 80.9708007,160.257842 C80.9708015,170.987397 83.2073019,131.639672 95.7532156,129.265824 C100.743053,124.444982 111.287639,101.869645 111.287639,101.869645 L114.194423,101.869645 C114.194423,101.869645 105.249985,122.855863 100.743052,129.265824 C96.2361188,135.675786 85.2073025,136.676347 89.1929822,154.596963 C80.9707989,180.500001 78.725817,195.292262 71.8127388,195.292268 C64.8996607,195.292274 62.8691105,222.141725 71.8127388,233.878068 C60.3809666,230.743241 62.5953216,237.364305 49.0935835,232.446611 Z" id="Path-284" stroke-opacity="0.74000001" fill="#7E6148"></path>
                        <path d="M65.4546957,69.5823592 C65.4546957,69.5823592 52.9460517,83.869287 30.0407082,76.7258231 C7.13536457,69.5823592 -8.49759657,55.8005576 6.11920414,31.798592 C20.7360049,7.79662638 54.117668,-4.62313533 69.2046351,1.58674482 C84.2916022,7.79662498 125.537144,20.2606106 121.142622,39.4880531 C116.748101,58.7154957 105.119117,72.5815543 94.8134222,72.5815524 C84.5077275,72.5815505 65.4546957,69.5823592 65.4546957,69.5823592 Z M123.241514,78.3916239 C123.241514,78.3916239 99.1185046,76.7916284 99.1185041,89.1757936 C99.1185037,101.559959 121.807838,112.676768 121.807838,112.676768 C121.807838,112.676768 142.531274,111.336231 142.531274,100.256012 C142.531273,89.1757935 123.241514,78.3916239 123.241514,78.3916239 Z" id="TreeShape" fill="rgba(178,237,109,0.7)"></path>
                    </g>
                </g>
            </g>
        </g>
    </g>
</svg>