<?xml version="1.0" encoding="UTF-8" standalone="no"?>
<svg width="178px" height="201px" viewBox="0 0 178 201" version="1.1" xmlns="http://www.w3.org/2000/svg" xmlns:xlink="http://www.w3.org/1999/xlink" xmlns:sketch="http://www.bohemiancoding.com/sketch/ns">
    <!-- Generator: Sketch 3.0.4 (8053) - http://www.bohemiancoding.com/sketch -->
    <title>pin parasol</title>
    <desc>Created with Sketch.</desc>
    <defs></defs>
    <g id="Page-1" stroke="none" stroke-width="1" fill="none" fill-rule="evenodd" sketch:type="MSPage">
        <g id="Desktop-HD-5" sketch:type="MSArtboardGroup" transform="translate(-818.000000, -243.000000)" stroke="#FFFFFF">
            <g id="verger-personnalisé" sketch:type="MSLayerGroup" transform="translate(31.000000, 192.000000)">
                <g id="pin-parasol" transform="translate(788.000000, 52.000000)" sketch:type="MSShapeGroup">
                    <path d="M52.0108636,196.03961 C52.0108636,196.03961 46.0702736,136.13862 49.0405636,130.69307 C52.0108636,125.24753 52.5059136,121.78218 50.0306636,111.88119 C47.5554236,101.9802 41.1825436,65.97826 36.6643236,58.91089 C31.7138336,55.9406 35.1791836,50 35.1791836,50 C35.1791836,50 49.0405636,82.17822 49.5356136,91.08911 C50.0306636,100 87.6544336,59.40594 90.6247236,55.44555 C93.5950236,51.48515 94.0900736,54.45545 94.0900736,54.45545 C94.0900736,54.45545 58.4465136,92.07921 53.9910636,93.56436 C49.5356136,95.04951 53.4960136,115.84159 55.9712636,116.83169 C58.4465136,117.82179 82.7039336,107.9208 84.1890836,104.45545 C85.6742336,100.9901 87.6544336,87.62377 90.6247236,85.14852 C93.5950236,82.67327 95.0801736,79.20792 95.0801736,79.20792 L99.5356136,80.19802 C99.5356136,80.19802 89.6346236,87.12872 87.1593836,100 C84.6841336,112.87129 115.377204,88.11882 116.367304,80.19802 C117.357404,72.27723 119.832644,80.19802 119.832644,80.19802 C119.832644,80.19802 109.931654,99.0099 87.6544336,107.42575 C65.3772036,115.84159 73.7930436,114.35644 65.3772036,116.33664 C56.9613636,118.31684 51.5158136,141.58416 59.9316536,197.52476 C54.4861136,199.0099 51.5158136,199.0099 51.5158136,199.0099 L52.0108636,196.03961 Z" id="path3097" stroke-opacity="0.74000001" fill="#796554"></path>
                    <path d="M80.0588408,67.461697 C54.853682,68.8541986 19.9993447,54.9659127 13.0501993,54.9659135 C5.23777322,54.9659143 -8.98460749,32.0513771 8.6834004,18.3421768 C26.3514083,4.63297639 46.6410361,-2.58987139 74.2905695,0.422364058 C90.0588556,11.148115 110.471247,12.123473 110.471251,29.431296 C110.471253,35.1522415 110.84841,40.4134942 110.450917,45.1228502 C126.010171,39.2608958 149.893564,45.4609541 149.893564,45.4609541 C149.893564,45.4609541 176.008296,47.8356002 176.008297,57.5254314 C176.008298,67.2152626 149.893565,74.2244538 139.12319,83.6082893 C128.352814,92.9921249 77.669261,83.3660439 77.6692606,74.2244529 C77.6692605,71.8615989 78.5297818,69.6371609 80.0588408,67.461697 Z" id="TreeShape" fill="rgba(86,166,72,0.8)"></path>
                </g>
            </g>
        </g>
    </g>
</svg>