<?xml version="1.0" encoding="UTF-8" standalone="no"?>
<svg width="137px" height="141px" viewBox="0 0 137 141" version="1.1" xmlns="http://www.w3.org/2000/svg" xmlns:xlink="http://www.w3.org/1999/xlink" xmlns:sketch="http://www.bohemiancoding.com/sketch/ns">
    <!-- Generator: Sketch 3.0.4 (8053) - http://www.bohemiancoding.com/sketch -->
    <title>pin-parasol-2</title>
    <desc>Created with Sketch.</desc>
    <defs></defs>
    <g id="Page-1" stroke="none" stroke-width="1" fill="none" fill-rule="evenodd" sketch:type="MSPage">
        <g id="Desktop-HD-5" sketch:type="MSArtboardGroup" transform="translate(-1011.000000, -503.000000)" stroke="#FFFFFF">
            <g id="verger-personnalisé" sketch:type="MSLayerGroup" transform="translate(31.000000, 192.000000)">
                <g id="pin-parasol-2" transform="translate(981.000000, 312.000000)" sketch:type="MSShapeGroup">
                    <path d="M62.0455587,139.302476 C62.0455587,139.302476 67.4063501,125.523055 67.40635,103.396114 C67.4063499,81.2691733 42.5497829,66.0401511 42.5497829,66.0401511 L48.2910902,68.251286 L61.4267216,77.1583228 C61.4267216,77.1583228 66.3569366,61.2397771 66.3569366,57.7678714 C68.6112377,58.2924142 73.0759899,54.27774 73.0759899,54.27774 C73.0759899,54.27774 63.9371292,64.6568131 65.5090191,75.106236 C69.7989628,77.1583219 71.1970516,82.7243891 89.5444652,47.9175458 C92.7208114,46.9068372 97.0481426,41.9204907 97.0481426,41.9204907 C97.0481426,41.9204907 74.3445958,76.3823193 74.344595,78.7981806 C74.3445946,79.9311873 73.6466472,93.0950031 72.9054086,106.755848 C72.0661359,122.223434 71.1713636,138.328213 71.1713636,138.328213 L62.0455587,139.302476 Z" id="Path-297" stroke-opacity="0.74000001" fill="#625E48"></path>
                    <path d="M0.423809573,52.7202258 C0.423809573,52.7202258 30.9857934,-6.85019853 53.1072597,0.764311652 C75.228726,8.37882183 123.399273,9.48380341 133.387845,22.4645761 C143.376416,35.4453487 102.686374,41.845479 84.7961005,53.3657088 C66.9058271,64.8859386 35.1704896,91.0881745 17.7971496,75.9794958 C0.423809573,60.8708172 0.423809573,52.7202258 0.423809573,52.7202258 Z" id="TreeShape" fill="rgba(38,145,63,0.7)"></path>
                </g>
            </g>
        </g>
    </g>
</svg>