<?xml version="1.0" encoding="UTF-8" standalone="no"?>
<svg width="1440px" height="725px" viewBox="0 0 1440 725" version="1.1" xmlns="http://www.w3.org/2000/svg" xmlns:xlink="http://www.w3.org/1999/xlink" xmlns:sketch="http://www.bohemiancoding.com/sketch/ns">
    <!-- Generator: Sketch 3.1 (8751) - http://www.bohemiancoding.com/sketch -->
    <title>fond</title>
    <desc>Created with Sketch.</desc>
    <defs></defs>
    <g id="Page-1" stroke="none" stroke-width="1" fill="none" fill-rule="evenodd" sketch:type="MSPage">
        <g id="fond" sketch:type="MSArtboardGroup" stroke-opacity="0.74000001" stroke="#FFFFFF">
            <g id="houses2" sketch:type="MSLayerGroup" transform="translate(1323.000000, 331.000000)">
                <path d="M0.444057573,49.4103199 L17.4177777,48.2166112 L17.4177772,24.3832696 L0.179856467,24.3832696 L0.444057573,49.4103199 Z" id="Path-1349" fill="#D1D11A" sketch:type="MSShapeGroup"></path>
                <path d="M8.02903115,8.54081057 L-0.19242691,24.8876536 L16.3561696,24.0614246 L8.02903115,8.54081057 Z" id="Path-1350" fill="#1AC5D1" sketch:type="MSShapeGroup"></path>
                <path d="M16.3561696,16.3923871 L16.3561696,48.0191949 L32.5877249,46.5161168 L28.8216582,16.0249074 L16.3561696,16.3923871 Z" id="Path-1351" fill="#DC9831" sketch:type="MSShapeGroup"></path>
                <path d="M15.9334479,16.7142321 L24.0492255,0.364987251 L29.9361065,16.896771 L15.9334479,16.7142321 Z" id="Path-1352" fill="#D1D11A" sketch:type="MSShapeGroup"></path>
                <path d="M34.1850838,23.4177347 L28.8455489,33.5222261 L28.2292698,46.6554229 L45.2292698,44.863659 L44.0478745,33.38292 L34.1850838,23.4177347 Z" id="Path-1353" fill="#F14E4E" sketch:type="MSShapeGroup"></path>
                <path d="M42.3128553,44.9296392 L55.0798221,44.9296392 L55.0798225,24.3343535 L49.454508,10.767938 L44.0573859,23.0962249 L42.3128553,44.9296392 Z" id="Path-1354" fill="#9DBDC0" sketch:type="MSShapeGroup"></path>
                <path d="M57.2248325,44.4035208 L69.872589,43.3067243 L69.0275404,27.5717434 L56.8023083,27.4583832 L57.2248325,44.4035208 Z" id="Path-1355" fill="#F3BFBF" sketch:type="MSShapeGroup"></path>
                <path d="M56.7699196,27.6836314 L69.4500647,28.1061556 L63.1107283,16.284309 L56.7699196,27.6836314 Z" id="Path-1356" fill="#DC2828" sketch:type="MSShapeGroup"></path>
                <path d="M71.3528988,45.6725062 L85.7231409,44.3728884 L85.7231411,32.5415604 L78.7492824,22.0152586 L71.3528989,30.5717434 L71.3528988,45.6725062 Z" id="Path-1357" fill="#CCC133" sketch:type="MSShapeGroup"></path>
                <path d="M85.9259367,46.8849388 L98.5736931,45.7601703 L97.5652292,24.5647624 L86.6090421,23.9729339 L85.9259367,46.8849388 Z" id="Path-1358" fill="#8CC152" sketch:type="MSShapeGroup"></path>
                <path d="M86.5442649,23.9729339 L97.4356747,24.3674862 L92.8188241,10.7716265 L86.5442649,23.9729339 Z" id="Path-1359" fill="#1AC5D1" sketch:type="MSShapeGroup"></path>
                <path d="M98.5806848,48.3807095 L115.683349,47.9302132 L110.903083,29.1551186 L100.532835,29.4363107 L98.5806848,48.3807095 Z" id="Path-1360" fill="#CF850B" sketch:type="MSShapeGroup"></path>
                <path d="M100.88911,29.6335869 L105.473572,18.4874847 L110.545336,29.3523948 L100.88911,29.6335869 Z" id="Path-1361" fill="#F90606" sketch:type="MSShapeGroup"></path>
            </g>
        </g>
    </g>
</svg>