<?xml version="1.0" encoding="UTF-8" standalone="no"?>
<svg width="1440px" height="725px" viewBox="0 0 1440 725" version="1.1" xmlns="http://www.w3.org/2000/svg" xmlns:xlink="http://www.w3.org/1999/xlink" xmlns:sketch="http://www.bohemiancoding.com/sketch/ns">
    <!-- Generator: Sketch 3.1 (8751) - http://www.bohemiancoding.com/sketch -->
    <title>fond</title>
    <desc>Created with Sketch.</desc>
    <defs></defs>
    <g id="Page-1" stroke="none" stroke-width="1" fill="none" fill-rule="evenodd" sketch:type="MSPage">
        <g id="fond" sketch:type="MSArtboardGroup">
            <g id="montagnes" sketch:type="MSLayerGroup" transform="translate(17.000000, 121.000000)"></g>
            <g id="mill3" sketch:type="MSLayerGroup" transform="translate(929.000000, 232.000000)" stroke-opacity="0.74000001" stroke="#FFFFFF">
                <path d="M9.63394281,60.8410648 L15.2330207,21.228678 L28.5667931,20.9877315 L32.0339428,57.2190944 L9.63394281,60.8410648 Z" id="Path-1406" fill="#D5CA38" sketch:type="MSShapeGroup"></path>
                <path d="M15.6218249,20.7205336 C15.6218249,20.7205336 17.4508858,14.0930876 21.8956042,14.0930875 C26.3403226,14.0930873 28.1693835,20.7205337 28.1693835,20.7205337 L15.6218249,20.7205336 Z" id="Path-1407" fill="#F6A623" sketch:type="MSShapeGroup"></path>
                <path d="M21.7939,21.4562071 L3.59646908,39.9569285 L8.3384319,44.7779241 L18.8614128,34.0795602 L14.1286102,29.5096293 M22.7855211,22.4551042 L4.28479968,4.25767323 L-0.536195859,8.99963605 L10.162168,19.5226169 L14.7320989,14.7898143 M21.4626785,23.4205499 L39.6601095,4.91982845 L34.9181466,0.0988329174 L24.3951658,10.7971968 L29.1279684,15.3671277 M20.4710574,22.4216528 L38.9717789,40.6190838 L43.7927744,35.8771209 L33.0944105,25.3541401 L28.5244797,30.0869427" id="Path-1408" fill="#F77373" sketch:type="MSShapeGroup"></path>
            </g>
        </g>
    </g>
</svg>