<?xml version="1.0" encoding="UTF-8" standalone="no"?>
<svg width="1440px" height="725px" viewBox="0 0 1440 725" version="1.1" xmlns="http://www.w3.org/2000/svg" xmlns:xlink="http://www.w3.org/1999/xlink" xmlns:sketch="http://www.bohemiancoding.com/sketch/ns">
    <!-- Generator: Sketch 3.1 (8751) - http://www.bohemiancoding.com/sketch -->
    <title>fond</title>
    <desc>Created with Sketch.</desc>
    <defs></defs>
    <g id="Page-1" stroke="none" stroke-width="1" fill="none" fill-rule="evenodd" sketch:type="MSPage">
        <g id="fond" sketch:type="MSArtboardGroup" stroke="#FFFFFF">
            <path d="M1174.90002,412.598476 C1174.90002,412.598476 1211.00074,324.664987 1228.44413,324.664976 C1233.72905,324.664973 1250.64527,263.877261 1253.99695,253.947388 C1258.80551,239.701298 1260.51638,222.260304 1281.57121,219.39081 C1302.62603,216.521316 1302.72286,273.027537 1315.34332,265.58058 C1327.96378,258.133623 1337.35618,285.886097 1337.35619,294.869862 C1337.35619,303.853628 1354.60072,350.918707 1364.79107,350.918706 C1374.98143,350.918705 1397.5183,400.617302 1416.68269,400.6173 C1435.84708,400.617298 1315.24066,439.067146 1305.51601,439.067137 C1295.79136,439.067127 1174.90002,412.598476 1174.90002,412.598476 Z" id="rocher" stroke-opacity="0.54260077" fill="#52965C" sketch:type="MSShapeGroup"></path>
            <g id="village" sketch:type="MSLayerGroup" transform="translate(1134.000000, 221.000000)" stroke-opacity="0.74000001">
                <g id="houses2" transform="translate(107.000000, 56.000000)" sketch:type="MSShapeGroup">
                    <path d="M17.074538,34.5755448 L30.1800362,33.6143091 L28.755245,13.8300701 L14.9846533,13.9681581 L17.074538,34.5755448 Z" id="Path-1339" fill="#EFE3E3"></path>
                    <path d="M15.1752943,13.4201202 L21.7273267,-0.475176672 L28.5015348,13.5562924 L15.1752943,13.4201202 Z" id="Path-1340" fill="#FF1927"></path>
                    <path d="M13.3391199,16.0487834 C13.3391199,16.0487834 8.36955172,26.4857829 8.36955167,26.4857821 C8.36955162,26.4857814 8.36955167,40.7389897 8.36955167,40.7389897 L19.8911522,40.3159143 L19.3220958,26.0951197 L13.3391199,16.0487834 Z" id="Path-1336" fill="#DECE0B"></path>
                    <path d="M9.00167731,41 L-0.272365457,40.7714028 L-0.431471909,24.7576554 L8.21044522,26.8457375 L9.00167731,41 Z" id="Path-1337" fill="#DECE0B"></path>
                    <path d="M12.864668,15.345561 L7.92520054,27.1581397 L-0.0516231796,25.3219658 L5.75791274,13.8663012 L12.864668,15.345561 Z" id="Path-1338" fill="#5AE0E9"></path>
                </g>
                <g id="bridge" sketch:type="MSShapeGroup">
                    <path d="M53.0765403,147.045141 C53.0765403,147.045141 47.0610291,118.232902 69.2673928,118.232902 C91.4737565,118.232902 82.4068238,158.199092 82.4068238,158.199092 L96.5412232,161.738284 C96.5412232,161.738284 88.7768952,114.553333 103.638132,114.553333 C118.499368,114.553333 211.142279,87.1283261 220.010759,87.1283258 C228.879239,87.1283254 227.253648,123.824455 227.253648,128.798827 C230.266954,128.798827 235.824098,131.918521 235.824098,131.918521 C235.824098,131.918521 237.835553,86.3265712 237.835553,81.0132531 C237.835553,75.699935 241.454286,74.1239942 241.45428,66.1148179 C235.454286,66.1148179 24.5118881,114.553331 24.5118881,114.553331 L21.226793,131.918524 L53.0765403,147.045141 Z" id="Path-1323" fill="#3CA39B"></path>
                    <path d="M144.329085,-0.172797519 C144.329085,-0.172797519 143.002135,18.5013777 143.002135,21.4346015 C144.329085,50.4036948 242.320222,42.4340846 242.32022,67.5584799 C242.320219,84.3374525 74.2181039,108.501953 58.0730924,108.501954 C41.9280809,108.501955 24.1868715,132.884988 24.1868715,132.884988 L-0.476761867,120.540113 C-0.476761867,120.540113 24.8766183,100.25396 49.7628774,100.253962 C49.7628774,100.253962 202.729293,83.1119558 196.84822,70.1595174 C190.967147,57.2070791 132.300597,50.2668292 133.819945,28.8495547 C133.819945,25.1513755 137.453704,10.3172499 135.981673,2.36335532" id="Path-1322" fill="#6ACEC6"></path>
                </g>
                <g id="houses1" transform="translate(111.000000, 3.000000)" sketch:type="MSShapeGroup">
                    <path d="M7.01051521,36.2234911 L5.29409408,15.4727244 L21.7927856,15.4727244 L16.2865838,36.2234919 L7.01051521,36.2234911 Z" id="Path-1324" fill="#E5AFAF"></path>
                    <path d="M14.3051072,0.423771062 L5.4745201,15.2598535 L21.8244404,15.2598535 L14.3051072,0.423771062 Z" id="Path-1325" fill="#E93333"></path>
                    <path d="M1.62304928,32.5486246 L3.20260219,46.8789628 L20.7853002,44.7314756 L21.6143192,30.9847471 L1.62304928,32.5486246 Z" id="Path-1326" fill="#E0D111"></path>
                    <path d="M20.9207272,44.9676275 L29.2160024,44.148352 L29.2160029,31.7013567 L27.8069863,23.023711 L22.0780079,31.7013568 L20.9207272,44.9676275 Z" id="Path-1328" fill="#E0D111"></path>
                    <path d="M8.11582813,22.5657542 L0.405182387,32.0141489 L22.1295288,30.9402518 L27.6597963,22.5657542 L8.11582813,22.5657542 Z" id="Path-1327" fill="#C74242"></path>
                    <path d="M26.5331367,45.3482599 L26.5331367,54.1966771 L46.5815948,53.2096852 L46.5815951,44.1923216 L26.5331367,45.3482599 Z" id="Path-1329" fill="#EFAA3F"></path>
                    <path d="M31.1787038,35.2062025 L25.3382549,45.0588355 L47.1644064,44.4757119 L44.4764729,35.2062025 L31.1787038,35.2062025 Z" id="Path-1330" fill="#EC8496"></path>
                </g>
                <g id="houses3" transform="translate(171.000000, 89.000000)" sketch:type="MSShapeGroup">
                    <path d="M28.0492934,-0.256347738 L21.2648731,11.4616434 L34.5351549,11.4616431 L28.0492934,-0.256347738 Z" id="Path-1344" fill="#EB7878"></path>
                    <path d="M21.9438689,11.4905392 L22.5826172,30.1876169 L34.2701918,30.4780953 L34.0344633,11.7521219 L21.9438689,11.4905392 Z" id="Path-1345" fill="#F8E81C"></path>
                    <path d="M6.39338737,14.3405737 L-0.188762642,26.9300001 L-0.457949461,54.5498432 L16.6376948,52.6380513 L15.5624683,26.2319394 L6.39338737,14.3405737 Z" id="Path-1341" fill="#C99E9E"></path>
                    <path d="M6.66257421,13.4387217 L31.1129498,15.1542174 L36.0495623,24.371965 L15.226365,25.5353995 L6.66257421,13.4387217 Z" id="Path-1342" fill="#E09820"></path>
                    <path d="M15.9654882,52.6303504 L15.9654882,26.060547 L36.1179997,24.9818176 L36.1179998,52.6303504 L15.9654882,52.6303504 Z" id="Path-1343" fill="#C99E9E"></path>
                    <path d="M41.2903408,11.4810866 L34.1363588,24.1283046 L46.8657016,25.4377387 L52.1718757,15.900617 L41.2903408,11.4810866 Z" id="Path-1346" fill="#DDD137"></path>
                    <path d="M34.4040248,24.5936784 L34.4040248,52.2059545 L46.9326179,52.2059545 L46.9326181,25.9914798 L34.4040248,24.5936784 Z" id="Path-1347" fill="#FF9A00"></path>
                    <path d="M52.3391522,16.3203285 L46.6380929,25.7620579 L45.4624868,52.3140457 L59.4262322,51.3591201 L59.4262324,27.414248 L52.3391522,16.3203285 Z" id="Path-1348" fill="#FF9A00"></path>
                </g>
            </g>
        </g>
    </g>
</svg>